<svg fill="#000" width="800" height="800" viewBox="144 144 512 512" xmlns="http://www.w3.org/2000/svg"><g><path d="m4e2 620.41c-65.109.0-118.08-40.609-118.08-90.527v-165.31c0-49.918 52.973-90.527 118.08-90.527s118.08 40.609 118.08 90.527v165.31c-.003906 49.918-52.973 90.527-118.08 90.527zm0-330.62c-56.43.0-102.34 33.547-102.34 74.785v165.31c0 41.234 45.906 74.785 102.34 74.785s102.34-33.547 102.34-74.785v-165.31c0-41.234-45.906-74.785-102.34-74.785zm0 86.594c-13.242.0-23.617-8.6445-23.617-19.68v-23.617c0-11.035 10.375-19.68 23.617-19.68s23.617 8.6445 23.617 19.68v23.617c-.003907 11.035-10.379 19.68-23.617 19.68zm0-47.234c-4.8828.0-7.8711 2.5469-7.8711 3.9375v23.617c0 1.3867 2.9922 3.9375 7.8711 3.9375 4.8828.0 7.8711-2.5469 7.8711-3.9375v-23.617c0-1.3867-2.9922-3.9375-7.8711-3.9375z"/><path d="m4e2 376.38c-13.242.0-23.617-8.6445-23.617-19.68v-23.617c0-11.035 10.375-19.68 23.617-19.68s23.617 8.6445 23.617 19.68V356.7c-.003907 11.035-10.379 19.68-23.617 19.68zm0-47.234c-4.8828.0-7.8711 2.5469-7.8711 3.9375v23.617c0 1.3867 2.9922 3.9375 7.8711 3.9375 4.8828.0 7.8711-2.5469 7.8711-3.9375v-23.617c0-1.3867-2.9922-3.9375-7.8711-3.9375z"/><path d="m289.79 455.11c-3.4258.0-6.5781-2.2578-7.5625-5.7109-1.1953-4.1836 1.2266-8.5391 5.4023-9.7305l104.5-29.859v-41.293c0-4.3477 3.5234-7.8711 7.8711-7.8711s7.8711 3.5234 7.8711 7.8711v47.23c0 3.5117-2.3281 6.6055-5.707 7.5664l-110.21 31.488c-.72266.21094-1.4531.30859-2.168.30859z"/><path d="m4e2 329.15c-4.3477.0-7.8711-3.5234-7.8711-7.8711v-39.359c0-4.3477 3.5234-7.8711 7.8711-7.8711s7.8711 3.5234 7.8711 7.8711v39.359c0 4.3477-3.5273 7.8711-7.8711 7.8711z"/><path d="m510.21 455.11c-.71484.0-1.4453-.10156-2.168-.30859l-110.21-31.488c-4.1797-1.1953-6.6016-5.5508-5.4023-9.7305 1.1992-4.1758 5.5508-6.5938 9.7305-5.4023l110.21 31.488c4.1797 1.1953 6.6016 5.5508 5.4023 9.7305-.98828 3.457-4.1367 5.7109-7.5625 5.7109z"/><path d="m4e2 281.92c-4.3477.0-7.8711-3.5234-7.8711-7.8711v-31.488c0-4.3477 3.5234-7.8711 7.8711-7.8711h47.234v-47.234c0-4.3477 3.5234-7.8711 7.8711-7.8711 4.3477.0 7.8711 3.5234 7.8711 7.8711v55.105c0 4.3477-3.5234 7.8711-7.8711 7.8711h-47.234v23.617c0 4.3477-3.5234 7.8711-7.8711 7.8711z"/></g></svg>