<svg fill="#000" width="800" height="800" viewBox="144 144 512 512" xmlns="http://www.w3.org/2000/svg"><g><path d="m510.21 628.29H289.79c-4.3477.0-7.8711-3.5234-7.8711-7.8711v-440.84c0-4.3477 3.5234-7.8711 7.8711-7.8711h220.42c4.3477.0 7.8711 3.5234 7.8711 7.8711v440.83c0 4.3477-3.5234 7.875-7.8711 7.875zm-212.54-15.746h204.67v-425.09H297.67z"/><path d="m486.59 250.43H313.41c-4.3477.0-7.8711-3.5234-7.8711-7.8711v-31.488c0-4.3477 3.5234-7.8711 7.8711-7.8711h173.18c4.3477.0 7.8711 3.5234 7.8711 7.8711v31.488c0 4.3477-3.5234 7.8711-7.8711 7.8711zm-165.31-15.742h157.44v-15.746H321.28z"/><path d="m486.59 305.54H313.41c-4.3477.0-7.8711-3.5234-7.8711-7.8711v-31.488c0-4.3477 3.5234-7.8711 7.8711-7.8711h173.18c4.3477.0 7.8711 3.5234 7.8711 7.8711v31.488c0 4.3438-3.5234 7.8711-7.8711 7.8711zm-165.31-15.746h157.44v-15.742H321.28z"/><path d="m4e2 510.19c-8.0625.0-16.125-3.0703-22.262-9.2109-5.9492-5.9453-9.2266-13.855-9.2266-22.266s3.2773-16.316 9.2266-22.262c3.0742-3.0664 8.0586-3.0703 11.137.003906 3.0703 3.0781 3.0703 8.0586-.003906 11.137-2.9766 2.9727-4.6133 6.9219-4.6133 11.125.0 4.207 1.6367 8.1602 4.6133 11.137 6.1406 6.1328 16.121 6.1328 22.262.0 6.1367-6.1367 6.1367-16.125.0-22.262-3.0742-3.0742-3.0742-8.0547.0-11.133 3.0742-3.0742 8.0547-3.0742 11.133.0 12.277 12.277 12.277 32.25.0 44.527-6.1445 6.1328-14.203 9.2031-22.266 9.2031z"/><path d="m4e2 478.72c-4.3477.0-7.8711-3.5234-7.8711-7.8711v-23.617c0-4.3477 3.5234-7.8711 7.8711-7.8711s7.8711 3.5234 7.8711 7.8711v23.617c0 4.3477-3.5273 7.8711-7.8711 7.8711z"/><path d="m4e2 533.82c-32.555.0-59.039-26.484-59.039-59.039s26.484-59.039 59.039-59.039 59.039 26.484 59.039 59.039S432.555 533.82 4e2 533.82zm0-102.34c-23.875.0-43.297 19.422-43.297 43.297s19.422 43.297 43.297 43.297 43.297-19.422 43.297-43.297c-.003906-23.875-19.426-43.297-43.297-43.297z"/><path d="m380.32 581.05c-6.5117.0-11.809-5.2969-11.809-11.809.0-6.5117 5.2969-11.809 11.809-11.809s11.809 5.2969 11.809 11.809c-.003906 6.5117-5.3008 11.809-11.809 11.809zm0-15.742c-2.1719.0-3.9375 1.7656-3.9375 3.9375s1.7656 3.9375 3.9375 3.9375 3.9375-1.7656 3.9375-3.9375c-.003907-2.1758-1.7656-3.9375-3.9375-3.9375z"/><path d="m419.68 581.05c-6.5117.0-11.809-5.2969-11.809-11.809.0-6.5117 5.2969-11.809 11.809-11.809 6.5117.0 11.809 5.2969 11.809 11.809.0 6.5117-5.2969 11.809-11.809 11.809zm0-15.742c-2.1719.0-3.9375 1.7656-3.9375 3.9375s1.7656 3.9375 3.9375 3.9375 3.9375-1.7656 3.9375-3.9375c-.003906-2.1758-1.7656-3.9375-3.9375-3.9375z"/><path d="m352.77 581.05h-31.488c-4.3477.0-7.8711-3.5234-7.8711-7.8711v-7.8711c0-4.3477 3.5234-7.8711 7.8711-7.8711h31.488c4.3477.0 7.8711 3.5234 7.8711 7.8711v7.8711c0 4.3477-3.5234 7.8711-7.8711 7.8711z"/><path d="m478.72 581.05h-31.488c-4.3477.0-7.8711-3.5234-7.8711-7.8711v-7.8711c0-4.3477 3.5234-7.8711 7.8711-7.8711h31.488c4.3477.0 7.8711 3.5234 7.8711 7.8711v7.8711c0 4.3477-3.5234 7.8711-7.8711 7.8711z"/><path d="m4e2 407.87c-13.023.0-23.617-10.594-23.617-23.617s10.594-23.617 23.617-23.617 23.617 10.594 23.617 23.617c-.003907 13.023-10.598 23.617-23.617 23.617zm0-31.488c-4.3398.0-7.8711 3.5312-7.8711 7.8711s3.5312 7.8711 7.8711 7.8711 7.8711-3.5312 7.8711-7.8711-3.5312-7.8711-7.8711-7.8711z"/><path d="m510.21 337.02H289.79c-4.3477.0-7.8711-3.5234-7.8711-7.8711s3.5234-7.8711 7.8711-7.8711h220.42c4.3477.0 7.8711 3.5234 7.8711 7.8711.0 4.3438-3.5234 7.8711-7.8711 7.8711z"/></g></svg>