<svg fill="#000" width="800" height="800" viewBox="144 144 512 512" xmlns="http://www.w3.org/2000/svg"><path d="m538.35 350.6c-18.105.0-32.078 14.762-32.078 32.867v40.344c-5.9023-2.7539-12.594-4.1328-19.09-4.1328h-57.66v-11.809h18.105c16.727.0 31.293-12.594 33.457-29.125l16.531-118.08c1.5742-11.02-1.7695-22.043-9.0547-30.504-7.0859-8.2656-17.516-12.988-28.141-12.988h-118.87c-10.824.0-20.469 4.7227-27.551 12.988-7.2812 8.4609-10.43 19.68-8.4609 30.504l15.941 117.88c2.3633 16.727 16.137 29.52 32.867 29.52h20.07v11.809h-59.434c-6.4961.0-11.414 1.5742-17.32 4.1328v-40.344c0-18.105-14.762-32.867-33.062-32.867-4.3281.0-7.8711 3.543-7.8711 7.6758s3.3438 7.6758 7.6758 7.6758c9.6445.0 17.32 7.8711 17.32 17.32v63.961c0 .78906-.19531 1.7695-.19531 2.5586.0 17.711 13.973 30.504 33.062 30.504l79.504-.003907v21.844c-33.457 1.5742-57.465 13.973-77.934 39.359-9.25 1.9688-16.531 10.035-16.531 20.074.0 11.219 9.0547 20.469 20.27 20.469 11.219.0 20.27-9.0547 20.27-20.469.0-6.2969-2.5586-12.004-7.2812-15.742 16.336-17.91 35.426-26.566 61.008-27.945v24.992c-7.8711 3.1484-12.988 10.43-12.988 18.895.0 11.219 8.8555 20.469 20.27 20.469 11.219.0 20.859-9.0547 20.859-20.469.0-8.4609-4.3281-15.742-12.203-18.895l.007813-24.992c25.586 1.3789 43.691 10.035 60.223 27.945-4.5273 3.7383-7.8711 9.4453-7.8711 15.742.0 11.219 9.0547 20.469 20.27 20.469 11.219.0 20.27-9.0547 20.27-20.469.0-9.8398-6.4961-18.105-15.941-20.074-20.469-25.387-45.656-37.785-77.145-39.359l-.003906-21.645h77.344c19.09.0 32.473-12.793 32.473-30.504.0-.78906.39453-1.7695.39453-2.5586v-63.961c0-9.6445 7.8711-17.32 17.516-17.32 4.3281.0 8.2656-3.543 8.2656-7.6758.0-4.1289-2.9531-8.0664-7.2852-8.0664zM319.71 566.69c-2.7539.0-4.9219-2.1641-4.9219-4.9219.0-2.7539 2.1641-4.9219 4.9219-4.9219 2.7539.0 4.9219 2.1641 4.9219 4.9219s-2.1641 4.9219-4.9219 4.9219zm162.56.0c-2.7539.0-4.9219-2.1641-4.9219-4.9219.0-2.7539 2.1641-4.9219 4.9219-4.9219 2.7539.0 4.9219 2.1641 4.9219 4.9219-.003906 2.7578-2.168 4.9219-4.9219 4.9219zm-81.277.0c-2.7539.0-4.9219-2.1641-4.9219-4.9219.0-2.7539 2.1641-4.9219 4.9219-4.9219 2.7539.0 4.9219 2.1641 4.9219 4.9219-.003906 2.7578-2.168 4.9219-4.9219 4.9219zm-63.766-190.5-15.941-117.89c-1.9688-6.4961.39453-12.988 4.7227-18.105 4.3281-4.9219 9.25-7.4766 15.547-7.4766h119.06c6.2969.0 12.004 2.7539 16.336 7.4766 4.3281 4.9219 6.2969 11.609 5.5117 18.105l-16.531 118.08c-1.1797 8.8555-9.0547 15.547-17.91 15.547h-25.191c-.78906-.19531-1.3789-.39453-2.1641-.39453-.78906.0-1.5742.19531-2.1641.39453h-34.242c-.78906-.19531-1.3789-.39453-2.1641-.39453-.78906.0-1.5742.19531-2.1641.39453h-25.191c-9.25.19531-16.336-6.6914-17.516-15.742zm52.941 31.684h23.617v11.809h-23.617zm97.02 57.07h-172.2c-8.6602.0-17.32-4.5273-17.32-14.762.0-10.234 8.6602-14.762 17.32-14.762h172.4c8.6602.0 17.32 4.5273 17.32 14.762-.003907 10.238-8.8594 14.762-17.52 14.762z"/></svg>