<svg width="800" height="800" viewBox="144 144 512 512" xmlns="http://www.w3.org/2000/svg"><defs><clipPath id="a"><path d="m185 148.09h430V651.9H185z"/></clipPath></defs><path d="m4e2 420.31c31.691.0 57.488-25.789 57.488-57.496.0-31.699-25.789-57.488-57.488-57.488s-57.488 25.789-57.488 57.488c-.003907 31.707 25.785 57.496 57.488 57.496zm0-91.363c18.672.0 33.875 15.191 33.875 33.875.0 18.68-15.199 33.883-33.875 33.883-18.68.0-33.875-15.199-33.875-33.883.0-18.684 15.191-33.875 33.875-33.875z"/><path d="m4e2 529.73c92.031.0 166.91-74.879 166.91-166.92.0-92.031-74.879-166.91-166.91-166.91-92.039.0-166.92 74.879-166.92 166.91.0 92.047 74.875 166.92 166.92 166.92zm0-310.21c79.012.0 143.29 64.281 143.29 143.29.0 79.02-64.281 143.3-143.29 143.3-79.02.0-143.3-64.281-143.3-143.3-.003907-79.008 64.281-143.29 143.3-143.29z"/><path d="m4e2 490.42c70.359.0 127.61-57.238 127.61-127.61.0-70.359-57.238-127.61-127.61-127.61-70.359.0-127.61 57.246-127.61 127.61.0 70.367 57.242 127.61 127.61 127.61zm0-231.6c57.34.0 103.99 46.648 103.99 103.99.0 57.344-46.648 103.99-103.99 103.99s-103.99-46.648-103.99-103.99c-.003907-57.34 46.648-103.99 103.99-103.99z"/><g clip-path="url(#a)"><path d="m568.92 148.09H231.08c-25.262.0-45.801 20.547-45.801 45.801v446.2c0 6.5195 5.2812 11.809 11.809 11.809h75.43c5.4883.0 10.25-3.7773 11.492-9.1172l15.25-65.25h201.48l15.242 65.242c1.25 5.3477 6.0039 9.125 11.488 9.125h75.43c6.5195.0 11.809-5.2891 11.809-11.809v-446.2c0-25.254-20.547-45.801-45.797-45.801zm-337.84 23.617h337.84c12.234.0 22.184 9.9492 22.184 22.184v360.02h-382.2v-360.02c0-12.234 9.9492-22.184 22.184-22.184zm32.062 456.58h-54.246v-50.75h66.109zm273.71.0-11.855-50.75h66.102v50.75z"/></g><path d="m235.34 224.83c2.4648.0 4.9531-.76953 7.0781-2.3633l16.996-12.746c5.2188-3.9141 6.2734-11.32 2.3633-16.531-3.9141-5.2109-11.32-6.2578-16.531-2.3633l-16.996 12.746c-5.2188 3.9141-6.2734 11.32-2.3633 16.531 2.3203 3.0938 5.8633 4.7266 9.4531 4.7266z"/><path d="m540.58 209.72 16.996 12.746c2.1328 1.5898 4.6133 2.3633 7.0781 2.3633 3.5898.0 7.1328-1.6289 9.4531-4.7227 3.9141-5.2188 2.8516-12.617-2.3633-16.531l-16.996-12.746c-5.2188-3.8984-12.617-2.8516-16.539 2.3633-3.8945 5.207-2.8398 12.617 2.3711 16.527z"/><path d="m557.58 503.16-16.996 12.746c-5.2109 3.9141-6.2734 11.32-2.3633 16.539 2.3203 3.0938 5.8633 4.7227 9.4531 4.7227 2.4648.0 4.9531-.76953 7.0781-2.3633l16.996-12.746c5.2109-3.9141 6.2734-11.32 2.3633-16.539-3.9141-5.207-11.297-6.2617-16.531-2.3594z"/><path d="m228.25 522.06 16.996 12.746c2.125 1.5898 4.6055 2.3633 7.0781 2.3633 3.5898.0 7.1328-1.6289 9.4531-4.7227 3.9141-5.2188 2.8516-12.625-2.3633-16.539l-16.996-12.746c-5.2188-3.9062-12.609-2.8516-16.531 2.3633-3.9102 5.2148-2.8477 12.621 2.3633 16.535z"/></svg>