<svg fill="#000" width="800" height="800" viewBox="144 144 512 512" xmlns="http://www.w3.org/2000/svg"><g><path d="m573.18 628.29H242.56c-4.3477.0-7.8711-3.5234-7.8711-7.8711v-165.32c0-4.3477 3.5234-7.8711 7.8711-7.8711h31.488v-15.742H242.56c-4.3477.0-7.8711-3.5234-7.8711-7.8711v-23.617c0-4.3477 3.5234-7.8711 7.8711-7.8711h31.488v-15.742H242.56c-4.3477.0-7.8711-3.5234-7.8711-7.8711v-23.617c0-4.3477 3.5234-7.8711 7.8711-7.8711h15.742v-94.469H242.56c-4.3477.0-7.8711-3.5234-7.8711-7.8711v-55.105c0-4.3477 3.5234-7.8711 7.8711-7.8711h330.62c4.3477.0 7.8711 3.5234 7.8711 7.8711v440.83c0 4.3477-3.5234 7.875-7.8711 7.875zm-322.75-15.746h314.88v-425.09H250.43v39.359h15.742c4.3477.0 7.8711 3.5234 7.8711 7.8711v110.21c0 4.3477-3.5234 7.8711-7.8711 7.8711H250.43v7.8711h31.488c4.3477.0 7.8711 3.5234 7.8711 7.8711v31.488c0 4.3477-3.5234 7.8711-7.8711 7.8711H250.43v7.8711h31.488c4.3477.0 7.8711 3.5234 7.8711 7.8711v31.488c0 4.3477-3.5234 7.8711-7.8711 7.8711H250.43z"/><path d="m266.18 352.77h-39.359c-4.3477.0-7.8711-3.5234-7.8711-7.8711l-.003906-110.21c0-4.3477 3.5234-7.8711 7.8711-7.8711h39.359c4.3477.0 7.8711 3.5234 7.8711 7.8711v110.21c.003906 4.3477-3.5234 7.8711-7.8672 7.8711zm-31.488-15.742h23.617l-.003907-94.465h-23.617z"/><path d="m478.72 407.87c-4.3477.0-7.8711-3.5234-7.8711-7.8711v-165.31c0-4.3477 3.5234-7.8711 7.8711-7.8711s7.8711 3.5234 7.8711 7.8711v165.31c0 4.3438-3.5234 7.8711-7.8711 7.8711z"/><path d="m502.34 407.87c-4.3477.0-7.8711-3.5234-7.8711-7.8711l-.003906-165.31c0-4.3477 3.5234-7.8711 7.8711-7.8711 4.3477.0 7.8711 3.5234 7.8711 7.8711v165.31c.003906 4.3438-3.5195 7.8711-7.8672 7.8711z"/><path d="m439.36 486.59H329.15c-4.3477.0-7.8711-3.5234-7.8711-7.8711s3.5234-7.8711 7.8711-7.8711h110.21c4.3477.0 7.8711 3.5234 7.8711 7.8711.003907 4.3477-3.5195 7.8711-7.8672 7.8711z"/><path d="m407.87 518.08H297.66c-4.3477.0-7.8711-3.5234-7.8711-7.8711s3.5234-7.8711 7.8711-7.8711h110.21c4.3477.0 7.8711 3.5234 7.8711 7.8711.0 4.3477-3.5234 7.8711-7.8711 7.8711z"/><path d="m407.87 541.7H297.66c-4.3477.0-7.8711-3.5234-7.8711-7.8711.0-4.3477 3.5234-7.8711 7.8711-7.8711h110.21c4.3477.0 7.8711 3.5234 7.8711 7.8711.0 4.3438-3.5234 7.8711-7.8711 7.8711z"/><path d="m337.02 573.18h-15.742c-4.3477.0-7.8711-3.5234-7.8711-7.8711s3.5234-7.8711 7.8711-7.8711h15.742c4.3477.0 7.8711 3.5234 7.8711 7.8711.0 4.3438-3.5234 7.8711-7.8711 7.8711z"/><path d="m384.25 573.18h-15.742c-4.3477.0-7.8711-3.5234-7.8711-7.8711s3.5234-7.8711 7.8711-7.8711h15.742c4.3477.0 7.8711 3.5234 7.8711 7.8711.0 4.3438-3.5234 7.8711-7.8711 7.8711z"/><path d="m337.02 596.8h-15.742c-4.3477.0-7.8711-3.5234-7.8711-7.8711.0-4.3477 3.5234-7.8711 7.8711-7.8711h15.742c4.3477.0 7.8711 3.5234 7.8711 7.8711.0 4.3438-3.5234 7.8711-7.8711 7.8711z"/><path d="m384.25 596.8h-15.742c-4.3477.0-7.8711-3.5234-7.8711-7.8711.0-4.3477 3.5234-7.8711 7.8711-7.8711h15.742c4.3477.0 7.8711 3.5234 7.8711 7.8711.0 4.3438-3.5234 7.8711-7.8711 7.8711z"/><path d="m533.82 549.57h-55.105c-4.3477.0-7.8711-3.5234-7.8711-7.8711v-55.105c0-4.3477 3.5234-7.8711 7.8711-7.8711h55.105c4.3477.0 7.8711 3.5234 7.8711 7.8711v55.105c0 4.3477-3.5273 7.8711-7.8711 7.8711zm-47.234-15.742h39.359v-39.359h-39.359z"/><path d="m431.49 368.51H321.28c-4.3477.0-7.8711-3.5234-7.8711-7.8711v-110.21c0-4.3477 3.5234-7.8711 7.8711-7.8711h110.21c4.3477.0 7.8711 3.5234 7.8711 7.8711v110.21c.003906 4.3477-3.5234 7.875-7.8672 7.875zm-102.34-15.746h94.465v-94.465H329.15z"/><path d="m344.89 250.43c-4.3477.0-7.8711-3.5234-7.8711-7.8711v-15.742c0-4.3477 3.5234-7.8711 7.8711-7.8711 4.3477.0 7.8711 3.5234 7.8711 7.8711v15.742c0 4.3477-3.5234 7.8711-7.8711 7.8711z"/><path d="m376.38 250.43c-4.3477.0-7.8711-3.5234-7.8711-7.8711v-15.742c0-4.3477 3.5234-7.8711 7.8711-7.8711 4.3477.0 7.8711 3.5234 7.8711 7.8711v15.742c0 4.3477-3.5234 7.8711-7.8711 7.8711z"/><path d="m407.87 250.43c-4.3477.0-7.8711-3.5234-7.8711-7.8711v-15.742c0-4.3477 3.5234-7.8711 7.8711-7.8711s7.8711 3.5234 7.8711 7.8711v15.742c0 4.3477-3.5234 7.8711-7.8711 7.8711z"/><path d="m344.89 392.12c-4.3477.0-7.8711-3.5234-7.8711-7.8711v-15.742c0-4.3477 3.5234-7.8711 7.8711-7.8711 4.3477.0 7.8711 3.5234 7.8711 7.8711v15.742c0 4.3477-3.5234 7.8711-7.8711 7.8711z"/><path d="m376.38 392.12c-4.3477.0-7.8711-3.5234-7.8711-7.8711v-15.742c0-4.3477 3.5234-7.8711 7.8711-7.8711 4.3477.0 7.8711 3.5234 7.8711 7.8711v15.742c0 4.3477-3.5234 7.8711-7.8711 7.8711z"/><path d="m407.87 392.12c-4.3477.0-7.8711-3.5234-7.8711-7.8711v-15.742c0-4.3477 3.5234-7.8711 7.8711-7.8711s7.8711 3.5234 7.8711 7.8711v15.742c0 4.3477-3.5234 7.8711-7.8711 7.8711z"/><path d="m313.41 344.89h-15.742c-4.3477.0-7.8711-3.5234-7.8711-7.8711.0-4.3477 3.5234-7.8711 7.8711-7.8711h15.742c4.3477.0 7.8711 3.5234 7.8711 7.8711.0 4.3477-3.5234 7.8711-7.8711 7.8711z"/><path d="m313.41 313.41h-15.742c-4.3477.0-7.8711-3.5234-7.8711-7.8711s3.5234-7.8711 7.8711-7.8711h15.742c4.3477.0 7.8711 3.5234 7.8711 7.8711s-3.5234 7.8711-7.8711 7.8711z"/><path d="m313.41 281.92h-15.742c-4.3477.0-7.8711-3.5234-7.8711-7.8711s3.5234-7.8711 7.8711-7.8711h15.742c4.3477.0 7.8711 3.5234 7.8711 7.8711s-3.5234 7.8711-7.8711 7.8711z"/><path d="m455.1 344.89h-15.742c-4.3477.0-7.8711-3.5234-7.8711-7.8711.0-4.3477 3.5234-7.8711 7.8711-7.8711H455.1c4.3477.0 7.8711 3.5234 7.8711 7.8711.003906 4.3477-3.5234 7.8711-7.8711 7.8711z"/><path d="m455.1 313.41h-15.742c-4.3477.0-7.8711-3.5234-7.8711-7.8711s3.5234-7.8711 7.8711-7.8711H455.1c4.3477.0 7.8711 3.5234 7.8711 7.8711.003906 4.3477-3.5234 7.8711-7.8711 7.8711z"/><path d="m455.1 281.92h-15.742c-4.3477.0-7.8711-3.5234-7.8711-7.8711s3.5234-7.8711 7.8711-7.8711H455.1c4.3477.0 7.8711 3.5234 7.8711 7.8711.003906 4.3477-3.5234 7.8711-7.8711 7.8711z"/><path d="m549.57 407.87h-23.617c-4.3477.0-7.8711-3.5234-7.8711-7.8711v-78.723c0-4.3477 3.5234-7.8711 7.8711-7.8711h23.617c4.3477.0 7.8711 3.5234 7.8711 7.8711v78.719c0 4.3477-3.5234 7.875-7.8711 7.875zm-15.742-15.746h7.8711v-62.977h-7.8711z"/><path d="m281.92 407.87h-55.105c-4.3477.0-7.8711-3.5234-7.8711-7.8711v-31.488c0-4.3477 3.5234-7.8711 7.8711-7.8711h55.105c4.3477.0 7.8711 3.5234 7.8711 7.8711v31.488c0 4.3438-3.5234 7.8711-7.8711 7.8711zm-47.23-15.746h39.359v-15.742H234.69z"/><path d="m281.92 462.98h-55.105c-4.3477.0-7.8711-3.5234-7.8711-7.8711v-31.488c0-4.3477 3.5234-7.8711 7.8711-7.8711h55.105c4.3477.0 7.8711 3.5234 7.8711 7.8711v31.488c0 4.3438-3.5234 7.8711-7.8711 7.8711zm-47.23-15.746h39.359v-15.742H234.69z"/><path d="m494.46 494.46c-4.3477.0-7.8711-3.5234-7.8711-7.8711v-15.742c0-4.3477 3.5234-7.8711 7.8711-7.8711 4.3477.0 7.8711 3.5234 7.8711 7.8711v15.742c.003907 4.3477-3.5234 7.8711-7.8711 7.8711z"/><path d="m518.08 494.46c-4.3477.0-7.8711-3.5234-7.8711-7.8711v-15.742c0-4.3477 3.5234-7.8711 7.8711-7.8711s7.8711 3.5234 7.8711 7.8711v15.742c0 4.3477-3.5234 7.8711-7.8711 7.8711z"/><path d="m494.46 565.31c-4.3477.0-7.8711-3.5234-7.8711-7.8711v-15.742c0-4.3477 3.5234-7.8711 7.8711-7.8711 4.3477.0 7.8711 3.5234 7.8711 7.8711v15.742c.003907 4.3438-3.5234 7.8711-7.8711 7.8711z"/><path d="m518.08 565.31c-4.3477.0-7.8711-3.5234-7.8711-7.8711v-15.742c0-4.3477 3.5234-7.8711 7.8711-7.8711s7.8711 3.5234 7.8711 7.8711v15.742c0 4.3438-3.5234 7.8711-7.8711 7.8711z"/></g></svg>