<?xml version="1.0" encoding="UTF-8"?>
<svg version="1.1" xmlns="http://www.w3.org/2000/svg" width="512" height="512">
<path d="M0 0 C1.65239918 -0.00373894 3.3047966 -0.00834143 4.95719123 -0.01373065 C9.48800053 -0.02594592 14.01873592 -0.02570191 18.54955792 -0.02334189 C23.43995628 -0.02293336 28.33033105 -0.0339764 33.22071838 -0.04345703 C42.79823902 -0.06005986 52.37573503 -0.06556625 61.95326886 -0.06668179 C69.73949715 -0.06763259 77.52571733 -0.07174449 85.31194305 -0.07808304 C107.39424292 -0.09569339 129.47652335 -0.10492222 151.55883029 -0.10342209 C153.34399427 -0.10330222 153.34399427 -0.10330222 155.16522217 -0.10317993 C156.35678695 -0.10309817 157.54835174 -0.10301641 158.77602455 -0.10293217 C178.08619048 -0.1021193 197.3962784 -0.12125778 216.70642176 -0.14945666 C236.54071619 -0.1781921 256.37497259 -0.1919966 276.20928836 -0.19026911 C287.34202542 -0.18960545 298.47468069 -0.19508756 309.60739899 -0.21662521 C319.08609495 -0.23484564 328.56467206 -0.23917721 338.04337797 -0.22560637 C342.87728947 -0.21908115 347.710973 -0.21894347 352.54486275 -0.23631287 C356.9752233 -0.25206823 361.40517557 -0.24915486 365.83552632 -0.2317446 C367.43306935 -0.22868013 369.03064304 -0.23228614 370.6281499 -0.24346475 C386.70714884 -0.34847224 399.59538589 3.66346308 411.89520264 14.26742554 C419.80720358 23.3782145 426.00089291 34.54911135 426.02942371 46.86001587 C426.03388156 47.75718669 426.0383394 48.65435751 426.04293233 49.57871532 C426.04265579 51.04352825 426.04265579 51.04352825 426.04237366 52.53793335 C426.04605035 53.58250607 426.04972703 54.6270788 426.05351514 55.70330524 C426.064542 59.20905865 426.06839416 62.7147824 426.07220459 66.22055054 C426.07847005 68.73218378 426.08511692 71.24381609 426.09211731 73.75544739 C426.11133591 81.29668612 426.12194478 88.83791965 426.1308451 96.37917662 C426.13523319 99.9349142 426.14059869 103.4906503 426.14583397 107.04638672 C426.16284423 118.87440176 426.17733653 130.70241589 426.18458271 142.53044128 C426.18649245 145.59788006 426.1884128 148.66531882 426.19036865 151.73275757 C426.19085239 152.49510802 426.19133613 153.25745847 426.19183453 154.04291046 C426.20012791 166.38168902 426.22545399 178.72037042 426.25794933 191.05910659 C426.29107589 203.74145876 426.30903656 216.42376166 426.31222695 229.1061573 C426.314387 236.22096917 426.32306116 243.33563938 426.34868813 250.45040894 C426.37275786 257.1481293 426.37618582 263.84555155 426.36592674 270.54332161 C426.36543223 272.99541127 426.37172753 275.44751361 426.38548279 277.89956474 C426.48860315 297.37929171 424.9155611 313.38953764 410.89520264 328.26742554 C395.78555364 340.80133571 380.9089275 342.49288473 361.89520264 342.26742554 C361.86942139 342.89906616 361.84364014 343.53070679 361.81707764 344.18148804 C360.51731738 364.68225216 351.5492696 382.1892826 336.89520264 396.26742554 C336.1436792 397.01508179 335.39215576 397.76273804 334.61785889 398.53305054 C316.48849751 415.71168591 294.12291945 418.98853551 270.25848389 418.57211304 C249.07114753 417.92627157 228.5820013 408.10870565 213.93035889 392.70492554 C203.69269458 380.4433084 196.81296539 367.12384552 194.23504639 351.29086304 C194.0377594 350.12623535 194.0377594 350.12623535 193.83648682 348.93807983 C193.5172403 347.0487804 193.20543101 345.1582267 192.89520264 343.26742554 C191.35932731 343.26246032 191.35932731 343.26246032 189.7924242 343.25739479 C164.84400885 343.17629351 139.89565429 343.08394542 114.9473238 342.97989845 C102.88235547 342.92984017 90.8173937 342.88339657 78.75238037 342.84555054 C68.23287612 342.81254325 57.71342384 342.77266405 47.19397706 342.72463548 C41.6273451 342.6994572 36.06074723 342.67765055 30.49407387 342.66408157 C25.24675262 342.65118223 19.99954881 342.62904406 14.75229263 342.60004234 C12.83398527 342.59102778 10.91565903 342.58529078 8.99733162 342.5832119 C-10.53375695 342.55827168 -28.2572269 341.51408252 -43.10479736 327.26742554 C-50.97582897 319.06439962 -57.21247587 308.37961488 -57.23901844 296.73262024 C-57.24347628 295.82289019 -57.24793413 294.91316013 -57.25252706 293.9758625 C-57.2523427 292.9801618 -57.25215833 291.9844611 -57.25196838 290.95858765 C-57.25564507 289.89782957 -57.25932176 288.8370715 -57.26310986 287.74416924 C-57.27415255 284.17769772 -57.27799158 280.61125534 -57.28179932 277.04476929 C-57.2880636 274.49225268 -57.29471037 271.93973698 -57.30171204 269.38722229 C-57.3209438 261.71802091 -57.33154176 254.04882464 -57.34043983 246.37960529 C-57.34482589 242.76496101 -57.35019195 239.15031818 -57.3554287 235.53567505 C-57.37244109 223.51382756 -57.38693351 211.49198097 -57.39417744 199.47012329 C-57.39608723 196.35128783 -57.39800758 193.23245238 -57.39996338 190.11361694 C-57.40044712 189.33847622 -57.40093086 188.56333549 -57.40142926 187.76470566 C-57.40972302 175.21825988 -57.43504879 162.67190965 -57.46754406 150.12550557 C-57.50065951 137.23413761 -57.51863033 124.34281813 -57.52182168 111.45140743 C-57.52398285 104.21756503 -57.53267347 96.98386188 -57.55828285 89.75006104 C-57.58233417 82.94074098 -57.58578741 76.13167475 -57.57552147 69.32232094 C-57.57502653 66.82788574 -57.5813344 64.33343814 -57.59507751 61.83904076 C-57.7208788 37.64512186 -57.7208788 37.64512186 -53.10479736 28.26742554 C-52.58659424 27.19105835 -52.06839111 26.11469116 -51.53448486 25.00570679 C-43.75205784 12.86277417 -32.98733621 4.12653068 -18.76442957 0.68852115 C-12.58044186 -0.29058043 -6.2476088 -0.01338462 0 0 Z M-30.10479736 32.26742554 C-33.87947524 37.84001732 -36.22296343 42.86958837 -36.23901844 49.65164375 C-36.24347628 50.52777325 -36.24793413 51.40390274 -36.25252706 52.30658162 C-36.2523427 53.26473708 -36.25215833 54.22289253 -36.25196838 55.21008301 C-36.25564507 56.23141669 -36.25932176 57.25275038 -36.26310986 58.30503356 C-36.27415014 61.73797787 -36.27799115 65.17089191 -36.28179932 68.60385132 C-36.28806371 71.06109208 -36.29471049 73.5183319 -36.30171204 75.97557068 C-36.32094059 83.35703284 -36.33154054 90.73848696 -36.34043983 98.1199668 C-36.34482579 101.59838978 -36.35019181 105.07681123 -36.3554287 108.555233 C-36.37243945 120.1224314 -36.38693272 131.68962886 -36.39417744 143.25683784 C-36.39608725 146.2574374 -36.39800759 149.25803695 -36.39996338 152.25863647 C-36.40044712 153.00439567 -36.40093086 153.75015487 -36.40142926 154.51851283 C-36.40972625 166.59425504 -36.43505822 178.66989809 -36.46754406 190.74559702 C-36.50064416 203.15105006 -36.51862887 215.55645276 -36.52182168 227.96195018 C-36.52398408 234.92409915 -36.53269307 241.88610353 -36.55828285 248.84820938 C-36.58230845 255.39978014 -36.58579702 261.95113788 -36.57552147 268.50275993 C-36.57502597 270.90450721 -36.58135034 273.30626729 -36.59507751 275.70797539 C-36.61280083 278.99324945 -36.60568722 282.27759096 -36.59254456 285.56286621 C-36.6035138 286.50763734 -36.61448305 287.45240847 -36.6257847 288.42580903 C-36.53528169 297.83140482 -33.57608884 305.61991909 -27.10479736 312.50961304 C-19.96584754 318.78408066 -13.1149137 320.42204791 -3.84118652 320.38768005 C-3.00064059 320.38853448 -2.16009466 320.3893889 -1.29407763 320.39026922 C1.52652435 320.39191824 4.34706705 320.38641206 7.16766357 320.38095093 C9.18793232 320.38066891 11.20820116 320.38082708 13.22846985 320.38139343 C18.71773629 320.38168082 24.20698096 320.37579352 29.69624233 320.36881948 C35.43112007 320.36257622 41.16599829 320.36198137 46.90087891 320.36079407 C57.76282769 320.35768363 68.62476643 320.34947409 79.48671079 320.33944458 C91.85174228 320.32827455 104.21677424 320.32277074 116.58180952 320.31774914 C142.0196128 320.30729125 167.45740715 320.28969734 192.89520264 320.26742554 C192.90106888 319.32354477 192.90693512 318.379664 192.91297913 317.40718079 C192.97054875 308.44956103 193.04348406 299.49217611 193.13091755 290.53479671 C193.17537359 285.93128699 193.21468197 281.32786074 193.24163818 276.72421265 C193.2679212 272.26955872 193.30849348 267.81523047 193.3583889 263.36078072 C193.37489061 261.67344827 193.38650755 259.98605972 193.39281654 258.29865837 C193.4961558 233.16682294 199.64663053 210.54697994 217.89520264 192.26742554 C218.58227295 191.56875366 219.26934326 190.87008179 219.97723389 190.15023804 C236.50111378 174.39277187 258.79527862 168.70935226 281.16864014 169.07992554 C304.19585839 170.23852771 324.34238239 178.41118394 340.51239014 194.94320679 C353.33028819 209.33899198 360.94948556 228.0736858 361.1005249 247.38412476 C361.1104245 248.17504013 361.1203241 248.96595551 361.13052368 249.78083801 C361.16194452 252.37789993 361.18681878 254.97498009 361.21160889 257.57211304 C361.23219521 259.37958229 361.25319211 261.18704691 361.27458191 262.99450684 C361.32962929 267.73894485 361.37911463 272.48342507 361.4274292 277.22793579 C361.47777121 282.07447032 361.53339082 286.920944 361.58856201 291.76742554 C361.6959314 301.26737348 361.79742303 310.76737439 361.89520264 320.26742554 C364.9422368 320.31144912 367.98862822 320.34360865 371.03582764 320.36898804 C372.32287598 320.38941162 372.32287598 320.38941162 373.63592529 320.4102478 C382.67442884 320.46668418 389.66609554 318.28859631 396.36395264 312.03305054 C403.51764796 303.78440185 405.19861353 294.67040707 405.15589905 284.11585999 C405.15972459 283.10829724 405.16355014 282.10073449 405.16749161 281.06263953 C405.1777913 277.69424329 405.17383516 274.32601847 405.16986084 270.95761108 C405.17420901 268.53933556 405.17939252 266.12106141 405.18534851 263.70278931 C405.19734885 257.82020573 405.19989113 251.93766451 405.19754825 246.05507334 C405.19576294 241.27128186 405.1975193 236.4875042 405.20177269 231.70371437 C405.20266547 230.68119652 405.20266547 230.68119652 405.20357629 229.63802174 C405.20478809 228.25303079 405.20600222 226.86803984 405.20721867 225.48304889 C405.2180884 212.5021561 405.21593457 199.52128931 405.20983382 186.54039506 C405.2046668 174.67825362 405.21591543 162.81619435 405.23493204 150.95406916 C405.2543287 138.76095769 405.26256314 126.56788506 405.25880879 114.37475806 C405.25689931 107.53453194 405.25935946 100.69437572 405.27352333 93.85416222 C405.28671212 87.41993592 405.28415226 80.98583275 405.27111244 74.55160522 C405.26874821 72.19340268 405.27147583 69.83518855 405.27973557 67.47699928 C405.29021751 64.2511238 405.28209024 61.02579807 405.26942444 57.79994202 C405.27679872 56.87278104 405.28417301 55.94562006 405.29177076 54.9903633 C405.20464033 44.39921255 402.41769661 35.8649943 394.89520264 28.26742554 C388.34156742 22.98846593 381.36294596 21.02019868 372.95820236 21.01015663 C371.96079917 21.00489752 371.96079917 21.00489752 370.94324642 20.99953216 C368.72326945 20.99025533 366.50355696 20.99513175 364.28356934 21 C362.67256846 20.99626186 361.0615694 20.99165969 359.45057321 20.98626935 C355.02958919 20.97404415 350.60868088 20.97429926 346.18768382 20.97665811 C341.41726056 20.97706639 336.64686154 20.96602597 331.87644958 20.95654297 C322.53240931 20.93993456 313.18839427 20.93443349 303.84434047 20.93331821 C296.248297 20.93236765 288.65226185 20.92825696 281.05622101 20.92191696 C259.51632251 20.9043049 237.97644394 20.89507802 216.43653819 20.89657791 C215.2754707 20.89665782 214.11440321 20.89673773 212.91815186 20.89682007 C211.75566541 20.89690183 210.59317895 20.89698359 209.39546564 20.89706783 C190.55661617 20.8978807 171.71784665 20.87874279 152.8790203 20.85054334 C133.53179756 20.82181158 114.18461382 20.80800321 94.8373692 20.80973089 C83.97683921 20.81039469 73.11639304 20.80490652 62.25588226 20.78337479 C53.00879664 20.76515917 43.76183284 20.76081881 34.51473704 20.77439363 C29.79841977 20.78092136 25.08233619 20.7810475 20.36604118 20.76368713 C16.04424762 20.74794278 11.72287278 20.7508339 7.40108934 20.7682554 C5.84189192 20.77132229 4.28266315 20.76770462 2.72350273 20.75653525 C-10.02415941 20.67129988 -21.36401383 22.11939567 -30.10479736 32.26742554 Z M227.70770264 211.95492554 C218.79962176 223.66674502 214.41178358 236.41911894 214.50701904 251.07211304 C214.50176208 252.08992859 214.49650513 253.10774414 214.49108887 254.15640259 C214.47800002 257.48523798 214.48658751 260.81358618 214.49676514 264.14242554 C214.49474121 266.47689912 214.49182713 268.81137208 214.48806763 271.14584351 C214.48365931 276.02432307 214.49002727 280.90263717 214.50408936 285.78109741 C214.5211801 292.01148654 214.51133092 298.24148786 214.49337196 304.47186279 C214.48249383 309.28820682 214.48599895 314.10446001 214.49375534 318.92080688 C214.49574621 321.21715339 214.49333753 323.51350834 214.48631668 325.80984497 C214.47863573 329.02769595 214.49039926 332.24493242 214.50701904 335.46273804 C214.50094635 336.39708679 214.49487366 337.33143555 214.48861694 338.2940979 C214.64312944 354.57051783 221.69691189 369.26251456 233.07489014 380.64242554 C247.12371031 393.71833573 263.23447406 398.01925027 281.99676514 397.57992554 C298.00768522 396.82499021 312.31720054 390.35832722 323.89520264 379.26742554 C339.73757284 361.6306121 341.21319923 342.95255148 341.19598389 320.46664429 C341.19987836 318.34113991 341.20421456 316.2156363 341.20896912 314.09013367 C341.21640305 309.64798453 341.21616081 305.2059149 341.21087646 300.76376343 C341.20508852 295.10538808 341.22201059 289.44734077 341.24522114 283.78901958 C341.26004048 279.40234004 341.26081902 275.015738 341.25771141 270.62903786 C341.2582206 268.54449629 341.26338168 266.45994992 341.27352333 264.37543297 C341.33442914 250.10689064 341.19881293 236.10434087 334.39520264 223.14242554 C334.05190918 222.47920288 333.70861572 221.81598022 333.35491943 221.13265991 C325.33568815 206.39557161 312.58106977 196.86900297 296.55145264 191.95883179 C290.20742249 190.30751806 284.30286662 190.05092638 277.77020264 190.01742554 C276.78793701 189.99680054 275.80567139 189.97617554 274.79364014 189.95492554 C256.83143191 189.8603876 239.31353194 198.27272376 227.70770264 211.95492554 Z " fill="#000000" transform="translate(70.10479736328125,46.732574462890625)"/>
<path d="M0 0 C2.8100346 1.79363911 4.50940468 3.01880935 6 6 C6.69432471 9.80300579 6.8997275 13.39746649 4.96484375 16.84375 C3.08896184 19.03147929 1.07370182 20.99648501 -1 23 C-2.22422546 24.25240808 -3.44529674 25.50790326 -4.6640625 26.765625 C-6.00388034 28.13671563 -7.34504308 29.50649323 -8.6875 30.875 C-9.34113525 31.54225098 -9.99477051 32.20950195 -10.66821289 32.89697266 C-11.61168579 33.8412915 -11.61168579 33.8412915 -12.57421875 34.8046875 C-13.13713623 35.37171387 -13.70005371 35.93874023 -14.2800293 36.52294922 C-17.60459147 39.37796713 -19.48578538 40.00816214 -23.9375 39.9375 C-28.26930203 39.24247206 -30.37531261 37.57911917 -33 34 C-34.44794453 29.83715947 -34.05162707 27.05927636 -32.25732422 23.06445312 C-29.46759889 18.48388664 -25.38471496 14.90124284 -21.5625 11.1875 C-20.70333984 10.32962891 -19.84417969 9.47175781 -18.95898438 8.58789062 C-8.76752314 -1.46125386 -8.76752314 -1.46125386 0 0 Z " fill="#000000" transform="translate(135,102)"/>
<path d="M0 0 C2.87029869 1.79393668 4.49131638 2.98263276 6 6 C6.13536102 8.6401934 6.21265301 11.25276064 6.23828125 13.89453125 C6.246353 14.6789006 6.25442474 15.46326996 6.26274109 16.27140808 C6.27658062 17.93327627 6.28730337 19.59517287 6.29516602 21.25708008 C6.31236353 23.79238135 6.35624655 26.32637314 6.40039062 28.86132812 C6.41051915 30.47655292 6.41903476 32.09178879 6.42578125 33.70703125 C6.44328934 34.46240677 6.46079742 35.21778229 6.47883606 35.99604797 C6.46359334 39.71566541 6.13058024 41.79702979 4.09838867 44.95581055 C0.6110365 48.35308801 -2.03999745 48.33445655 -6.73828125 48.2890625 C-10.08634301 47.86115823 -11.76066981 46.44926739 -14 44 C-15.20915439 40.37253682 -15.20026375 37.00628422 -15.23828125 33.2265625 C-15.246353 32.46580414 -15.25442474 31.70504578 -15.26274109 30.92123413 C-15.27656024 29.31242132 -15.28729209 27.70357946 -15.29516602 26.09472656 C-15.31238974 23.64070919 -15.35629371 21.18803596 -15.40039062 18.734375 C-15.41051741 17.16928071 -15.41903356 15.604175 -15.42578125 14.0390625 C-15.44328934 13.30869781 -15.46079742 12.57833313 -15.47883606 11.82583618 C-15.46332153 8.16317826 -15.10705368 6.16550782 -13.09838867 3.06005859 C-9.21590341 -0.75150751 -5.22863769 -0.67728468 0 0 Z " fill="#000000" transform="translate(352,279)"/>
<path d="M0 0 C2.97239241 1.78476241 5.42604027 3.85208055 7 7 C7.38883854 12.15211063 6.899491 14.774889 4 19 C2.61049546 20.56740945 1.17032519 22.09087994 -0.30859375 23.57421875 C-1.13810547 24.40630859 -1.96761719 25.23839844 -2.82226562 26.09570312 C-3.68529297 26.95099609 -4.54832031 27.80628906 -5.4375 28.6875 C-6.29666016 29.55439453 -7.15582031 30.42128906 -8.04101562 31.31445312 C-8.87181641 32.14267578 -9.70261719 32.97089844 -10.55859375 33.82421875 C-11.69252563 34.95476685 -11.69252563 34.95476685 -12.84936523 36.1081543 C-16.39479139 39.22695408 -18.14835662 40.01351815 -22.9375 39.9375 C-26.11450379 39.42182961 -27.20117299 38.8544706 -29.9375 36.875 C-32.44741437 33.37633149 -33 31.29748201 -33 27 C-31.18046742 22.66719519 -29.00714169 19.63076596 -25.69140625 16.328125 C-24.86189453 15.49925781 -24.03238281 14.67039062 -23.17773438 13.81640625 C-22.31470703 12.96949219 -21.45167969 12.12257813 -20.5625 11.25 C-19.70333984 10.38761719 -18.84417969 9.52523437 -17.95898438 8.63671875 C-8.24435507 -0.99500837 -8.24435507 -0.99500837 0 0 Z " fill="#000000" transform="translate(93,102)"/>
</svg>
