<svg fill="#000" width="800" height="800" viewBox="144 144 512 512" xmlns="http://www.w3.org/2000/svg"><g><path d="m384.25 510.21h-196.8c-4.3477.0-7.8711-3.5234-7.8711-7.8711v-39.359c0-4.3477 3.5234-7.8711 7.8711-7.8711h196.8c4.3477.0 7.8711 3.5234 7.8711 7.8711v39.359c0 4.3477-3.5234 7.8711-7.8711 7.8711zm-188.93-15.746h181.05v-23.617l-181.05.003906z"/><path d="m612.54 510.21h-196.8c-4.3477.0-7.8711-3.5234-7.8711-7.8711v-39.359c0-4.3477 3.5234-7.8711 7.8711-7.8711h196.8c4.3477.0 7.8711 3.5234 7.8711 7.8711v39.359c0 4.3477-3.5234 7.8711-7.8711 7.8711zm-188.93-15.746h181.05v-23.617l-181.05.003906z"/><path d="m620.41 470.85H179.58c-4.3477.0-7.8711-3.5234-7.8711-7.8711v-23.613c0-4.3477 3.5195-7.8672 7.8672-7.8711 4.3438.0 7.875-3.5312 7.875-7.8711s-3.5312-7.8711-7.875-7.8711c-4.3477-.007812-7.8672-3.5273-7.8672-7.875v-55.105c0-4.3477 3.5195-7.8672 7.8672-7.8711 4.3438.0 7.875-3.5312 7.875-7.8711s-3.5312-7.8711-7.875-7.8711c-4.3477-.007812-7.8672-3.5273-7.8672-7.875v-23.617c0-4.3477 3.5234-7.8711 7.8711-7.8711h440.83c4.3477.0 7.8711 3.5234 7.8711 7.8711v23.621c0 4.3477-3.5234 7.8711-7.8711 7.8711-4.3398.0-7.8711 3.5312-7.8711 7.8711s3.5312 7.8711 7.8711 7.8711c4.3477.0 7.8711 3.5234 7.8711 7.8711v55.105c0 4.3477-3.5234 7.8711-7.8711 7.8711-4.3398.0-7.8711 3.5312-7.8711 7.8711.0 4.3398 3.5312 7.8711 7.8711 7.8711 4.3477.0 7.8711 3.5234 7.8711 7.8711l.003906 23.617c0 4.3438-3.5273 7.8711-7.875 7.8711zm-432.96-15.746h425.09v-9.2188c-9.1641-3.2461-15.742-12.004-15.742-22.266s6.582-19.02 15.742-22.266v-42.059c-9.1641-3.2461-15.742-12.004-15.742-22.266s6.582-19.02 15.742-22.266v-9.2266H187.45v9.2266c9.1641 3.25 15.742 12.008 15.742 22.266.0 10.258-6.582 19.016-15.742 22.266v42.059c9.1641 3.25 15.742 12.008 15.742 22.266.0 10.258-6.582 19.016-15.742 22.266z"/><path d="m234.69 510.21c-4.3477.0-7.8711-3.5234-7.8711-7.8711v-15.738c0-4.3477 3.5234-7.8711 7.8711-7.8711s7.8711 3.5234 7.8711 7.8711v15.738c0 4.3477-3.5273 7.8711-7.8711 7.8711z"/><path d="m289.79 510.21c-4.3477.0-7.8711-3.5234-7.8711-7.8711v-15.738c0-4.3477 3.5234-7.8711 7.8711-7.8711 4.3477.0 7.8711 3.5234 7.8711 7.8711l.003906 15.738c0 4.3477-3.5273 7.8711-7.875 7.8711z"/><path d="m344.89 510.21c-4.3477.0-7.8711-3.5234-7.8711-7.8711v-15.738c0-4.3477 3.5234-7.8711 7.8711-7.8711 4.3477.0 7.8711 3.5234 7.8711 7.8711v15.738c0 4.3477-3.5234 7.8711-7.8711 7.8711z"/><path d="m455.1 510.21c-4.3477.0-7.8711-3.5234-7.8711-7.8711v-15.738c0-4.3477 3.5234-7.8711 7.8711-7.8711 4.3477.0 7.8711 3.5234 7.8711 7.8711l.003906 15.738c0 4.3477-3.5273 7.8711-7.875 7.8711z"/><path d="m510.21 510.21c-4.3477.0-7.8711-3.5234-7.8711-7.8711v-15.738c0-4.3477 3.5234-7.8711 7.8711-7.8711 4.3477.0 7.8711 3.5234 7.8711 7.8711v15.738c0 4.3477-3.5234 7.8711-7.8711 7.8711z"/><path d="m565.31 510.21c-4.3477.0-7.8711-3.5234-7.8711-7.8711v-15.738c0-4.3477 3.5234-7.8711 7.8711-7.8711s7.8711 3.5234 7.8711 7.8711v15.738c0 4.3477-3.5273 7.8711-7.8711 7.8711z"/><path d="m281.92 439.36h-55.105c-4.3477.0-7.8711-3.5234-7.8711-7.8711v-102.34c0-4.3477 3.5234-7.8711 7.8711-7.8711h55.105c4.3477.0 7.8711 3.5234 7.8711 7.8711v102.34c0 4.3477-3.5234 7.875-7.8711 7.875zm-47.23-15.746h39.359v-86.59H234.69z"/><path d="m368.5 439.36h-55.105c-4.3477.0-7.8711-3.5234-7.8711-7.8711v-102.34c0-4.3477 3.5234-7.8711 7.8711-7.8711H368.5c4.3477.0 7.8711 3.5234 7.8711 7.8711v102.34c0 4.3477-3.5234 7.875-7.8711 7.875zm-47.234-15.746h39.359v-86.59h-39.359z"/><path d="m486.59 439.36h-55.105c-4.3477.0-7.8711-3.5234-7.8711-7.8711v-102.34c0-4.3477 3.5234-7.8711 7.8711-7.8711h55.105c4.3477.0 7.8711 3.5234 7.8711 7.8711v102.34c0 4.3477-3.5234 7.875-7.8711 7.875zm-47.23-15.746h39.359v-86.59H439.36z"/><path d="m573.18 439.36h-55.105c-4.3477.0-7.8711-3.5234-7.8711-7.8711v-102.34c0-4.3477 3.5234-7.8711 7.8711-7.8711h55.105c4.3477.0 7.8711 3.5234 7.8711 7.8711v102.34c0 4.3477-3.5234 7.875-7.8711 7.875zm-47.234-15.746h39.359l.003906-86.59h-39.359z"/></g></svg>