<svg fill="#000" width="800" height="800" viewBox="144 144 512 512" xmlns="http://www.w3.org/2000/svg"><g><path d="m233.53 518.52c-34.668.0-61.82-39.766-61.82-90.527.0-50.766 27.152-90.527 61.82-90.527 40.516.0 40.516 52.324 40.516 90.527.003906 38.203.003906 90.527-40.516 90.527zm0-165.31c-24.977.0-46.074 34.246-46.074 74.785.0 40.535 21.098 74.785 46.074 74.785 20.824.0 24.773-26.285 24.773-74.785s-3.9453-74.785-24.773-74.785z"/><path d="m566.47 518.52c-40.516.0-40.516-52.324-40.516-90.527s0-90.527 40.516-90.527c34.668.0 61.82 39.766 61.82 90.527.0 50.766-27.152 90.527-61.82 90.527zm0-165.31c-20.824.0-24.773 26.285-24.773 74.785s3.9492 74.785 24.773 74.785c24.977.0 46.074-34.246 46.074-74.785.0-40.535-21.098-74.785-46.074-74.785z"/><path d="m565.31 352.77c-4.3477.0-7.8711-3.5234-7.8711-7.8711.0-86.812-70.629-157.44-157.44-157.44s-157.44 70.629-157.44 157.44c0 4.3477-3.5234 7.8711-7.8711 7.8711s-7.8711-3.5234-7.8711-7.8711c0-95.496 77.691-173.18 173.18-173.18 95.496.0 173.18 77.691 173.18 173.18.0 4.3477-3.5234 7.8711-7.8711 7.8711z"/><path d="m423.61 620.41c-4.3477.0-7.8711-3.5234-7.8711-7.8711.0-4.3477 3.5234-7.8711 7.8711-7.8711 83.793.0 133.82-35.312 133.82-94.465.0-4.3477 3.5234-7.8711 7.8711-7.8711 4.3477.0 7.8711 3.5234 7.8711 7.8711.003907 67.98-57.309 110.21-149.56 110.21z"/><path d="m407.87 628.29h-15.742c-8.6836.0-15.742-7.0625-15.742-15.742.0-8.6836 7.0625-15.742 15.742-15.742h15.742c8.6836.0 15.742 7.0625 15.742 15.742s-7.0586 15.742-15.742 15.742zm.011718-15.746h-15.758z"/></g></svg>