<svg fill="#000" width="800" height="800" viewBox="144 144 512 512" xmlns="http://www.w3.org/2000/svg"><g><path d="m620.49 242.56c-.054688-.003906-.10156.0-.15234.0h-55.105c-4.3516.0-7.8711-3.5234-7.8711-7.8711v-55.105c0-4.3477 3.5195-7.8711 7.8711-7.8711 34.164.0 62.062 27.344 62.953 61.297.11328.54297.17578 1.1016.17578 1.6797.0 4.3438-3.5195 7.8711-7.8711 7.8711zm-47.387-15.746h38.699c-3.3203-19.75-18.949-35.379-38.699-38.703z"/><path d="m234.61 242.56h-55.105c-4.3516.0-7.8711-3.5234-7.8711-7.8711.0-34.723 28.25-62.977 62.977-62.977 4.3438.0 7.8711 3.5234 7.8711 7.8711v55.105c0 4.3438-3.5273 7.8711-7.8711 7.8711zm-46.578-15.746h38.707v-38.703c-19.75 3.3281-35.379 18.957-38.707 38.703z"/><path d="m565.23 628.29c-4.3516.0-7.8711-3.5234-7.8711-7.8711v-55.105c0-4.3477 3.5195-7.8711 7.8711-7.8711h55.105c4.3438.0 7.8711 3.5234 7.8711 7.8711.0 34.723-28.254 62.977-62.977 62.977zm7.8711-55.105v38.703c19.75-3.3242 35.379-18.953 38.699-38.703z"/><path d="m234.61 628.29c-34.723.0-62.977-28.25-62.977-62.977.0-4.3477 3.5195-7.8711 7.8711-7.8711h55.105c4.3438.0 7.8711 3.5234 7.8711 7.8711v55.105c0 4.3438-3.5273 7.8711-7.8711 7.8711zm-46.578-55.105c3.3281 19.75 18.957 35.379 38.707 38.703v-38.703z"/><path d="m374.26 359.12c-.94531.0-1.8906-.16797-2.7891-.51172-2.1133-.80078-3.7812-2.4727-4.582-4.5859-26.547-70.48 4.0039-114.78 34.316-139.53 1.4766-1.2031 3.3203-1.8711 5.2266-1.7734 32.816 1.0469 64.891 10.824 92.758 28.277 2.7812 1.7422 4.207 5.0312 3.5508 8.25-.65234 3.2148-3.2227 5.6914-6.457 6.2109-49.047 7.8477-78.281 38.398-86.906 90.801-.64453 3.9219-4.082 6.7383-8.0859 6.5859-.09375-.003906-.85938-.050781-.94531-.058593-7.8789.035156-15.566 1.8047-22.41 5.418-1.1484.60547-2.4102.91406-3.6758.91406zm34.633-130.54c-34.418 29.328-44.488 66.984-30.004 112.07 5.1953-1.8398 10.641-3 16.137-3.4375 11.516-57.18 45.547-82.102 78.25-92.473-20.152-9.5391-42.051-15.059-64.383-16.16z"/><path d="m579.36 414.09c-2.3203.0-4.5742-1.0273-6.0977-2.8945-31.004-38.16-72.703-48.477-122.09-29.875-3.668 1.3867-7.7656-.13672-9.6562-3.5391-.070313-.12109-.47656-.92188-.53906-1.0469-4.043-7.0547-9.3242-12.539-15.875-16.656-1.9141-1.2031-3.2227-3.168-3.582-5.3984s.24609-4.5078 1.6836-6.2539c26.531-32.359 57.773-48.77 92.859-48.77 14.668.0 29.844 2.9297 45.117 8.7148 1.7852.67187 3.25 1.9648 4.1523 3.6406 15.504 28.914 23.078 61.578 21.902 94.469-.11328 3.2773-2.2539 6.1562-5.3672 7.1992-.82031.27734-1.6719.41016-2.5117.41016zm-82.688-57.57c27.723.0 53.098 10.102 74.363 29.422-1.8281-22.328-7.9961-44.016-18.188-63.859-41.934-14.824-80.465-4.7227-112.05 30.051 4.1914 3.5781 7.9102 7.7031 11.031 12.25 15.535-5.2227 30.598-7.8633 44.84-7.8633z"/><path d="m484.25 566.4c-2.1133.0-4.1758-.84766-5.6797-2.4258-2.1055-2.1953-2.7617-5.4102-1.6758-8.2578 17.719-46.398 5.8867-86.996-35.172-120.66-2.9922-2.4609-3.7578-6.7344-1.7891-10.074l.68359-1.0781c4.0664-7 6.1719-14.316 6.4492-22.031.085938-2.2617 1.1367-4.3789 2.8828-5.8086 1.7539-1.4336 4.0586-2.0391 6.2656-1.6758 74.309 12.227 97.402 60.84 103.68 99.469.30859 1.875-.078126 3.7969-1.0742 5.4102-17.266 27.875-41.766 50.766-70.848 66.199-.39062.21094-.80859.38672-1.2227.52734-.82422.27344-1.668.40625-2.5.40625zm-27.527-139.25c43.773 38.562 48.332 80.504 40.957 114.02 18.359-12.699 34.078-28.906 46.172-47.68-8.1875-44.477-35.762-72.027-82.043-82.012-.99609 5.4102-2.7109 10.691-5.0859 15.672z"/><path d="m393.64 587.27c-.085937.0-.16797.0-.25391-.003906-32.766-1.0469-64.797-10.797-92.648-28.203-2.6055-1.5625-4.1211-4.5273-3.7734-7.6289.39062-3.5156 3.082-6.3438 6.5742-6.8984 49.047-7.8594 78.289-38.406 86.906-90.793.62891-3.8008 3.9141-6.5938 7.7734-6.5938.46875.0.92969.027344 1.3828.058594h.12891c7.918.0 15.461-1.8828 22.156-5.4219 2-1.0625 4.3594-1.207 6.4648-.40234 2.1133.80078 3.7812 2.4727 4.582 4.5859 26.551 70.469-4.0039 114.77-34.309 139.53-1.418 1.1484-3.168 1.7734-4.9844 1.7734zm-67.098-32.012c20.164 9.5312 42.059 15.051 64.383 16.156 34.418-29.336 44.488-66.984 30.004-112.07-5.1953 1.8438-10.633 3.0039-16.137 3.4375-11.504 57.172-45.539 82.094-78.25 92.473z"/><path d="m283.75 500.34c-14.668.0-29.844-2.9336-45.117-8.7148-1.7852-.67188-3.2617-1.9688-4.1523-3.6445-15.504-28.945-23.078-61.609-21.895-94.465.11328-3.2773 2.2539-6.1562 5.3672-7.1992 3.0898-1.0391 6.5352-.066406 8.6094 2.4883 30.996 38.164 72.695 48.484 122.07 29.871 3.5898-1.3867 7.6641.089843 9.5859 3.4258.22266.38672.42969.78125.62891 1.1797 4.0273 7.0312 9.3086 12.516 15.867 16.637 1.9141 1.2031 3.2227 3.1719 3.582 5.3984.35938 2.2305-.25391 4.5078-1.6836 6.2578-26.535 32.355-57.785 48.766-92.863 48.766zm-36.77-22.422c41.922 14.82 80.457 4.7188 112.05-30.051-4.1992-3.582-7.918-7.707-11.039-12.254-45.758 15.375-87 7.6953-119.2-21.551 1.832 22.316 7.9961 44 18.188 63.855z"/><path d="m344.87 405.71c-.42969.0-.85156-.035157-1.2852-.10547-74.285-12.227-97.387-60.844-103.68-99.477-.30859-1.875.078125-3.8008 1.082-5.4141 17.289-27.848 41.742-50.711 70.742-66.121 3.3438-1.8633 8.0781-.84766 10.324 2.4102 1.4688 2.1328 1.7891 4.8516.86719 7.2734-17.719 46.395-5.8867 86.984 35.172 120.64 2.9688 2.4336 3.75 6.6484 1.8516 9.9844-.23828.41016-.48437.80469-.73828 1.1914-4.0664 6.9805-6.1797 14.293-6.4727 22.043-.085937 2.2578-1.1367 4.3711-2.8906 5.7969-1.4141 1.1523-3.1719 1.7734-4.9727 1.7734zm-88.922-99.199c8.2109 44.469 35.785 72.023 82.043 82.016.99219-5.4375 2.6992-10.684 5.1055-15.691-43.766-38.555-48.332-80.488-40.969-114-18.328 12.688-34.055 28.891-46.18 47.672z"/><path d="m399.92 462.98c-34.73.0-62.984-28.25-62.984-62.977.0-34.723 28.25-62.977 62.984-62.977 34.723.0 62.977 28.25 62.977 62.977.0 34.723-28.254 62.977-62.977 62.977zm0-110.21c-26.047.0-47.238 21.188-47.238 47.23.0 26.047 21.195 47.23 47.238 47.23 26.047.0 47.23-21.188 47.23-47.23.0-26.043-21.188-47.23-47.23-47.23z"/><path d="m399.92 620.41c-121.54.0-220.42-98.875-220.42-220.42.0-121.54 98.875-220.42 220.42-220.42 121.54.0 220.42 98.875 220.42 220.42.0 121.54-98.879 220.42-220.42 220.42zm0-425.09c-112.86.0-204.67 91.816-204.67 204.67.0 112.86 91.812 204.67 204.67 204.67 112.85.0 204.67-91.816 204.67-204.67.0-112.86-91.82-204.67-204.67-204.67z"/></g></svg>