<svg fill="#000" width="800" height="800" viewBox="144 144 512 512" xmlns="http://www.w3.org/2000/svg"><g><path d="m557.44 628.29H242.56c-4.3477.0-7.8711-3.5234-7.8711-7.8711v-440.84c0-4.3477 3.5234-7.8711 7.8711-7.8711h314.88c4.3477.0 7.8711 3.5234 7.8711 7.8711v440.83c0 4.3477-3.5273 7.875-7.875 7.875zm-307.01-15.746h299.14v-425.09H250.43z"/><path d="m373.88 599.3c-29.395.0-57.055-11.473-77.887-32.309-20.832-20.832-32.309-48.5-32.309-77.902.0-2.0859.83203-4.0898 2.3047-5.5664 1.4766-1.4766 3.4805-2.3047 5.5664-2.3047l47.238.007812c4.3477.0 7.8711 3.5234 7.8711 7.8711.0 26.039 21.172 47.219 47.199 47.223 4.3477.0 7.8984 3.5234 7.8984 7.8711v47.23c.007813 4.3555-3.5352 7.8789-7.8828 7.8789zm-94.125-102.34c1.8281 22.234 11.387 42.91 27.371 58.898 15.988 15.984 36.656 25.547 58.887 27.371l.007813-31.656c-28.449-3.5625-51.043-26.168-54.605-54.605z"/><path d="m373.86 524.54c-19.535.0-35.426-15.891-35.426-35.426.0-18.684 14.543-34.035 32.902-35.336l87.156-60.25c3.125-2.1719 7.3477-1.7773 10.043.91016 2.6914 2.6875 3.0703 6.9141.91016 10.039l-60.254 87.156c-1.3281 18.398-16.664 32.906-35.332 32.906zm58.129-93.543-53.52 37.016c-1.3281.92578-2.9023 1.4258-4.5195 1.4258-10.938.0-19.766 8.8281-19.766 19.68.0 10.852 8.8281 19.68 19.68 19.68 10.852.0 19.68-8.8281 19.68-19.68.0-1.5977.48828-3.2383 1.3984-4.5586z"/><path d="m420.7 469.04c-2.6523.0-5.1641-1.3398-6.625-3.6211-1.7148-2.6758-1.6523-6.1172.14844-8.7266l17.762-25.703-51.996 35.945c-1.7852 1.2266-4.0078 1.6602-6.1094 1.2266-57.844-12.246-99.832-64.086-99.832-123.26.0-69.449 56.504-125.95 125.95-125.95s125.95 56.504 125.95 125.95c0 61.242-43.688 113.4-103.88 124.02-.45703.078125-.91406.11719-1.3711.11719zm-20.699-234.35c-60.77.0-110.21 49.438-110.21 110.21.0 50.66 35.172 95.18 84.094 107.12l84.613-58.492c3.125-2.1719 7.3477-1.7773 10.043.91016 2.6914 2.6875 3.0703 6.9141.91016 10.039l-29.988 43.391c41.988-15.977 70.742-56.477 70.742-102.96.0-60.77-49.438-110.21-110.21-110.21z"/><path d="m4e2 376.39c-17.363.0-31.488-14.125-31.488-31.488s14.125-31.488 31.488-31.488 31.488 14.125 31.488 31.488S417.359 376.39 4e2 376.39zm0-47.234c-8.6836.0-15.742 7.0625-15.742 15.742.0 8.6836 7.0625 15.742 15.742 15.742 8.6836.0 15.742-7.0625 15.742-15.742.0-8.6797-7.0625-15.742-15.742-15.742z"/></g></svg>