<svg fill="#000" width="800" height="800" viewBox="144 144 512 512" xmlns="http://www.w3.org/2000/svg"><g><path d="m510.21 518.08H289.79c-4.3477.0-7.8711-3.5234-7.8711-7.8711v-169.25c0-4.3477 3.5234-7.8711 7.8711-7.8711 4.3359.0 7.8633-3.5312 7.8633-7.8711.0-4.3359-3.5312-7.8672-7.8711-7.8711-4.3438-.003906-7.8633-3.5273-7.8633-7.8711v-19.684c0-4.3477 3.5234-7.8711 7.8711-7.8711h220.42c4.3477.0 7.8711 3.5234 7.8711 7.8711v19.68c0 4.3477-3.5234 7.8711-7.8711 7.8711-4.3438.0-7.8789 3.5312-7.8789 7.8711.0 4.3398 3.5312 7.8711 7.8711 7.8711 4.3477.0 7.8711 3.5234 7.8711 7.8711l.007813 169.25c0 2.0859-.83203 4.0898-2.3047 5.5664-1.4766 1.4766-3.4805 2.3047-5.5664 2.3047zm-212.54-15.742h204.67v-154.86c-9.168-3.2461-15.754-12.004-15.754-22.266s6.582-19.02 15.746-22.266l.003906-5.2852h-204.67v5.2891c9.1562 3.2539 15.734 12.008 15.734 22.262.0 10.262-6.5781 19.016-15.734 22.266z"/><path d="m455.11 462.98H344.9c-4.3477.0-7.8711-3.5234-7.8711-7.8711v-110.21c0-4.3477 3.5234-7.8711 7.8711-7.8711h110.21c4.3477.0 7.8711 3.5234 7.8711 7.8711v110.21c.003906 4.3477-3.5234 7.875-7.8711 7.875zm-102.34-15.746h94.465v-94.465H352.77z"/><path d="m344.9 266.18c-4.3477.0-7.8711-3.5234-7.8711-7.8711v-70.852c0-4.3477 3.5234-7.8711 7.8711-7.8711s7.8711 3.5234 7.8711 7.8711v70.848c0 4.3477-3.5234 7.875-7.8711 7.875z"/><path d="m360.64 187.45c0 8.6953-7.0469 15.746-15.742 15.746-8.6953.0-15.746-7.0508-15.746-15.746s7.0508-15.742 15.746-15.742c8.6953.0 15.742 7.0469 15.742 15.742"/><path d="m4e2 266.18c-4.3477.0-7.8711-3.5234-7.8711-7.8711l-.003906-70.852c0-4.3477 3.5234-7.8711 7.8711-7.8711s7.8711 3.5234 7.8711 7.8711v70.848c.003906 4.3477-3.5234 7.875-7.8672 7.875z"/><path d="m415.74 187.45c0 8.6953-7.0469 15.746-15.742 15.746s-15.746-7.0508-15.746-15.746 7.0508-15.742 15.746-15.742 15.742 7.0469 15.742 15.742"/><path d="m455.1 266.18c-4.3477.0-7.8711-3.5234-7.8711-7.8711v-70.852c0-4.3477 3.5234-7.8711 7.8711-7.8711 4.3477.0 7.8711 3.5234 7.8711 7.8711v70.848c.003906 4.3477-3.5234 7.875-7.8711 7.875z"/><path d="m470.85 187.45c0 8.6953-7.0508 15.746-15.746 15.746-8.6953.0-15.742-7.0508-15.742-15.746s7.0469-15.742 15.742-15.742c8.6953.0 15.746 7.0469 15.746 15.742"/><path d="m612.54 352.77h-70.848c-4.3477.0-7.8711-3.5234-7.8711-7.8711.0-4.3477 3.5234-7.8711 7.8711-7.8711h70.848c4.3477.0 7.8711 3.5234 7.8711 7.8711.0 4.3477-3.5234 7.8711-7.8711 7.8711z"/><path d="m628.29 344.89c0 8.6953-7.0508 15.742-15.746 15.742-8.6953.0-15.742-7.0469-15.742-15.742.0-8.6953 7.0469-15.746 15.742-15.746 8.6953.0 15.746 7.0508 15.746 15.746"/><path d="m612.54 407.87h-70.848c-4.3477.0-7.8711-3.5234-7.8711-7.8711s3.5234-7.8711 7.8711-7.8711h70.848c4.3477.0 7.8711 3.5234 7.8711 7.8711.0 4.3438-3.5234 7.8711-7.8711 7.8711z"/><path d="m628.29 4e2c0 8.6953-7.0508 15.742-15.746 15.742-8.6953.0-15.742-7.0469-15.742-15.742s7.0469-15.746 15.742-15.746c8.6953.0 15.746 7.0508 15.746 15.746"/><path d="m612.54 462.98h-70.848c-4.3477.0-7.8711-3.5234-7.8711-7.8711.0-4.3477 3.5234-7.8711 7.8711-7.8711h70.848c4.3477.0 7.8711 3.5234 7.8711 7.8711.0 4.3438-3.5234 7.8711-7.8711 7.8711z"/><path d="m628.29 455.1c0 8.6953-7.0508 15.746-15.746 15.746-8.6953.0-15.742-7.0508-15.742-15.746.0-8.6953 7.0469-15.742 15.742-15.742 8.6953.0 15.746 7.0469 15.746 15.742"/><path d="m258.3 462.98h-70.848c-4.3477.0-7.8711-3.5234-7.8711-7.8711.0-4.3477 3.5234-7.8711 7.8711-7.8711H258.3c4.3477.0 7.8711 3.5234 7.8711 7.8711.003906 4.3438-3.5234 7.8711-7.8711 7.8711z"/><path d="m203.2 455.1c0 8.6953-7.0508 15.746-15.746 15.746s-15.742-7.0508-15.742-15.746c0-8.6953 7.0469-15.742 15.742-15.742S203.2 446.4049 203.2 455.1"/><path d="m258.3 407.88h-70.848c-4.3477.0-7.8711-3.5234-7.8711-7.8711.0-4.3477 3.5234-7.8711 7.8711-7.8711H258.3c4.3477.0 7.8711 3.5234 7.8711 7.8711.003906 4.3438-3.5234 7.8711-7.8711 7.8711z"/><path d="m203.2 400.01c0 8.6953-7.0508 15.742-15.746 15.742s-15.742-7.0469-15.742-15.742c0-8.6953 7.0469-15.746 15.742-15.746s15.746 7.0508 15.746 15.746"/><path d="m258.3 352.77h-70.848c-4.3477.0-7.8711-3.5234-7.8711-7.8711s3.5234-7.8711 7.8711-7.8711H258.3c4.3477.0 7.8711 3.5234 7.8711 7.8711.003906 4.3477-3.5234 7.8711-7.8711 7.8711z"/><path d="m203.2 344.9c0 8.6953-7.0508 15.742-15.746 15.742s-15.742-7.0469-15.742-15.742c0-8.6953 7.0469-15.746 15.742-15.746S203.2 336.2048 203.2 344.9"/><path d="m344.89 620.41c-4.3477.0-7.8711-3.5234-7.8711-7.8711v-70.848c0-4.3477 3.5234-7.8711 7.8711-7.8711 4.3477.0 7.8711 3.5234 7.8711 7.8711v70.848c0 4.3477-3.5234 7.8711-7.8711 7.8711z"/><path d="m360.64 612.54c0 8.6953-7.0469 15.746-15.742 15.746-8.6953.0-15.746-7.0508-15.746-15.746.0-8.6953 7.0508-15.742 15.746-15.742 8.6953.0 15.742 7.0469 15.742 15.742"/><path d="m4e2 620.41c-4.3477.0-7.8711-3.5234-7.8711-7.8711v-70.848c0-4.3477 3.5234-7.8711 7.8711-7.8711s7.8711 3.5234 7.8711 7.8711v70.848c0 4.3477-3.5273 7.8711-7.8711 7.8711z"/><path d="m415.74 612.54c0 8.6953-7.0469 15.746-15.742 15.746s-15.746-7.0508-15.746-15.746c0-8.6953 7.0508-15.742 15.746-15.742s15.742 7.0469 15.742 15.742"/><path d="m455.1 620.41c-4.3477.0-7.8711-3.5234-7.8711-7.8711v-70.848c0-4.3477 3.5234-7.8711 7.8711-7.8711 4.3477.0 7.8711 3.5234 7.8711 7.8711v70.848c.003906 4.3477-3.5234 7.8711-7.8711 7.8711z"/><path d="m470.85 612.54c0 8.6953-7.0508 15.746-15.746 15.746-8.6953.0-15.742-7.0508-15.742-15.746.0-8.6953 7.0469-15.742 15.742-15.742 8.6953.0 15.746 7.0469 15.746 15.742"/></g></svg>