<svg fill="#000" width="800" height="800" viewBox="144 144 512 512" xmlns="http://www.w3.org/2000/svg"><g><path d="m620.41 478.72H179.58c-4.3477.0-7.8711-3.5234-7.8711-7.8711v-228.29c0-4.3477 3.5234-7.8711 7.8711-7.8711h440.83c4.3477.0 7.8711 3.5234 7.8711 7.8711v228.29c.003906 4.3477-3.5234 7.8711-7.8711 7.8711zm-432.96-15.742h425.09v-212.55H187.45z"/><path d="m596.8 455.1H203.2c-4.3477.0-7.8711-3.5234-7.8711-7.8711l-.003906-181.05c0-4.3477 3.5234-7.8711 7.8711-7.8711h393.6c4.3477.0 7.8711 3.5234 7.8711 7.8711v181.05c.003906 4.3477-3.5234 7.8711-7.8672 7.8711zm-385.73-15.742h377.86v-165.31H211.07z"/><path d="m510.36 565.31c-.054688-.007812-.10156-.003906-.15625.0h-220.42c-3.1836.0-6.0547-1.918-7.2734-4.8594-1.2188-2.9453-.54687-6.3281 1.707-8.5781l55.105-55.105c1.4766-1.4766 3.4805-2.3086 5.5664-2.3086h43.297c4.3477.0 7.8711 3.5234 7.8711 7.8711v15.742h7.8711V502.33c0-4.3477 3.5234-7.8711 7.8711-7.8711h43.297c2.0859.0 4.0898.83203 5.5664 2.3047l54.246 54.246c2.0117 1.4258 3.3203 3.7695 3.3203 6.4219.0 4.3516-3.5234 7.8789-7.8711 7.8789zm-201.57-15.746H491.2l-39.359-39.359h-32.164v15.742c0 4.3477-3.5234 7.8711-7.8711 7.8711h-23.617c-4.3477.0-7.8711-3.5234-7.8711-7.8711v-15.742h-32.164z"/><path d="m411.8 533.82h-23.617c-4.3477.0-7.8711-3.5234-7.8711-7.8711v-55.105c0-4.3477 3.5234-7.8711 7.8711-7.8711H411.8c4.3477.0 7.8711 3.5234 7.8711 7.8711v55.105c.003906 4.3438-3.5234 7.8711-7.8711 7.8711zm-15.742-15.746h7.8711v-39.359h-7.8711z"/></g></svg>