<svg fill="#000" width="800" height="800" viewBox="144 144 512 512" xmlns="http://www.w3.org/2000/svg"><g><path d="m470.85 218.94c4.3477.0 7.8711-3.5234 7.8711-7.8711s-3.5234-7.8711-7.8711-7.8711-7.8711 3.5234-7.8711 7.8711 3.5234 7.8711 7.8711 7.8711z"/><path d="m337.02 242.56v62.977c0 2.0859.82812 4.0898 2.3047 5.5664 1.4766 1.4766 3.4766 2.3047 5.5664 2.3047h110.21c2.0898.0 4.0898-.82812 5.5664-2.3047 1.4766-1.4766 2.3086-3.4805 2.3086-5.5664V242.56c0-2.0898-.83203-4.0898-2.3086-5.5664-1.4766-1.4766-3.4766-2.3047-5.5664-2.3047h-110.21c-4.3477.0-7.8711 3.5234-7.8711 7.8711zm15.742 7.8711h94.465v47.23l-94.465.003906z"/><path d="m455.1 344.89H344.89c-4.3477.0-7.8711 3.5234-7.8711 7.8711v62.977c0 2.0898.82812 4.0898 2.3047 5.5664 1.4766 1.4766 3.4766 2.3047 5.5664 2.3047H455.1c2.0898.0 4.0898-.82812 5.5664-2.3047 1.4766-1.4766 2.3086-3.4766 2.3086-5.5664v-62.977c0-2.0859-.83203-4.0898-2.3086-5.5664-1.4766-1.4766-3.4766-2.3047-5.5664-2.3047zm-7.8711 62.977h-94.465v-47.234h94.465z"/><path d="m392.12 455.1h-47.23c-4.3477.0-7.8711 3.5273-7.8711 7.875v62.977-.003906c0 2.0898.82812 4.0898 2.3047 5.5664s3.4766 2.3086 5.5664 2.3086h47.23c2.0898.0 4.0898-.83203 5.5664-2.3086 1.4766-1.4766 2.3086-3.4766 2.3086-5.5664v-62.973c0-2.0898-.83203-4.0938-2.3086-5.5664-1.4766-1.4766-3.4766-2.3086-5.5664-2.3086zm-7.8711 62.977h-31.488v-47.23h31.488z"/><path d="m455.1 486.59h-31.488c-4.3477.0-7.8711 3.5234-7.8711 7.8711v31.488c0 2.0898.82812 4.0898 2.3047 5.5664s3.4805 2.3086 5.5664 2.3086H455.1c2.0898.0 4.0898-.83203 5.5664-2.3086 1.4766-1.4766 2.3086-3.4766 2.3086-5.5664v-31.488c0-2.0859-.83203-4.0898-2.3086-5.5664-1.4766-1.4727-3.4766-2.3047-5.5664-2.3047zm-7.8711 31.488h-15.742v-15.742h15.742z"/><path d="m329.15 549.57c-3.1836.0-6.0508 1.918-7.2695 4.8594-1.2188 2.9414-.54688 6.3281 1.7031 8.5781 2.2539 2.2539 5.6406 2.9258 8.582 1.707s4.8594-4.0898 4.8594-7.2734c0-2.0859-.83203-4.0898-2.3086-5.5664-1.4727-1.4766-3.4766-2.3047-5.5664-2.3047z"/><path d="m494.46 179.58h-78.719c-4.3477.0-7.8711 3.5234-7.8711 7.8711s-3.5234 7.8711-7.8711 7.8711-7.875-3.5234-7.875-7.8711c0-2.0859-.82812-4.0898-2.3047-5.5664-1.4766-1.4766-3.4766-2.3047-5.5664-2.3047h-78.719c-4.3477.0-7.8711 3.5234-7.8711 7.8711v393.6c0 2.0898.82813 4.0898 2.3047 5.5664 1.4766 1.4766 3.4766 2.3047 5.5664 2.3047h7.8711v23.617c0 2.0898.82812 4.0898 2.3047 5.5664 1.4766 1.4766 3.4805 2.3047 5.5664 2.3047h31.488c2.0898.0 4.0898-.82812 5.5664-2.3047 1.4766-1.4766 2.3047-3.4766 2.3047-5.5664v-23.617h15.742v23.617h.003906c0 2.0898.82813 4.0898 2.3047 5.5664s3.4805 2.3047 5.5664 2.3047h94.465c2.0859.0 4.0898-.82812 5.5664-2.3047 1.4766-1.4766 2.3047-3.4766 2.3047-5.5664v-23.617h7.8711c2.0898.0 4.0938-.82812 5.5664-2.3047 1.4766-1.4766 2.3086-3.4766 2.3086-5.5664v-393.6c0-2.0859-.83203-4.0898-2.3086-5.5664-1.4727-1.4766-3.4766-2.3047-5.5664-2.3047zM344.89 604.67h-15.746v-15.746h15.742zm47.23-15.742h15.742v15.742H392.12zm31.488.0h15.742v15.742h-15.742zm47.23 15.742h-15.742v-15.746h15.742zm15.742-31.488H313.4v-377.86h64.312c2.1797 6.1914 6.832 11.195 12.848 13.816s12.848 2.6211 18.863.0c6.0156-2.6211 10.668-7.625 12.848-13.816h64.312z"/></g></svg>