<svg fill="#000" width="800" height="800" viewBox="144 144 512 512" xmlns="http://www.w3.org/2000/svg"><g><path d="m604.67 360.64H195.32c-4.3477.0-7.8711 3.5273-7.8711 7.875v220.41c0 2.0898.83203 4.0898 2.3047 5.5664 1.4766 1.4766 3.4805 2.3086 5.5664 2.3086h409.35c2.0859.0 4.0898-.83203 5.5664-2.3086 1.4766-1.4766 2.3047-3.4766 2.3047-5.5664v-220.41c0-2.0898-.82812-4.0898-2.3047-5.5664-1.4766-1.4766-3.4805-2.3086-5.5664-2.3086zm-7.8711 220.42h-393.6V376.39h393.6z"/><path d="m226.81 439.36h31.488c2.0898.0 4.0898-.83203 5.5664-2.3047 1.4766-1.4766 2.3086-3.4805 2.3086-5.5664v-31.488c0-2.0898-.83203-4.0898-2.3086-5.5664-1.4766-1.4766-3.4766-2.3086-5.5664-2.3086H226.81c-4.3477.0-7.8711 3.5273-7.8711 7.875v31.488c0 2.0859.82812 4.0898 2.3047 5.5664 1.4766 1.4727 3.4805 2.3047 5.5664 2.3047zm7.8711-31.488h15.742v15.742h-15.738z"/><path d="m289.79 439.36h31.488c2.0898.0 4.0898-.83203 5.5664-2.3047 1.4766-1.4766 2.3047-3.4805 2.3047-5.5664v-31.488c0-2.0898-.82813-4.0898-2.3047-5.5664-1.4766-1.4766-3.4766-2.3086-5.5664-2.3086H289.79c-4.3477.0-7.8711 3.5273-7.8711 7.875v31.488c0 2.0859.82812 4.0898 2.3047 5.5664 1.4766 1.4727 3.4805 2.3047 5.5664 2.3047zm7.8711-31.488h15.742v15.742h-15.738z"/><path d="m352.77 439.36h31.488c2.0898.0 4.0898-.83203 5.5664-2.3047 1.4766-1.4766 2.3047-3.4805 2.3047-5.5664v-31.488c0-2.0898-.82812-4.0898-2.3047-5.5664-1.4766-1.4766-3.4766-2.3086-5.5664-2.3086H352.77c-4.3477.0-7.8711 3.5273-7.8711 7.875v31.488c0 2.0859.82812 4.0898 2.3047 5.5664 1.4766 1.4727 3.4805 2.3047 5.5664 2.3047zm7.8711-31.488h15.742v15.742h-15.742z"/><path d="m415.74 439.36h31.488c2.0898.0 4.0898-.83203 5.5664-2.3047 1.4766-1.4766 2.3047-3.4805 2.3047-5.5664v-31.488c0-2.0898-.82812-4.0898-2.3047-5.5664-1.4766-1.4766-3.4766-2.3086-5.5664-2.3086H415.74c-4.3477.0-7.8711 3.5273-7.8711 7.875v31.488c0 2.0859.82812 4.0898 2.3047 5.5664 1.4766 1.4727 3.4805 2.3047 5.5664 2.3047zm7.8711-31.488h15.742v15.742h-15.742z"/><path d="m478.72 439.36h31.488c2.0859.0 4.0898-.83203 5.5664-2.3047 1.4766-1.4766 2.3047-3.4805 2.3047-5.5664v-31.488c0-2.0898-.82812-4.0898-2.3047-5.5664-1.4766-1.4766-3.4805-2.3086-5.5664-2.3086H478.72c-4.3477.0-7.8711 3.5273-7.8711 7.875v31.488c0 2.0859.82812 4.0898 2.3047 5.5664 1.4766 1.4727 3.4805 2.3047 5.5664 2.3047zm7.8711-31.488h15.742v15.742h-15.742z"/><path d="m541.7 439.36h31.488c2.0859.0 4.0898-.83203 5.5664-2.3047 1.4766-1.4766 2.3047-3.4805 2.3047-5.5664v-31.488c0-2.0898-.82813-4.0898-2.3047-5.5664-1.4766-1.4766-3.4805-2.3086-5.5664-2.3086H541.7c-4.3477.0-7.8711 3.5273-7.8711 7.875v31.488c0 2.0859.82812 4.0898 2.3047 5.5664 1.4766 1.4727 3.4766 2.3047 5.5664 2.3047zm7.8711-31.488h15.742v15.742h-15.742z"/><path d="m226.81 502.34h31.488c2.0898.0 4.0898-.83203 5.5664-2.3086 1.4766-1.4727 2.3086-3.4766 2.3086-5.5664v-31.484c0-2.0898-.83203-4.0938-2.3086-5.5664-1.4766-1.4766-3.4766-2.3086-5.5664-2.3086H226.81c-4.3477.0-7.8711 3.5273-7.8711 7.875v31.488-.003906c0 2.0898.82812 4.0938 2.3047 5.5664 1.4766 1.4766 3.4805 2.3086 5.5664 2.3086zm7.8711-31.488h15.742v15.742h-15.738z"/><path d="m289.79 502.34h31.488c2.0898.0 4.0898-.83203 5.5664-2.3086 1.4766-1.4727 2.3047-3.4766 2.3047-5.5664v-31.484c0-2.0898-.82813-4.0938-2.3047-5.5664-1.4766-1.4766-3.4766-2.3086-5.5664-2.3086H289.79c-4.3477.0-7.8711 3.5273-7.8711 7.875v31.488-.003906c0 2.0898.82812 4.0938 2.3047 5.5664 1.4766 1.4766 3.4805 2.3086 5.5664 2.3086zm7.8711-31.488h15.742v15.742h-15.738z"/><path d="m352.77 502.34h31.488c2.0898.0 4.0898-.83203 5.5664-2.3086 1.4766-1.4727 2.3047-3.4766 2.3047-5.5664v-31.484c0-2.0898-.82812-4.0938-2.3047-5.5664-1.4766-1.4766-3.4766-2.3086-5.5664-2.3086H352.77c-4.3477.0-7.8711 3.5273-7.8711 7.875v31.488-.003906c0 2.0898.82812 4.0938 2.3047 5.5664 1.4766 1.4766 3.4805 2.3086 5.5664 2.3086zm7.8711-31.488h15.742v15.742h-15.742z"/><path d="m415.74 502.34h31.488c2.0898.0 4.0898-.83203 5.5664-2.3086 1.4766-1.4727 2.3047-3.4766 2.3047-5.5664v-31.484c0-2.0898-.82812-4.0938-2.3047-5.5664-1.4766-1.4766-3.4766-2.3086-5.5664-2.3086H415.74c-4.3477.0-7.8711 3.5273-7.8711 7.875v31.488-.003906c0 2.0898.82812 4.0938 2.3047 5.5664 1.4766 1.4766 3.4805 2.3086 5.5664 2.3086zm7.8711-31.488h15.742v15.742h-15.742z"/><path d="m478.72 502.34h94.465c2.0859.0 4.0898-.83203 5.5664-2.3086 1.4766-1.4727 2.3047-3.4766 2.3047-5.5664v-31.484c0-2.0898-.82813-4.0938-2.3047-5.5664-1.4766-1.4766-3.4805-2.3086-5.5664-2.3086H478.72c-4.3477.0-7.8711 3.5273-7.8711 7.875v31.488-.003906c0 2.0898.82812 4.0938 2.3047 5.5664 1.4766 1.4766 3.4805 2.3086 5.5664 2.3086zm7.8711-31.488h78.723v15.742h-78.723z"/><path d="m226.81 565.31h31.488c2.0898.0 4.0898-.83203 5.5664-2.3086 1.4766-1.4766 2.3086-3.4766 2.3086-5.5664v-31.488c0-2.0859-.83203-4.0898-2.3086-5.5664-1.4766-1.4727-3.4766-2.3047-5.5664-2.3047H226.81c-4.3477.0-7.8711 3.5234-7.8711 7.8711v31.488c0 2.0898.82812 4.0898 2.3047 5.5664 1.4766 1.4766 3.4805 2.3086 5.5664 2.3086zm7.8711-31.488h15.742v15.742h-15.738z"/><path d="m289.79 565.31h220.42c2.0859.0 4.0898-.83203 5.5664-2.3086 1.4766-1.4766 2.3047-3.4766 2.3047-5.5664v-31.488c0-2.0859-.82812-4.0898-2.3047-5.5664-1.4766-1.4727-3.4805-2.3047-5.5664-2.3047H289.79c-4.3477.0-7.8711 3.5234-7.8711 7.8711v31.488c0 2.0898.82812 4.0898 2.3047 5.5664 1.4766 1.4766 3.4805 2.3086 5.5664 2.3086zm7.8711-31.488h204.68v15.742h-204.67z"/><path d="m573.18 518.08h-31.488c-4.3477.0-7.8711 3.5234-7.8711 7.8711v31.488c0 2.0898.82812 4.0898 2.3047 5.5664 1.4766 1.4766 3.4766 2.3086 5.5664 2.3086h31.488c2.0859.0 4.0898-.83203 5.5664-2.3086 1.4766-1.4766 2.3047-3.4766 2.3047-5.5664v-31.488c0-2.0859-.82813-4.0898-2.3047-5.5664-1.4766-1.4727-3.4805-2.3047-5.5664-2.3047zm-7.8711 31.488h-15.746v-15.742h15.742z"/><path d="m4e2 297.66c-6.2656.0-12.273 2.4844-16.699 6.9141-4.4297 4.4297-6.918 10.438-6.918 16.699.0 6.2656 2.4883 12.27 6.918 16.699 4.4258 4.4297 10.434 6.918 16.699 6.918 6.2617.0 12.27-2.4883 16.699-6.918 4.4258-4.4297 6.9141-10.434 6.9141-16.699.0-6.2617-2.4883-12.27-6.9141-16.699-4.4297-4.4297-10.438-6.9141-16.699-6.9141zm0 31.488v-.003906c-3.1836.0-6.0547-1.918-7.2734-4.8594-1.2188-2.9414-.54687-6.3242 1.707-8.5781 2.25-2.25 5.6367-2.9258 8.5781-1.707s4.8594 4.0898 4.8594 7.2734c0 2.0898-.82812 4.0898-2.3047 5.5664-1.4766 1.4766-3.4805 2.3047-5.5664 2.3047z"/><path d="m334.27 242.95c18.426-15.441 41.695-23.902 65.734-23.902 24.035.0 47.305 8.4609 65.73 23.902 3.3047 2.8242 8.2734 2.4375 11.098-.86719 2.8281-3.3047 2.4414-8.2734-.86328-11.102-21.234-17.965-48.152-27.809-75.965-27.785-27.816-.023438-54.734 9.8203-75.965 27.785-3.3047 2.8281-3.6953 7.7969-.86719 11.102 2.8242 3.3047 7.7969 3.6914 11.098.86719z"/><path d="m430.38 284.44c1.9609-3.6484.75391-8.1914-2.7539-10.391-8.3398-5.0469-17.883-7.7656-27.629-7.8711-9.6992-.0625-19.238 2.4648-27.633 7.3203-3.2656 2.375-4.2031 6.832-2.1758 10.32 2.0312 3.4922 6.3711 4.8828 10.047 3.2188 12.18-7.0312 27.184-7.0312 39.363.0 3.6953 2.2422 8.5117 1.0859 10.781-2.5977z"/><path d="m453.53 263.02c2.6094-3.4766 1.9062-8.4102-1.5742-11.02-14.953-11.309-33.207-17.395-51.953-17.316-18.75-.078125-37.004 6.0078-51.957 17.316-3.4766 2.6094-4.1836 7.543-1.5742 11.02 2.6094 3.4805 7.543 4.1836 11.02 1.5781 12.266-9.1992 27.18-14.172 42.512-14.172 15.328.0 30.242 4.9727 42.508 14.172 3.4766 2.6055 8.4102 1.9023 11.02-1.5781z"/></g></svg>