<?xml version="1.0" encoding="UTF-8"?>
<svg version="1.1" xmlns="http://www.w3.org/2000/svg" width="500" height="500">
<path d="M0 0 C165 0 330 0 500 0 C500 165 500 330 500 500 C335 500 170 500 0 500 C0 335 0 170 0 0 Z " fill="#FEFEFE" transform="translate(0,0)"/>
<path d="M0 0 C0.65310939 -0.00467997 1.30621878 -0.00935994 1.97911936 -0.01418173 C4.17179624 -0.02616617 6.36385208 -0.01666154 8.55653381 -0.00723267 C10.1268246 -0.0112969 11.69711253 -0.01663794 13.26739502 -0.02316284 C17.53601592 -0.03686113 21.80441975 -0.0315272 26.07304454 -0.02202559 C30.53683106 -0.01444063 35.00059875 -0.02147148 39.46438599 -0.02618408 C46.96225833 -0.0316456 54.4600421 -0.02444023 61.957901 -0.01016235 C70.62904462 0.00615899 79.29997658 0.00088103 87.97111505 -0.01564157 C95.41153461 -0.02925226 102.85189042 -0.03117797 110.2923184 -0.02332556 C114.73803493 -0.01864598 119.18365195 -0.01803189 123.62936211 -0.02793503 C127.80972646 -0.03659615 131.98981782 -0.03059853 136.17015266 -0.01325226 C137.70523754 -0.00928257 139.24034536 -0.01042971 140.77542114 -0.01704025 C142.86955338 -0.02522733 144.96280855 -0.01496972 147.05688477 0 C148.22919616 0.00113108 149.40150755 0.00226215 150.60934353 0.00342751 C153.85240481 0.41392017 155.2249322 1.185528 157.5919342 3.38095093 C157.5919342 2.72095093 157.5919342 2.06095093 157.5919342 1.38095093 C160.40433141 -0.02524768 162.73946586 0.24848182 165.88647461 0.24050903 C166.53943514 0.23753791 167.19239567 0.23456679 167.86514288 0.23150563 C170.06306727 0.22280243 172.26093729 0.22130904 174.45887756 0.21981812 C176.03064084 0.21519115 177.60240299 0.21016666 179.17416382 0.20477295 C183.45096949 0.19163675 187.72775946 0.18520183 192.00458217 0.18076229 C194.67438835 0.17783403 197.34419021 0.17372974 200.01399422 0.16925812 C208.36101447 0.15558108 216.70802488 0.14591496 225.05505556 0.14205623 C234.70230365 0.13757231 244.34941028 0.12000985 253.99661535 0.09105563 C261.4463254 0.0694699 268.89599556 0.05935364 276.34573656 0.05801511 C280.79872193 0.056965 285.25157436 0.05101365 289.7045269 0.0331955 C293.89141125 0.01676802 298.07806196 0.0145332 302.26496696 0.0233345 C303.80370711 0.0241077 305.34245955 0.01972513 306.88116837 0.00987625 C308.97786392 -0.00275975 311.07372145 0.00298686 313.17041016 0.01345825 C314.34494216 0.01199169 315.51947416 0.01052513 316.72959805 0.00901413 C319.5919342 0.38095093 319.5919342 0.38095093 321.47073174 1.6939249 C323.35555071 4.52993245 322.98123637 7.68502146 322.93251038 10.97348022 C322.93294846 11.74445038 322.93338654 12.51542053 322.93383789 13.30975342 C322.93174759 15.85848298 322.90840567 18.40655501 322.88490295 20.95516968 C322.87930785 22.72207785 322.87503735 24.48899067 322.87203979 26.25590515 C322.86058428 30.9068486 322.83111108 35.55751108 322.79792786 40.20834351 C322.76724217 44.95399169 322.75353767 49.69968526 322.73841858 54.44540405 C322.70624201 63.75737647 322.65503715 73.06914034 322.5919342 82.38095093 C323.20930954 82.37578461 323.82668488 82.37061829 324.46276855 82.36529541 C325.67803978 82.35926804 325.67803978 82.35926804 326.91786194 82.3531189 C327.72086227 82.34795258 328.52386261 82.34278625 329.35119629 82.33746338 C337.32319473 82.49218146 343.83216774 86.101165 349.5919342 91.38095093 C353.51553994 95.71756779 355.81682549 99.250437 355.91419983 105.15512085 C355.93341492 106.10098557 355.95263 107.04685028 355.97242737 108.02137756 C355.985177 109.55094841 355.985177 109.55094841 355.9981842 111.11141968 C356.00958435 112.17524368 356.0209845 113.23906769 356.0327301 114.33512878 C356.05162958 116.59377068 356.06469789 118.85246772 356.07240295 121.11117554 C356.09161179 124.51138048 356.15356098 127.90905855 356.2169342 131.3086853 C356.43522965 153.80219876 350.61633614 172.14022215 334.53334045 188.56454468 C301.34563662 221.04776657 249.48692336 224.81705866 205.5997467 224.45126343 C203.59712624 224.42926273 201.5945137 224.40640911 199.5919342 224.38095093 C199.61815857 225.79803345 199.61815857 225.79803345 199.64491272 227.2437439 C199.59032828 230.476048 199.21963659 231.82119216 197.5294342 234.50595093 C197.14658264 235.14790405 196.76373108 235.78985718 196.36927795 236.45126343 C192.74813712 240.38278776 188.95770927 242.19990633 183.76014709 242.8888855 C182.3618211 242.91233364 180.96302258 242.91443449 179.56459045 242.89852905 C178.79452667 242.90553833 178.02446289 242.91254761 177.23106384 242.91976929 C174.70514536 242.93726341 172.18036254 242.92575788 169.6544342 242.91220093 C167.88758633 242.91489833 166.12073991 242.91878281 164.35389709 242.92379761 C160.65868435 242.92968101 156.96385951 242.92116727 153.26869202 242.9024353 C148.54424154 242.87964627 143.82070013 242.8927756 139.09628296 242.91672516 C135.45014154 242.9312146 131.80421383 242.92656278 128.1580658 242.91621399 C126.41662995 242.91355539 124.67517439 242.91678584 122.9337616 242.9261322 C120.49508141 242.93635009 118.05785083 242.92072544 115.61927795 242.89852905 C114.90738312 242.90662598 114.19548828 242.9147229 113.46202087 242.92306519 C106.53686473 242.80693914 101.59393958 239.82560744 96.7794342 234.94345093 C96.21611389 234.38786499 95.65279358 233.83227905 95.07240295 233.25985718 C91.88350455 229.21273281 91.34361241 225.35737671 91.36488342 220.30551147 C91.36503448 219.10464401 91.36518555 217.90377655 91.36534119 216.66651917 C91.37566376 215.37989883 91.38598633 214.0932785 91.3966217 212.76766968 C91.40035509 211.42960319 91.40320052 210.09153395 91.40519714 208.75346375 C91.41280804 205.24353394 91.43243439 201.73377148 91.4546051 198.22390747 C91.47511856 194.63760644 91.48421059 191.05127818 91.49427795 187.4649353 C91.51568291 180.43687207 91.5497879 173.40891955 91.5919342 166.38095093 C90.35609589 166.38761276 89.12025757 166.3942746 87.8469696 166.40113831 C76.22186557 166.46185357 64.59679354 166.50687739 52.97156715 166.53638744 C46.99436988 166.55206868 41.01730021 166.57335176 35.04017639 166.60726929 C29.27600723 166.6397751 23.51196109 166.65778541 17.74770737 166.66558266 C15.54438209 166.67114198 13.34106383 166.68199737 11.13779068 166.6981411 C8.06066892 166.71979862 4.98406085 166.72292275 1.90687561 166.7215271 C0.52907677 166.73770584 0.52907677 166.73770584 -0.8765564 166.75421143 C-1.71230698 166.75008743 -2.54805756 166.74596344 -3.40913391 166.74171448 C-4.5014586 166.74586255 -4.5014586 166.74586255 -5.61585045 166.75009441 C-7.4080658 166.38095093 -7.4080658 166.38095093 -9.4080658 163.38095093 C-9.66254139 160.52140808 -9.66254139 160.52140808 -9.66876221 156.96615601 C-9.67258775 156.31234105 -9.6764133 155.6585261 -9.68035477 154.98489857 C-9.69068895 152.79001176 -9.68669195 150.59538634 -9.682724 148.40048218 C-9.68707021 146.82857012 -9.69225305 145.25666019 -9.69821167 143.68475342 C-9.71162166 139.41211482 -9.7121782 135.13956457 -9.70964837 130.86690903 C-9.70858017 127.30307328 -9.71345807 123.73925552 -9.71825379 120.17542362 C-9.72935556 111.77028628 -9.7297824 103.36519362 -9.72373962 94.96005249 C-9.71769599 86.28094552 -9.73001917 77.60200051 -9.75130969 68.92292118 C-9.76890441 61.47742966 -9.77493049 54.03198979 -9.77167195 46.58647823 C-9.76985579 42.1368717 -9.77252842 37.68738073 -9.78638649 33.23779297 C-9.79892594 29.05498447 -9.79705783 24.87242922 -9.7839756 20.68962479 C-9.78160188 19.15250184 -9.78437283 17.61536128 -9.79259872 16.07825851 C-9.80300125 13.98379036 -9.79501924 11.89018234 -9.7822876 9.79574585 C-9.78245534 8.62251266 -9.78262308 7.44927948 -9.78279591 6.24049377 C-9.4080658 3.38095093 -9.4080658 3.38095093 -8.28518105 1.50383568 C-5.49855443 -0.16311606 -3.23423492 0.00312148 0 0 Z " fill="#232323" transform="translate(86.40806579589844,165.61904907226563)"/>
<path d="M0 0 C0.89630127 -0.01393799 1.79260254 -0.02787598 2.71606445 -0.04223633 C7.8688291 -0.00492905 11.61557709 0.38680701 16 3.375 C23.49598479 11.18550163 24.48797183 21.90392979 24.34472656 32.2487793 C24.16080452 37.75447313 23.46477033 43.05212926 22 48.375 C31.93035429 38.44464571 32.79882419 25.71437342 34 12.375 C36.203125 11.66796875 36.203125 11.66796875 39 11.375 C49.91440036 17.39237636 58.15630885 28.66156622 64 39.375 C64.928125 40.86 64.928125 40.86 65.875 42.375 C67.53702945 46.80707854 67.86907946 50.71094025 67 55.375 C65.4755145 58.53946232 63.44028233 60.8690372 61 63.375 C60.34644531 64.055625 59.69289062 64.73625 59.01953125 65.4375 C50.82188179 73.32157816 40.92618346 77.61928116 30 80.375 C42.55961252 83.01912895 52.68479007 80.58771579 63.67578125 74.265625 C66.5190735 73.17609453 68.11853753 73.53861089 71 74.375 C72.00241617 91.15618916 64.94841035 106.21953632 55 119.375 C51.16669415 122.87007298 47.1499999 122.94242934 42.16015625 122.78125 C28.32467884 121.00264722 17.27983374 113.40725269 8 103.375 C11.1091456 111.74323229 14.54162058 118.16187941 20.92578125 124.46875 C23.13927331 125.69973373 23.13927331 125.69973373 26.15187073 124.45553589 C30.14612613 123.3339685 33.5044044 123.07288085 37.64428711 122.99267578 C38.37373032 122.97620499 39.10317352 122.95973419 39.85472107 122.94276428 C42.24552272 122.89184499 44.63625683 122.85512522 47.02734375 122.8203125 C48.70211688 122.79140166 50.37688593 122.7622535 52.051651 122.73287964 C55.5541413 122.67409834 59.05664775 122.6232871 62.55932617 122.57714844 C67.03280239 122.51686229 71.50526864 122.42893612 75.97812557 122.33400154 C79.43449756 122.26506605 82.89096121 122.21486787 86.34771919 122.16979599 C87.99633556 122.14533028 89.64486799 122.11421835 91.29322624 122.07614517 C107.40064719 121.71821818 107.40064719 121.71821818 114 126.375 C114.33 127.035 114.66 127.695 115 128.375 C113.9985495 128.36833817 112.997099 128.36167633 111.96530151 128.35481262 C102.51944074 128.29395094 93.07361984 128.24900306 83.62760735 128.21956348 C78.77151175 128.20391939 73.91557468 128.18270402 69.05957031 128.14868164 C64.37169973 128.11604345 59.68398146 128.09813753 54.99600601 128.09036827 C53.20906299 128.08483278 51.42212813 128.07402326 49.63525009 128.05780983 C47.12888438 128.03597615 44.623145 128.03303553 42.11669922 128.03442383 C41.01294197 128.01824509 41.01294197 128.01824509 39.8868866 128.0017395 C34.4961764 128.03396831 30.34737771 129.18374243 26.35546875 132.91015625 C22.50684585 137.94297081 21.85348108 140.66795889 21.87060547 146.88232422 C21.86885315 147.65647675 21.86710083 148.43062927 21.86529541 149.22824097 C21.86088304 151.79541241 21.8638133 154.36251531 21.8671875 156.9296875 C21.86651415 158.71086643 21.86554386 160.49204526 21.86428833 162.27322388 C21.86281208 166.01077141 21.86496308 169.74829508 21.86962891 173.48583984 C21.87531789 178.27657414 21.872052 183.06725232 21.86605644 187.85798454 C21.86244183 191.53826317 21.86359371 195.2185285 21.86618423 198.89880753 C21.86685144 200.66505057 21.86603228 202.43129483 21.86370468 204.19753647 C21.86116435 206.668019 21.86503867 209.13841093 21.87060547 211.60888672 C21.86756912 212.70469055 21.86756912 212.70469055 21.86447144 213.82263184 C21.87835416 217.14947911 21.96690907 220.19407463 23 223.375 C19.1358952 219.70905442 17.09243239 217.75329563 16.87974548 212.28083801 C16.88196609 211.00842758 16.88418671 209.73601715 16.88647461 208.42504883 C16.88632858 207.72235367 16.88618256 207.01965851 16.8860321 206.29566956 C16.88672843 203.97442532 16.89450774 201.65326146 16.90234375 199.33203125 C16.90420892 197.7220616 16.90563236 196.11209139 16.90663147 194.50212097 C16.91044882 190.26557853 16.92027245 186.0290704 16.93133545 181.7925415 C16.94156636 177.46912093 16.94613269 173.14569481 16.95117188 168.82226562 C16.96189541 160.33982801 16.97896247 151.85741827 17 143.375 C16.10819786 143.5857164 16.10819786 143.5857164 15.19837952 143.8006897 C9.50908947 145.11165333 4.27369772 145.74053334 -1.5625 145.75 C-2.36107422 145.77449219 -3.15964844 145.79898438 -3.98242188 145.82421875 C-9.69648704 145.85216039 -14.31297267 144.77637137 -19 141.375 C-20.81680167 139.10730335 -21.77020686 137.07108496 -23 134.375 C-23.391875 133.529375 -23.78375 132.68375 -24.1875 131.8125 C-26.07721469 126.14335594 -26.19243612 120.47473657 -26.1875 114.5625 C-26.18814453 113.76730957 -26.18878906 112.97211914 -26.18945312 112.15283203 C-26.13970307 106.63396819 -25.57503315 101.6907369 -24 96.375 C-29.28230625 102.36643777 -32.2505521 107.58322822 -34 115.375 C-34.17789063 115.99375 -34.35578125 116.6125 -34.5390625 117.25 C-35.41608473 121.29322113 -35.46205854 125.4534041 -35.71875 129.57421875 C-36 132.375 -36 132.375 -37 133.375 C-40.64081578 133.98508264 -41.92875417 133.42216273 -45.05078125 131.35546875 C-46.15238192 130.44151717 -47.2390631 129.50937102 -48.3125 128.5625 C-48.88427979 128.06548584 -49.45605957 127.56847168 -50.04516602 127.05639648 C-59.07540948 118.9650228 -68.90511765 106.66382222 -69.75 94.125 C-69.34987523 88.55881988 -66.80137792 85.27869244 -63 81.375 C-62.34644531 80.694375 -61.69289063 80.01375 -61.01953125 79.3125 C-53.73649429 72.30804915 -44.85472793 67.61471089 -35 65.375 C-35 65.045 -35 64.715 -35 64.375 C-46.77862357 63.74699282 -55.5389374 64.47908417 -66.01171875 70.5390625 C-68.444329 71.56181023 -70.38736685 71.52014629 -73 71.375 C-74.21388094 55.62152294 -69.35825358 41.94129126 -60 29.375 C-53.69986404 22.71966349 -53.69986404 22.71966349 -48.0625 22 C-33.26447625 22.50699867 -20.06058399 31.22458937 -10 41.375 C-12.23316786 35.06224615 -14.52212561 30.35041599 -19 25.375 C-19 24.715 -19 24.055 -19 23.375 C-19.83144531 22.99021484 -19.83144531 22.99021484 -20.6796875 22.59765625 C-23.33307593 21.19949029 -25.68561927 19.55647518 -28.125 17.8125 C-31.45091748 15.40768334 -31.45091748 15.40768334 -35 13.375 C-35 11.725 -35 10.075 -35 8.375 C-23.80798491 1.85062254 -12.74731763 0.12913985 0 0 Z " fill="#222222" transform="translate(161,176.625)"/>
<path d="M0 0 C1.61938477 -0.04253906 1.61938477 -0.04253906 3.27148438 -0.0859375 C10.27707818 -0.1031186 14.02910332 0.65613971 19.1875 5.5 C20.67578125 7.45703125 20.67578125 7.45703125 21.5 9.3125 C21.78488281 9.91707031 22.06976563 10.52164063 22.36328125 11.14453125 C24.56616147 17.4399662 25.54885117 23.18171752 25.5 29.8125 C25.49871094 30.54654053 25.49742187 31.28058105 25.49609375 32.03686523 C25.38861942 38.16894721 24.28442297 43.72098015 22.1875 49.5 C32.22027961 39.01118496 33.81341197 26.469895 35.1875 12.5 C37.35546875 11.7578125 37.35546875 11.7578125 40.1875 11.5 C53.32249944 19.31424481 61.53256006 32.19012013 68.1875 45.5 C68.81513076 52.78051678 67.29865461 57.57723984 62.75 63.3125 C54.02238544 72.71146953 43.18206918 76.98742036 31.1875 80.5 C43.20273721 83.18704396 52.88373642 80.92683548 63.5625 75.1875 C67.1875 73.5 67.1875 73.5 70.1875 73.75 C71.1775 74.12125 71.1775 74.12125 72.1875 74.5 C72.96828351 90.11567021 66.81473869 106.26798893 57.1875 118.5 C53.69550012 121.89921728 49.83106913 122.77223927 45.0625 123.0625 C31.27497776 122.49511225 19.60524631 114.47021791 10.3671875 104.78515625 C9.97789062 104.36105469 9.58859375 103.93695313 9.1875 103.5 C13.05223218 117.71572814 21.99906062 125.11681676 34.1875 132.5 C34.01953125 134.8359375 34.01953125 134.8359375 33.1875 137.5 C29.50235959 139.86499673 25.3233023 141.10218528 21.1875 142.5 C20.25292969 142.82355469 19.31835938 143.14710938 18.35546875 143.48046875 C12.22290542 145.30737223 6.29655376 145.79884756 -0.0625 145.875 C-0.80709473 145.88893799 -1.55168945 145.90287598 -2.31884766 145.91723633 C-8.52027063 145.86416792 -14.28950576 144.74266155 -19.0625 140.5 C-23.94347017 132.13262257 -25.17156833 124.92805955 -25.1875 115.3125 C-25.18911133 114.37414307 -25.19072266 113.43578613 -25.19238281 112.46899414 C-25.10273133 106.83439823 -24.40111866 101.90765792 -22.8125 96.5 C-31.90557529 106.4464707 -33.80895245 115.56054791 -34.56640625 128.77734375 C-34.8125 131.5 -34.8125 131.5 -35.8125 133.5 C-38.93029032 133.80457987 -40.48417368 133.69656731 -43.20703125 132.06640625 C-52.80333068 124.11341496 -66.35625844 111.44946184 -68.12109375 98.1796875 C-68.40836696 91.92931887 -67.87033552 88.1568335 -63.69921875 83.40234375 C-62.76529297 82.46068359 -62.76529297 82.46068359 -61.8125 81.5 C-61.15894531 80.82066406 -60.50539063 80.14132812 -59.83203125 79.44140625 C-52.15721916 72.04618659 -42.77731212 67.94935804 -32.8125 64.5 C-45.22582422 64.1152012 -53.91973055 64.90625131 -65.01953125 70.7109375 C-67.37826672 71.74898666 -69.27567787 71.88436699 -71.8125 71.5 C-72.8125 70.5 -72.8125 70.5 -72.83203125 68.015625 C-71.86980744 52.83790604 -67.01403916 36.41432021 -55.8125 25.5 C-51.32211004 22.57148481 -48.12473968 21.90975115 -42.8125 22.5 C-29.05176899 25.81112027 -19.77752382 31.53497618 -9.8125 41.5 C-10.9286397 32.57088243 -16.01927879 26.07335117 -22.8125 20.5 C-25.7276188 18.64876514 -28.65860898 16.8967637 -31.6875 15.23828125 C-33.8125 13.5 -33.8125 13.5 -34.125 10.79296875 C-34.021875 10.03628906 -33.91875 9.27960938 -33.8125 8.5 C-23.21727946 1.73083132 -12.42887205 -0.03022218 0 0 Z " fill="#232322" transform="translate(325.8125,176.5)"/>
<path d="M0 0 C1.81177734 0.72703125 1.81177734 0.72703125 3.66015625 1.46875 C22.8328591 10.13149946 35.77713816 25.93994253 44 45 C51.26749783 64.5848379 49.72896117 86.72917793 41.390625 105.65234375 C37.75864409 112.79135211 33.3102332 119.02084207 28 125 C27.39671875 125.69738281 26.7934375 126.39476562 26.171875 127.11328125 C13.94625676 140.34057829 -5.92061878 149.26652305 -23.84375 150.38671875 C-40.20366084 150.95847852 -55.92807036 147.6072721 -70 139 C-71.93161977 137.07210923 -73.31390235 135.23793979 -74.74609375 132.92578125 C-77.34156883 128.93958432 -81.09669641 125.69633058 -85.5625 124.0625 C-94.65277752 120.10007134 -99.32848219 106.55145343 -102.86303711 97.88354492 C-109.89314447 79.57012596 -108.61795268 59.07739732 -101.20507812 41.06884766 C-97.64732538 33.20894427 -92.71701965 26.41421717 -87 20 C-86.32324219 19.22914063 -85.64648438 18.45828125 -84.94921875 17.6640625 C-63.58955342 -5.21850402 -28.62584176 -11.69674011 0 0 Z M-63 8 C-63.46565336 10.33542248 -63.46565336 10.33542248 -63 13 C-60.5936122 15.12471594 -60.5936122 15.12471594 -57.4375 16.875 C-48.5130096 22.50267865 -42.80762394 27.96331385 -39 38 C-39 38.99 -39 39.98 -39 41 C-39.46148437 40.49210937 -39.92296875 39.98421875 -40.3984375 39.4609375 C-49.79193319 29.54764363 -61.67126491 23.16929077 -75.3125 21.625 C-80.30077717 22.13228242 -83.29788419 23.63377636 -87 27 C-96.51399317 39.07469526 -102.67410107 54.51493538 -102 70 C-101.67 70.33 -101.34 70.66 -101 71 C-95.35301304 70.75970268 -91.35262827 68.86150819 -86.4296875 66.15625 C-81.1506423 63.64403557 -75.91050426 63.875137 -70.1875 63.9375 C-69.39923828 63.94201172 -68.61097656 63.94652344 -67.79882812 63.95117188 C-65.86585239 63.96288688 -63.93291607 63.98082002 -62 64 C-62.76183594 64.30292969 -63.52367187 64.60585937 -64.30859375 64.91796875 C-76.3681698 69.81105516 -91.40005392 76.27284981 -97 89 C-98.88762139 98.40690661 -95.05366531 105.27538611 -90 113 C-84.51525675 120.86072514 -77.99668309 127.66887794 -70 133 C-67.37468476 133.16713569 -67.37468476 133.16713569 -65 133 C-63.66117754 130.32235508 -63.77436356 128.05332754 -63.625 125.0625 C-62.8600541 114.70718764 -60.77353948 106.11315313 -54 98 C-53.34 97.67 -52.68 97.34 -52 97 C-52.32097656 97.93585938 -52.64195312 98.87171875 -52.97265625 99.8359375 C-56.26677825 111.45435541 -55.2398596 125.50814204 -50.58203125 136.5390625 C-47.45235763 141.40744368 -43.56039179 143.67385329 -38 145 C-35.11859693 145.28928315 -32.26947438 145.33363426 -29.375 145.3125 C-28.18076416 145.30512817 -28.18076416 145.30512817 -26.96240234 145.29760742 C-20.3041242 145.16637999 -14.31223522 144.18533937 -8 142 C-6.89011719 141.62488281 -5.78023438 141.24976563 -4.63671875 140.86328125 C-0.16280637 139.24486145 -0.16280637 139.24486145 4 137 C4.91503223 134.42732118 4.91503223 134.42732118 5 132 C4.154375 131.45472656 3.30875 130.90945313 2.4375 130.34765625 C-8.69364374 123.01887311 -16.23751914 116.24294251 -20 103 C-19.48953125 103.56847656 -18.9790625 104.13695312 -18.453125 104.72265625 C-9.33159569 114.41023791 2.05229693 121.84657959 15.625 122.4375 C20.56326992 122.23145258 24.42857042 121.59634653 28 118 C36.39228584 107.05711748 43.27432802 92.10564951 43.0625 78.125 C43.05347656 77.34382813 43.04445313 76.56265625 43.03515625 75.7578125 C43.02355469 75.17773438 43.01195312 74.59765625 43 74 C39.77408677 72.97786998 38.32455825 72.87044201 35.1328125 74.14453125 C34.14023437 74.69496094 33.14765625 75.24539062 32.125 75.8125 C22.23024405 81.00062629 13.01066375 82.52075635 2 80 C3.09957031 79.6596875 4.19914062 79.319375 5.33203125 78.96875 C18.93232316 74.58324912 31.04087329 68.36369863 38.4375 55.5 C40.30458143 47.20186029 38.31554273 42.60425839 34.12109375 35.3125 C28.00881835 25.76699441 20.46903644 17.31269096 11 11 C8.35367713 11.3121764 8.35367713 11.3121764 6 12 C5.90203125 13.09957031 5.8040625 14.19914062 5.703125 15.33203125 C4.47908913 27.89263189 2.45400271 38.16517684 -6 48 C-6 45 -6 45 -5.0234375 41.8203125 C-3.93954951 37.77434893 -3.61544193 34.03275872 -3.625 29.875 C-3.62661133 29.13797852 -3.62822266 28.40095703 -3.62988281 27.64160156 C-3.82978102 18.57562976 -5.6708917 9.78443983 -12 3 C-15.59749646 0.46218963 -18.0768234 -0.38769951 -22.46484375 -0.43359375 C-24.0264624 -0.4505127 -24.0264624 -0.4505127 -25.61962891 -0.46777344 C-27.2619751 -0.45278809 -27.2619751 -0.45278809 -28.9375 -0.4375 C-30.05817871 -0.43137695 -31.17885742 -0.42525391 -32.33349609 -0.41894531 C-43.56924495 -0.20753305 -53.49821986 1.66547991 -63 8 Z " fill="#F6F6F6" transform="translate(355,177)"/>
<path d="M0 0 C14.13133863 12.41780805 26.7522596 30.05633634 28.28564453 49.44677734 C28.99689841 68.89695389 27.4165743 85.75819346 17.0625 102.625 C16.63404785 103.40963623 16.2055957 104.19427246 15.76416016 105.00268555 C13.30852971 108.90405013 11.56908796 111.24359895 6.98706055 112.40356445 C3.31671256 112.66542013 -0.25967074 112.67100738 -3.9375 112.5625 C-6.41661964 112.54325218 -8.89580881 112.53130834 -11.375 112.52734375 C-13.10194092 112.51368774 -13.10194092 112.51368774 -14.86376953 112.49975586 C-17.55559684 112.60943874 -19.53735806 112.93361929 -22.0546875 113.8125 C-24.9375 114.625 -24.9375 114.625 -27.1953125 113.53515625 C-33.65386281 107.14416399 -38.29748991 101.42503364 -40.9375 92.625 C-40.4425 91.14 -40.4425 91.14 -39.9375 89.625 C-39.54820312 90.12128906 -39.15890625 90.61757813 -38.7578125 91.12890625 C-30.21316635 101.504548 -19.27464107 108.1537964 -5.80859375 110.0703125 C0.16348921 110.31407099 3.29631116 109.48093527 8.0625 105.625 C9.63344852 103.3803885 10.92537326 101.33534732 12.1875 98.9375 C12.5273291 98.31391602 12.8671582 97.69033203 13.21728516 97.04785156 C14.18554169 95.25078976 15.12483832 93.43821329 16.0625 91.625 C16.50078125 90.77808594 16.9390625 89.93117188 17.390625 89.05859375 C21.48268532 80.52328883 22.42167082 72.00334914 22.0625 62.625 C18.25751373 63.23516897 15.20683491 64.37660512 11.75 66.0625 C1.0367529 71.01809291 -8.58120833 71.98982716 -19.9375 68.625 C-19.9375 68.295 -19.9375 67.965 -19.9375 67.625 C-18.99390625 67.41746094 -18.0503125 67.20992188 -17.078125 66.99609375 C-2.79649247 63.65330556 7.55598623 57.53898511 17.0625 46.25 C19.18012843 40.69122538 19.00670818 35.95976932 16.7734375 30.4375 C10.60100234 18.48721458 2.31822752 8.12881835 -8.9375 0.625 C-10.2575 0.625 -11.5775 0.625 -12.9375 0.625 C-13.03546875 1.71296875 -13.1334375 2.8009375 -13.234375 3.921875 C-14.51098497 16.94210781 -16.06245894 28.19378101 -25.9375 37.625 C-27.55060027 33.59224933 -26.10280801 30.65746874 -24.9375 26.625 C-24.70252686 23.86543173 -24.55616611 21.25524241 -24.5625 18.5 C-24.56411133 17.76297852 -24.56572266 17.02595703 -24.56738281 16.26660156 C-24.76560783 7.27651403 -26.54770842 -1.70939008 -32.9375 -8.375 C-37.45802533 -11.09721416 -42.55915968 -10.75879329 -47.6875 -10.75 C-49.07400757 -10.74867065 -49.07400757 -10.74867065 -50.48852539 -10.74731445 C-61.19675574 -10.56619302 -72.58925742 -8.9188897 -81.9375 -3.375 C-82.90656827 -0.79085574 -82.90656827 -0.79085574 -82.9375 1.625 C-82.2775 1.83125 -81.6175 2.0375 -80.9375 2.25 C-71.42022249 6.61208552 -63.92476475 14.52437188 -58.9375 23.625 C-57.99788407 26.31470628 -57.44934267 28.80986533 -56.9375 31.625 C-57.95833333 30.75 -58.97916667 29.875 -60 29 C-60.64839844 28.45085937 -61.29679687 27.90171875 -61.96484375 27.3359375 C-63.17213786 26.28881905 -64.35825426 25.21578763 -65.50390625 24.1015625 C-73.5035121 16.52298853 -84.74378365 12.23463698 -95.625 11.3125 C-99.22786322 11.65239276 -100.9923143 12.60544409 -103.9375 14.625 C-104.5975 14.625 -105.2575 14.625 -105.9375 14.625 C-106.19917969 15.17671875 -106.46085937 15.7284375 -106.73046875 16.296875 C-107.9375 18.625 -107.9375 18.625 -109.48828125 21.078125 C-117.06443906 33.10590547 -120.66964959 45.40457831 -120.9375 59.625 C-114.98685394 57.76206037 -114.98685394 57.76206037 -109.265625 55.3125 C-100.54323326 51.07177915 -92.45754693 50.66694443 -82.9375 51.625 C-80.4375 52.65234375 -80.4375 52.65234375 -78.9375 53.625 C-79.74832031 53.84414062 -80.55914062 54.06328125 -81.39453125 54.2890625 C-94.3689603 58.00467315 -106.71479689 63.69556056 -114.6796875 75.125 C-116.83292644 79.40472957 -116.7841645 82.94966882 -115.9375 87.625 C-111.32616828 100.26182251 -102.06431028 114.23536342 -89.9375 120.625 C-87.26218191 120.85542417 -87.26218191 120.85542417 -84.9375 120.625 C-84.90011719 119.81417969 -84.86273438 119.00335938 -84.82421875 118.16796875 C-84.11624103 106.24340287 -82.40341054 93.51616294 -73.125 85.0625 C-72.403125 84.588125 -71.68125 84.11375 -70.9375 83.625 C-71.39572468 87.09441546 -71.82881683 90.29895049 -72.9375 93.625 C-73.06115396 96.53230598 -73.12264971 99.40519458 -73.125 102.3125 C-73.14336914 103.47942383 -73.14336914 103.47942383 -73.16210938 104.66992188 C-73.17951148 111.6249644 -71.85284968 117.86980549 -69.3125 124.375 C-69.05210937 125.09171875 -68.79171875 125.8084375 -68.5234375 126.546875 C-65.59387685 130.38560964 -61.39231002 132.27124322 -56.65039062 132.95458984 C-54.25391317 133.0533568 -51.89670763 133.02454749 -49.5 132.9375 C-48.30793945 132.92299805 -48.30793945 132.92299805 -47.09179688 132.90820312 C-41.65801983 132.80651324 -36.32979569 132.28891629 -30.9375 131.625 C-30.9375 133.275 -30.9375 134.925 -30.9375 136.625 C-50.42767438 142.10967219 -69.93568256 138.15619603 -87.3828125 128.6875 C-91.97140005 126.08193221 -96.03627693 123.1838854 -99.9375 119.625 C-100.81792969 118.84769531 -101.69835937 118.07039062 -102.60546875 117.26953125 C-114.24192006 106.40349327 -120.71184143 93.84092181 -124.9375 78.625 C-125.18242188 77.83996094 -125.42734375 77.05492187 -125.6796875 76.24609375 C-130.60572678 58.46511634 -125.57915707 38.55962715 -117.375 22.58203125 C-106.22688555 4.01077329 -88.40150129 -9.91142739 -67.375 -15.3125 C-43.32818903 -19.66979304 -19.37347712 -15.24514564 0 0 Z " fill="#F6F6F6" transform="translate(208.9375,188.375)"/>
<path d="M0 0 C0 6.22759183 -6.54400424 11.66891733 -10.625 16.0625 C-32.50775312 37.31158266 -65.16998418 42.13179658 -94 46 C-95.21719727 46.16447632 -95.21719727 46.16447632 -96.45898438 46.33227539 C-104.16107756 47.2406166 -111.88305473 47.1112899 -119.625 47.0625 C-121.02473797 47.05747197 -122.4244777 47.05291138 -123.82421875 47.04882812 C-127.21619169 47.03713167 -130.60807233 47.02074086 -134 47 C-134 43.37 -134 39.74 -134 36 C-132.76588379 35.97812622 -132.76588379 35.97812622 -131.50683594 35.95581055 C-87.65893132 35.09574976 -33.23371412 33.23371412 0 0 Z " fill="#F7F7F7" transform="translate(420,328)"/>
<path d="M0 0 C33.33 0 66.66 0 101 0 C83.79508595 17.20491405 38.40954099 17.04371843 15.70166016 17.13183594 C10.46697195 17.12216892 5.23419788 17.07269719 0 17 C0 11.39 0 5.78 0 0 Z " fill="#F8F8F8" transform="translate(286,332)"/>
<path d="M0 0 C0.495 0.99 0.495 0.99 1 2 C-0.0014505 1.99333817 -1.002901 1.98667633 -2.03469849 1.97981262 C-11.48055926 1.91895094 -20.92638016 1.87400306 -30.37239265 1.84456348 C-35.22848825 1.82891939 -40.08442532 1.80770402 -44.94042969 1.77368164 C-49.62830027 1.74104345 -54.31601854 1.72313753 -59.00399399 1.71536827 C-60.79093701 1.70983278 -62.57787187 1.69902326 -64.36474991 1.68280983 C-66.87111562 1.66097615 -69.376855 1.65803553 -71.88330078 1.65942383 C-72.61913895 1.648638 -73.35497711 1.63785217 -74.1131134 1.6267395 C-79.5038236 1.65896831 -83.65262229 2.80874243 -87.64453125 6.53515625 C-91.49315415 11.56797081 -92.14651892 14.29295889 -92.12939453 20.50732422 C-92.13114685 21.28147675 -92.13289917 22.05562927 -92.13470459 22.85324097 C-92.13911696 25.42041241 -92.1361867 27.98751531 -92.1328125 30.5546875 C-92.13348585 32.33586643 -92.13445614 34.11704526 -92.13571167 35.89822388 C-92.13718792 39.63577141 -92.13503692 43.37329508 -92.13037109 47.11083984 C-92.12468211 51.90157414 -92.127948 56.69225232 -92.13394356 61.48298454 C-92.13755817 65.16326317 -92.13640629 68.8435285 -92.13381577 72.52380753 C-92.13314856 74.29005057 -92.13396772 76.05629483 -92.13629532 77.82253647 C-92.13883565 80.293019 -92.13496133 82.76341093 -92.12939453 85.23388672 C-92.13141876 85.96442261 -92.13344299 86.6949585 -92.13552856 87.44763184 C-92.12164584 90.77447911 -92.03309093 93.81907463 -91 97 C-94.85585634 93.34187988 -96.86742025 91.37205921 -97.17167664 85.92843628 C-97.19325333 84.6654068 -97.21483002 83.40237732 -97.23706055 82.10107422 C-97.25672882 81.05408607 -97.25672882 81.05408607 -97.27679443 79.98594666 C-97.31860746 77.67558267 -97.35312389 75.36518471 -97.38671875 73.0546875 C-97.41238928 71.44385604 -97.43817321 69.83302639 -97.46406555 68.22219849 C-97.51705393 64.84120839 -97.56596256 61.46018561 -97.61254883 58.07910156 C-97.67269174 53.76511361 -97.74696887 49.45149808 -97.82492352 45.13780022 C-97.88280759 41.80741564 -97.93097014 38.47694025 -97.976511 35.14636612 C-97.99978268 33.55724798 -98.0264949 31.9681761 -98.05682945 30.37917709 C-98.46761245 8.31861409 -98.46761245 8.31861409 -92 1 C-84.34876924 -4.24531625 -76.05312404 -3.67735635 -67.12890625 -3.75 C-65.48036509 -3.77518422 -63.8318407 -3.80148919 -62.18333435 -3.82885742 C-58.73805199 -3.88153436 -55.2929757 -3.9201149 -51.84741211 -3.94873047 C-47.45123725 -3.98644799 -43.0565374 -4.060156 -38.66104221 -4.1446228 C-35.25950181 -4.20581722 -31.85793186 -4.24731544 -28.45603752 -4.28308105 C-26.83618629 -4.30251489 -25.21639533 -4.32803498 -23.59674263 -4.35998535 C-6.48255366 -4.67593593 -6.48255366 -4.67593593 0 0 Z " fill="#525353" transform="translate(275,303)"/>
<path d="M0 0 C3.75169713 1.67436854 6.24146912 4.14359417 8.9375 7.1875 C10.55716736 11.47485479 10.66655304 15.47903156 10 20 C7.54447855 24.65702344 5.04996079 28.31667974 0 30 C-5.35684493 30.59710055 -10.37285571 30.95976286 -15 27.875 C-19.09482364 24.37917934 -20.80016706 20.86510747 -21.375 15.5 C-20.79615037 10.09740342 -19.03796014 6.68642565 -14.9375 3.1875 C-10.00672345 -0.48435488 -6.06255289 -0.80773534 0 0 Z " fill="#FAFAFA" transform="translate(331,234)"/>
<path d="M0 0 C4.38283736 2.26698484 6.97568801 4.85901362 9 9.3125 C9.93040409 14.21212799 10.16286814 18.41566574 7.49609375 22.765625 C2.01436195 29.12855377 2.01436195 29.12855377 -2.609375 29.55078125 C-13.26714553 29.80264399 -13.26714553 29.80264399 -18 25.3125 C-21.84722251 19.89479294 -22.0674057 14.76816969 -21 8.3125 C-16.71256249 0.26488266 -8.68492475 -2.98544288 0 0 Z " fill="#FBFBFB" transform="translate(166,234.6875)"/>
<path d="M0 0 C11.25 1.125 11.25 1.125 15 4 C14.4600659 8.65173998 13.22261842 11.95746424 10.875 16 C10.31554687 16.99 9.75609375 17.98 9.1796875 19 C7 22 7 22 0 28 C0 18.76 0 9.52 0 0 Z " fill="#FAFAFA" transform="translate(409,289)"/>
<path d="M0 0 C6.0120647 0.46246652 10.65439349 1.16355573 16 4 C18 7 18 7 18 14 C12.06 13.01 6.12 12.02 0 11 C0 7.37 0 3.74 0 0 Z " fill="#F7F7F7" transform="translate(409,263)"/>
<path d="M0 0 C3.0625 0.1875 3.0625 0.1875 5.0625 2.1875 C5.43046448 5.05762296 5.43759409 6.59524618 3.875 9.0625 C2.0625 10.1875 2.0625 10.1875 -0.5 10 C-2.9375 9.1875 -2.9375 9.1875 -4.9375 7.1875 C-4.23164336 0.2701049 -4.23164336 0.2701049 0 0 Z " fill="#F1F1F1" transform="translate(395.9375,314.8125)"/>
<path d="M0 0 C3.0625 0.1875 3.0625 0.1875 5.0625 2.1875 C5.43046448 5.05762296 5.43759409 6.59524618 3.875 9.0625 C2.0625 10.1875 2.0625 10.1875 -0.5 10 C-2.9375 9.1875 -2.9375 9.1875 -4.9375 7.1875 C-4.23164336 0.2701049 -4.23164336 0.2701049 0 0 Z " fill="#F1F1F1" transform="translate(395.9375,173.8125)"/>
<path d="M0 0 C0.66 0.66 1.32 1.32 2 2 C1.625 5.625 1.625 5.625 1 9 C-4.41139241 10.32278481 -4.41139241 10.32278481 -6.9375 8.9375 C-8.52666796 6.03960549 -7.87523205 4.09697496 -7 1 C-4.48718205 -0.25640898 -2.78302919 -0.20872719 0 0 Z " fill="#F1F1F1" transform="translate(258,174)"/>
<path d="M0 0 C2.5 0.25 2.5 0.25 4.5 2.25 C4.8125 5.25 4.8125 5.25 4.5 8.25 C1.5 10.25 1.5 10.25 -1.0625 10.0625 C-3.5 9.25 -3.5 9.25 -5.5 6.25 C-5.04523279 2.49817053 -4.00542288 0.40054229 0 0 Z " fill="#F2F2F2" transform="translate(230.5,173.75)"/>
<path d="M0 0 C2.5 0.25 2.5 0.25 4.5 2.25 C4.8125 5.25 4.8125 5.25 4.5 8.25 C1.5 10.25 1.5 10.25 -1.125 9.9375 C-3.5 9.25 -3.5 9.25 -4.5 8.25 C-4.6875 5.3125 -4.6875 5.3125 -4.5 2.25 C-2.5 0.25 -2.5 0.25 0 0 Z " fill="#F5F5F5" transform="translate(89.5,173.75)"/>
<path d="M0 0 C2.5 0.25 2.5 0.25 4.5 2.25 C4.8125 5.25 4.8125 5.25 4.5 8.25 C1.5 10.25 1.5 10.25 -1.125 9.9375 C-3.5 9.25 -3.5 9.25 -4.5 8.25 C-4.6875 5.3125 -4.6875 5.3125 -4.5 2.25 C-2.5 0.25 -2.5 0.25 0 0 Z " fill="#F7F7F7" transform="translate(89.5,314.75)"/>
</svg>
