<svg fill="#000" width="800" height="800" viewBox="144 144 512 512" xmlns="http://www.w3.org/2000/svg"><g><path d="m565.23 455.1H234.61c-4.3477.0-7.8711-3.5234-7.8711-7.8711v-188.93c0-4.3477 3.5234-7.8711 7.8711-7.8711h330.62c4.3477.0 7.8711 3.5234 7.8711 7.8711v188.93c0 4.3477-3.5234 7.8711-7.8711 7.8711zm-322.75-15.742h314.88v-173.18H242.48z"/><path d="m541.62 431.49H258.23c-4.3477.0-7.8711-3.5234-7.8711-7.8711v-141.7c0-4.3477 3.5234-7.8711 7.8711-7.8711h283.39c4.3477.0 7.8711 3.5234 7.8711 7.8711v141.7c0 4.3477-3.5234 7.875-7.8711 7.875zM266.1 415.744h267.65v-125.95H266.1z"/><path d="m620.5 525.95c-.054688-.007813-.10156-.003907-.15625.0h-440.83c-3.0039.0-5.75-1.7148-7.0703-4.4141-1.3203-2.7031-.98828-5.918.85547-8.2891l55.105-70.848c1.4883-1.918 3.7812-3.0391 6.2109-3.0391h330.62c2.4297.0 4.7227 1.1211 6.2148 3.0391l54.305 69.82c1.6055 1.4414 2.6133 3.5312 2.6133 5.8594.0 4.3477-3.5234 7.8711-7.8711 7.8711zm-424.9-15.742h408.64l-42.863-55.105h-322.92z"/><path d="m620.34 549.57H179.51c-4.3477.0-7.8711-3.5234-7.8711-7.8711v-23.617c0-4.3477 3.5234-7.8711 7.8711-7.8711h440.83c4.3477.0 7.8711 3.5234 7.8711 7.8711v23.617c0 4.3477-3.5234 7.8711-7.8711 7.8711zm-432.96-15.742h425.09v-7.8711H187.38z"/><path d="m443.38 525.95c-.058594-.007813-.10547-.003907-.15625.0h-86.594c-3.0391.0-5.8086-1.75-7.1094-4.4922-1.3047-2.7461-.91016-5.9961 1.0078-8.3516l19.242-23.617c1.4922-1.832 3.7344-2.8984 6.1016-2.8984h48.109c2.3672.0 4.6094 1.0664 6.1055 2.8984l18.43 22.625c1.6758 1.4414 2.7383 3.5781 2.7383 5.9648-.003906 4.3477-3.5273 7.8711-7.875 7.8711zm-70.184-15.742h53.457l-6.4141-7.8711h-40.629z"/><path d="m455.03 478.72h-196.8c-4.3477.0-7.8711-3.5234-7.8711-7.8711s3.5234-7.8711 7.8711-7.8711h196.8c4.3477.0 7.8711 3.5234 7.8711 7.8711s-3.5234 7.8711-7.8711 7.8711z"/><path d="m541.62 478.72h-62.977c-4.3477.0-7.8711-3.5234-7.8711-7.8711s3.5234-7.8711 7.8711-7.8711h62.977c4.3477.0 7.8711 3.5234 7.8711 7.8711s-3.5234 7.8711-7.8711 7.8711z"/></g></svg>