<svg fill="#000" width="800" height="800" viewBox="144 144 512 512" xmlns="http://www.w3.org/2000/svg"><g><path d="m596.8 226.81H439.36c-4.3477.0-7.8711 3.5273-7.8711 7.875v55.105l-228.29-.003907c-4.3477.0-7.875 3.5273-7.875 7.875v204.67c0 2.0859.83203 4.0898 2.3086 5.5664 1.4766 1.4766 3.4766 2.3047 5.5664 2.3047h118.08v47.23h-15.742c-4.3477.0-7.8711 3.5273-7.8711 7.875s3.5234 7.8711 7.8711 7.8711h94.465c4.3477.0 7.8711-3.5234 7.8711-7.8711s-3.5234-7.875-7.8711-7.875h-15.746v-47.23h47.23v55.105h.003906c0 2.0859.82812 4.0898 2.3047 5.5664 1.4766 1.4766 3.4766 2.3047 5.5664 2.3047h157.44c2.0859.0 4.0898-.82812 5.5664-2.3047 1.4727-1.4766 2.3047-3.4805 2.3047-5.5664v-330.62c0-2.0898-.83203-4.0898-2.3047-5.5664-1.4766-1.4766-3.4805-2.3086-5.5664-2.3086zM533.823 510.2c.019531 3.707-1.2656 7.3008-3.6328 10.152-2.3711 2.8516-5.668 4.7773-9.3164 5.4375-3.6484.65625-7.4102.007813-10.625-1.8359-3.2188-1.8438-5.6797-4.7656-6.9531-8.2461-1.2773-3.4805-1.2812-7.2969-.019531-10.781 1.2656-3.4883 3.7188-6.4141 6.9297-8.2656v5.668c0 4.3477 3.5234 7.8711 7.8711 7.8711s7.8711-3.5234 7.8711-7.8711v-5.668c4.8438 2.793 7.8398 7.9492 7.875 13.539zm-23.617-173.18h47.23v15.742h-47.23zm0 62.977h47.23v15.742h-47.23zm0 31.488h55.105c2.0859.0 4.0898-.83203 5.5664-2.3086 1.4766-1.4766 2.3047-3.4766 2.3047-5.5664v-31.488c0-2.0859-.82812-4.0898-2.3047-5.5664-1.4766-1.4766-3.4805-2.3047-5.5664-2.3047h-55.105v-15.742h55.105c2.0859.0 4.0898-.83203 5.5664-2.3086 1.4766-1.4766 2.3047-3.4766 2.3047-5.5664v-31.488c0-2.0859-.82812-4.0898-2.3047-5.5664-1.4766-1.4727-3.4805-2.3047-5.5664-2.3047h-55.105v-15.742h78.719v141.7h-78.719zm-62.977-188.93h141.7v47.23h-141.7zm-236.16 62.977h283.39v141.7h-283.39zm0 157.44h283.39v26.609-.003907c-1.3086 1.5078-2.4688 3.1445-3.4609 4.8789h-279.93zm157.44 94.461h-31.488v-47.23h31.488zm78.719.0v-47.23h39.359c0 8.3516 3.3203 16.359 9.2227 22.266 5.9062 5.9062 13.914 9.2227 22.266 9.2227s16.359-3.3164 22.266-9.2227 9.2227-13.914 9.2227-22.266c0-8.3516-3.3164-16.359-9.2227-22.266s-13.914-9.2227-22.266-9.2227c-2.6602.039062-5.3047.41016-7.8711 1.1016v-16.844h78.719v94.461z"/><path d="m510.21 266.18c0-2.0898-.82812-4.0898-2.3047-5.5664-1.4766-1.4766-3.4805-2.3086-5.5664-2.3086h-15.746c-4.3477.0-7.8711 3.5273-7.8711 7.875s3.5234 7.8711 7.8711 7.8711h15.746c2.0859.0 4.0898-.83203 5.5664-2.3047 1.4766-1.4766 2.3047-3.4805 2.3047-5.5664z"/><path d="m533.82 274.05h15.742c4.3477.0 7.8711-3.5234 7.8711-7.8711.0-4.3477-3.5234-7.875-7.8711-7.875H533.82c-4.3477.0-7.875 3.5273-7.875 7.875s3.5273 7.8711 7.875 7.8711z"/></g></svg>