<svg fill="#000" width="800" height="800" viewBox="144 144 512 512" xmlns="http://www.w3.org/2000/svg"><g><path d="m612.54 258.3H187.45c-4.3477.0-7.8711 3.5273-7.8711 7.875v267.65c0 2.0859.82812 4.0898 2.3047 5.5664 1.4766 1.4766 3.4805 2.3047 5.5664 2.3047h425.09c2.0898.0 4.0898-.82812 5.5664-2.3047s2.3047-3.4805 2.3047-5.5664v-267.65c0-2.0898-.82812-4.0898-2.3047-5.5664S614.6298 258.3 612.54 258.3zm-7.8711 267.65h-409.35v-251.9h409.35z"/><path d="m470.85 494.46h94.465c2.0859.0 4.0898-.82813 5.5664-2.3047 1.4766-1.4766 2.3047-3.4766 2.3047-5.5664v-31.488c0-2.0859-.82812-4.0898-2.3047-5.5664-1.4766-1.4766-3.4805-2.3047-5.5664-2.3047H470.85c-4.3477.0-7.8711 3.5234-7.8711 7.8711v31.488c0 2.0898.82813 4.0898 2.3047 5.5664s3.4766 2.3047 5.5664 2.3047zm86.594-15.742h-31.492v-15.742h31.488zm-78.723-15.742h31.488v15.742h-31.488z"/><path d="m479.59 379.93c1.332 2.6445 4.0391 4.3203 7.0039 4.3281h62.977c2.9648-.007812 5.6719-1.6836 7.0078-4.3281l15.742-31.488c.5625-1.0977.85938-2.3125.86719-3.543v-31.488c0-2.0859-.82812-4.0898-2.3047-5.5664-1.4766-1.4766-3.4805-2.3047-5.5664-2.3047h-94.465c-4.3477.0-7.8711 3.5234-7.8711 7.8711v31.488c.003907 1.2305.30078 2.4453.86328 3.543zm-.86719-58.648h7.8711v15.746c0 4.3477 3.5234 7.8711 7.8711 7.8711 4.3477.0 7.875-3.5234 7.875-7.8711v-15.746h31.488v15.746c0 4.3477 3.5234 7.8711 7.8711 7.8711 4.3477.0 7.8711-3.5234 7.8711-7.8711v-15.746h7.8711v21.727l-12.75 25.508h-53.215l-12.754-25.508z"/><path d="m502.34 415.74c-3.1836.0-6.0547 1.918-7.2734 4.8594-1.2188 2.9414-.54688 6.3281 1.707 8.5781 2.25 2.2539 5.6367 2.9258 8.5781 1.707s4.8594-4.0898 4.8594-7.2734c0-2.0859-.82812-4.0898-2.3047-5.5664-1.4766-1.4766-3.4805-2.3047-5.5664-2.3047z"/><path d="m533.82 415.74c-3.1836.0-6.0547 1.918-7.2734 4.8594-1.2188 2.9414-.54688 6.3281 1.707 8.5781 2.25 2.2539 5.6367 2.9258 8.5781 1.707 2.9414-1.2188 4.8594-4.0898 4.8594-7.2734.0-2.0859-.82812-4.0898-2.3047-5.5664s-3.4805-2.3047-5.5664-2.3047z"/><path d="m213.35 507.93c1.4805 1.4883 3.4922 2.3281 5.5898 2.3281s4.1133-.83984 5.5898-2.3281l24.719-24.719c19.957 17.406 45.543 27 72.027 27s52.07-9.5938 72.031-27l24.719 24.719c3.0859 3.0859 8.0898 3.0859 11.176.0 3.0859-3.0898 3.0859-8.0938.0-11.18l-24.719-24.719c17.41-19.957 27-45.547 27-72.027.0-26.484-9.5898-52.074-27-72.031l24.719-24.719c3.0859-3.0859 3.0859-8.0898.0-11.176-3.0859-3.0898-8.0898-3.0898-11.176.0l-24.719 24.719c-19.961-17.41-45.547-27-72.031-27s-52.07 9.5898-72.027 27l-24.719-24.719c-3.0859-3.0898-8.0898-3.0898-11.18.0-3.0859 3.0859-3.0859 8.0898.0 11.176l24.719 24.719c-17.406 19.957-27 45.547-27 72.031.0 26.48 9.5938 52.07 27 72.027l-24.719 24.719c-1.4883 1.4766-2.3281 3.4883-2.3281 5.5898.0 2.0977.83984 4.1094 2.3281 5.5898zm107.93-13.465c-22.336.03125-43.945-7.9258-60.93-22.434l11.18-11.098c14.051 11.457 31.621 17.711 49.75 17.711s35.703-6.2539 49.754-17.711l11.18 11.098h-.003907c-16.98 14.508-38.594 22.465-60.93 22.434zm-31.488-94.461c.082032-5.5547 1.6289-10.984 4.4883-15.746L310.0223 4e2l-15.742 15.742v.003907c-2.8594-4.7617-4.4062-10.191-4.4883-15.742zm62.977.0c-.082031 5.5508-1.6289 10.98-4.4844 15.742l-15.742-15.742 15.742-15.742v-.003906c2.8555 4.7617 4.4023 10.191 4.4844 15.746zm-15.742 27c-4.75 2.875-10.195 4.3945-15.746 4.3945-5.5508.0-10.996-1.5195-15.742-4.3945l15.742-15.742zm-15.742-38.102-15.742-15.742h-.003906c4.7461-2.8789 10.191-4.3984 15.742-4.3984 5.5508.0 10.996 1.5195 15.746 4.3984zm-27.316 49.594h-.003906c7.9844 5.6602 17.531 8.6992 27.316 8.6992 9.7891.0 19.332-3.0391 27.316-8.6992l11.258 11.18c-11.012 8.6172-24.59 13.301-38.574 13.301-13.98.0-27.562-4.6836-38.57-13.301zm65.809-11.18c5.6602-7.9805 8.6992-17.527 8.6992-27.312.0-9.7891-3.0391-19.332-8.6992-27.316l11.18-11.258h-.003906c8.6211 11.012 13.301 24.59 13.301 38.574.0 13.98-4.6797 27.562-13.301 38.57zm-11.18-65.809c-7.9844-5.6602-17.527-8.6992-27.316-8.6992-9.7852.0-19.332 3.0391-27.316 8.6992l-11.254-11.18c11.008-8.6172 24.59-13.297 38.57-13.297 13.984.0 27.562 4.6797 38.574 13.297zm-65.809 11.18c-5.6602 7.9844-8.7031 17.527-8.7031 27.316.0 9.7852 3.043 19.332 8.7031 27.312l-11.18 11.258c-8.6172-11.008-13.301-24.59-13.301-38.57.0-13.984 4.6836-27.562 13.301-38.574zm132.96 27.316c.03125 22.336-7.9258 43.945-22.434 60.93l-11.098-11.18h-.003907c11.457-14.051 17.715-31.621 17.715-49.75s-6.2578-35.703-17.715-49.754l11.098-11.18.003906.003906c14.508 16.98 22.465 38.594 22.434 60.93zm-94.465-94.465c22.336-.03125 43.949 7.9258 60.93 22.434l-11.18 11.098.003906.003906c-14.051-11.457-31.625-17.715-49.754-17.715s-35.699 6.2578-49.75 17.715l-11.18-11.098V327.972c16.984-14.508 38.594-22.465 60.93-22.434zm-94.465 94.465c-.03125-22.336 7.9297-43.949 22.438-60.93l11.098 11.18v-.003906c-11.457 14.051-17.715 31.625-17.715 49.754s6.2578 35.699 17.715 49.75l-11.098 11.18c-14.508-16.984-22.469-38.594-22.438-60.93z"/><path d="m525.95 352.77c0 4.3477-3.5234 7.8711-7.8711 7.8711s-7.8711-3.5234-7.8711-7.8711 3.5234-7.8711 7.8711-7.8711 7.8711 3.5234 7.8711 7.8711"/></g></svg>