<svg fill="#000" width="800" height="800" viewBox="144 144 512 512" xmlns="http://www.w3.org/2000/svg"><g><path d="m234.69 573.18c-4.3477.0-7.8711-3.5234-7.8711-7.8711l-.003906-322.75h-47.23c-4.3477.0-7.8711-3.5234-7.8711-7.8711s3.5234-7.8711 7.8711-7.8711h55.105c4.3477.0 7.8711 3.5234 7.8711 7.8711v330.62c0 4.3438-3.5273 7.8711-7.8711 7.8711z"/><path d="m620.41 518.08H234.68c-4.3477.0-7.8711-3.5234-7.8711-7.8711l-.003906-220.42c0-4.3477 3.5234-7.8711 7.8711-7.8711h385.73c4.3477.0 7.8711 3.5234 7.8711 7.8711v220.42c.003906 4.3477-3.5234 7.8711-7.8711 7.8711zm-377.86-15.742h369.98v-204.67H242.55z"/><path d="m234.68 407.87h-23.617c-4.3477.0-7.8711-3.5234-7.8711-7.8711v-78.723c0-4.3477 3.5234-7.8711 7.8711-7.8711h23.617c4.3477.0 7.8711 3.5234 7.8711 7.8711v78.719c0 4.3477-3.5234 7.875-7.8711 7.875zm-15.746-15.746h7.8711v-62.977h-7.8711z"/><path d="m337.02 486.59c-47.746.0-86.594-38.844-86.594-86.594.0-47.746 38.844-86.594 86.594-86.594 47.746.0 86.594 38.844 86.594 86.594-.003906 47.75-38.848 86.594-86.594 86.594zm0-157.44c-39.062.0-70.848 31.785-70.848 70.848s31.785 70.848 70.848 70.848 70.848-31.785 70.848-70.848-31.785-70.848-70.848-70.848z"/><path d="m337.02 423.61c-13.023.0-23.617-10.594-23.617-23.617s10.594-23.617 23.617-23.617 23.617 10.594 23.617 23.617c-.003907 13.023-10.594 23.617-23.617 23.617zm0-31.488c-4.3398.0-7.8711 3.5312-7.8711 7.8711s3.5312 7.8711 7.8711 7.8711c4.3398.0 7.8711-3.5312 7.8711-7.8711.0-4.3359-3.5312-7.8711-7.8711-7.8711z"/><path d="m518.07 486.59c-47.746.0-86.594-38.844-86.594-86.594.0-47.746 38.844-86.594 86.594-86.594 47.746.0 86.594 38.844 86.594 86.594s-38.848 86.594-86.594 86.594zm0-157.44c-39.062.0-70.848 31.785-70.848 70.848s31.785 70.848 70.848 70.848 70.848-31.785 70.848-70.848-31.781-70.848-70.848-70.848z"/><path d="m565.31 557.44H289.79c-4.3477.0-7.8711-3.5234-7.8711-7.8711v-39.359c0-4.3477 3.5234-7.8711 7.8711-7.8711h275.52c4.3477.0 7.8711 3.5234 7.8711 7.8711v39.359c.003906 4.3477-3.5234 7.8711-7.8672 7.8711zm-267.65-15.742h259.78v-23.617H297.66z"/><path d="m344.89 557.44c-4.3477.0-7.8711-3.5234-7.8711-7.8711v-15.742c0-4.3477 3.5234-7.8711 7.8711-7.8711s7.8711 3.5234 7.8711 7.8711v15.742c0 4.3477-3.5234 7.8711-7.8711 7.8711z"/><path d="m4e2 557.44c-4.3477.0-7.8711-3.5234-7.8711-7.8711v-15.742c0-4.3477 3.5234-7.8711 7.8711-7.8711s7.8711 3.5234 7.8711 7.8711v15.742c0 4.3477-3.5234 7.8711-7.8711 7.8711z"/><path d="m455.1 557.44c-4.3477.0-7.8711-3.5234-7.8711-7.8711v-15.742c0-4.3477 3.5234-7.8711 7.8711-7.8711s7.8711 3.5234 7.8711 7.8711v15.742c.003906 4.3477-3.5234 7.8711-7.8711 7.8711z"/><path d="m510.2 557.44c-4.3477.0-7.8711-3.5234-7.8711-7.8711v-15.742c0-4.3477 3.5234-7.8711 7.8711-7.8711s7.8711 3.5234 7.8711 7.8711v15.742c0 4.3477-3.5234 7.8711-7.8711 7.8711z"/><path d="m337.02 392.12c-4.3477.0-7.8711-3.5234-7.8711-7.8711v-20.355l-29.18-29.18c-3.0742-3.0742-3.0742-8.0547.0-11.133 3.0742-3.0742 8.0547-3.0742 11.133.0l31.488 31.488c1.4688 1.4766 2.3008 3.4766 2.3008 5.5625v23.617c0 4.3477-3.5234 7.8711-7.8711 7.8711z"/><path d="m266.17 439.36c-2.0156.0-4.0273-.76953-5.5664-2.3047-3.0742-3.0742-3.0742-8.0547.0-11.133l31.488-31.488c1.4766-1.4766 3.4766-2.3086 5.5664-2.3086h23.617c4.3477.0 7.8711 3.5234 7.8711 7.8711s-3.5234 7.8711-7.8711 7.8711H300.92l-29.18 29.18c-1.543 1.543-3.5586 2.3125-5.5703 2.3125z"/><path d="m368.51 478.72c-2.0156.0-4.0273-.76953-5.5664-2.3047l-31.488-31.488c-1.4766-1.4766-2.3047-3.4805-2.3047-5.5664v-23.617c0-4.3477 3.5234-7.8711 7.8711-7.8711 4.3477.0 7.8711 3.5234 7.8711 7.8711v20.355l29.18 29.18c3.0742 3.0742 3.0742 8.0547.0 11.133-1.5352 1.5391-3.5508 2.3086-5.5625 2.3086z"/><path d="m376.38 407.87h-23.617c-4.3477.0-7.8711-3.5234-7.8711-7.8711s3.5234-7.8711 7.8711-7.8711h20.355l29.18-29.18c3.0742-3.0742 8.0547-3.0742 11.133.0 3.0742 3.0742 3.0742 8.0547.0 11.133l-31.488 31.488c-1.4727 1.4688-3.4766 2.3008-5.5625 2.3008z"/><path d="m518.07 423.61c-13.023.0-23.617-10.594-23.617-23.617s10.594-23.617 23.617-23.617 23.617 10.594 23.617 23.617-10.594 23.617-23.617 23.617zm0-31.488c-4.3398.0-7.8711 3.5312-7.8711 7.8711s3.5312 7.8711 7.8711 7.8711c4.3398.0 7.8711-3.5312 7.8711-7.8711.0-4.3359-3.5312-7.8711-7.8711-7.8711z"/><path d="m518.08 392.12c-4.3477.0-7.8711-3.5234-7.8711-7.8711v-20.355l-29.18-29.18c-3.0742-3.0742-3.0742-8.0547.0-11.133 3.0742-3.0742 8.0547-3.0742 11.133.0l31.488 31.488c1.4727 1.4766 2.3008 3.4766 2.3008 5.5625v23.617c0 4.3477-3.5234 7.8711-7.8711 7.8711z"/><path d="m447.23 439.36c-2.0156.0-4.0273-.76953-5.5664-2.3047-3.0742-3.0742-3.0742-8.0547.0-11.133l31.488-31.488c1.4766-1.4766 3.4805-2.3086 5.5664-2.3086h23.617c4.3477.0 7.8711 3.5234 7.8711 7.8711s-3.5234 7.8711-7.8711 7.8711H481.98l-29.18 29.18c-1.543 1.543-3.5547 2.3125-5.5703 2.3125z"/><path d="m549.56 478.72c-2.0156.0-4.0273-.76953-5.5664-2.3047l-31.488-31.488c-1.4766-1.4766-2.3047-3.4805-2.3047-5.5664v-23.617c0-4.3477 3.5234-7.8711 7.8711-7.8711 4.3477.0 7.8711 3.5234 7.8711 7.8711v20.355l29.18 29.18c3.0742 3.0742 3.0742 8.0547.0 11.133-1.5352 1.5391-3.5469 2.3086-5.5625 2.3086z"/><path d="m557.43 407.87h-23.617c-4.3477.0-7.8711-3.5234-7.8711-7.8711s3.5234-7.8711 7.8711-7.8711h20.355l29.18-29.18c3.0742-3.0742 8.0547-3.0742 11.133.0 3.0742 3.0742 3.0742 8.0547.0 11.133l-31.488 31.488c-1.4727 1.4688-3.4727 2.3008-5.5625 2.3008z"/></g></svg>