<svg fill="#000" width="800" height="800" viewBox="144 144 512 512" xmlns="http://www.w3.org/2000/svg"><g><path d="m478.72 242.56c-6.2617.0-12.27-2.4883-16.699-6.918-4.4297-4.4297-6.918-10.434-6.918-16.699.0-6.2617 2.4883-12.27 6.918-16.699 4.4297-4.4297 10.438-6.918 16.699-6.918s12.27 2.4883 16.699 6.918c4.4297 4.4297 6.918 10.438 6.918 16.699.066406 6.2852-2.3984 12.332-6.8438 16.773-4.4414 4.4453-10.488 6.9102-16.773 6.8438zm0-31.488c-3.1836.0-6.0547 1.918-7.2734 4.8594-1.2188 2.9414-.54297 6.3281 1.707 8.5781s5.6367 2.9258 8.5781 1.707c2.9414-1.2188 4.8594-4.0898 4.8594-7.2734.046875-2.1016-.76562-4.1328-2.2539-5.6172-1.4844-1.4883-3.5156-2.3008-5.6172-2.2539z"/><path d="m357.78 628.29h-55.82v-39.363h55.82zm-40.078-15.742h24.332v-7.875h-24.332z"/><path d="m498.04 628.29h-55.82v-39.363h55.82zm-40.078-15.742h24.332l.003907-7.875h-24.332z"/><path d="m4e2 360.64c-18.793.0-36.812-7.4609-50.098-20.75-13.289-13.285-20.754-31.305-20.754-50.098.0-18.789 7.4648-36.809 20.754-50.098 13.285-13.285 31.305-20.75 50.098-20.75 18.789.0 36.809 7.4648 50.098 20.75 13.285 13.289 20.75 31.309 20.75 50.098-.023437 18.785-7.4922 36.793-20.773 50.074-13.285 13.285-31.293 20.754-50.074 20.773zm0-125.95v.003906c-14.617.0-28.633 5.8047-38.965 16.137-10.336 10.336-16.141 24.352-16.141 38.965.0 14.617 5.8047 28.633 16.141 38.965 10.332 10.336 24.348 16.141 38.965 16.141 14.613.0 28.629-5.8047 38.965-16.141 10.332-10.332 16.137-24.348 16.137-38.965-.015624-14.609-5.8281-28.613-16.156-38.945-10.332-10.332-24.336-16.141-38.945-16.156z"/><path d="m4e2 565.31c-25.055.0-49.082-9.9531-66.797-27.668-17.715-17.719-27.668-41.746-27.668-66.797.0-25.055 9.9531-49.082 27.668-66.797 17.715-17.715 41.742-27.668 66.797-27.668 25.051.0 49.078 9.9531 66.793 27.668 17.719 17.715 27.668 41.742 27.668 66.797-.023438 25.043-9.9883 49.055-27.695 66.766-17.711 17.711-41.723 27.672-66.766 27.699zm0-173.18v-.003906c-20.879.0-40.902 8.2969-55.664 23.059-14.766 14.762-23.059 34.785-23.059 55.664s8.293 40.898 23.059 55.664c14.762 14.762 34.785 23.055 55.664 23.055 20.875.0 40.898-8.293 55.664-23.055 14.762-14.766 23.055-34.785 23.055-55.664-.023438-20.871-8.3242-40.883-23.082-55.641-14.758-14.758-34.766-23.059-55.637-23.082z"/><path d="m502.34 604.67H297.67c-6.2656.0-12.273-2.4883-16.699-6.918-4.4297-4.4297-6.918-10.434-6.918-16.699v-282.27c0-4.3477 3.5234-7.875 7.8711-7.875 4.3477.0 7.8711 3.5273 7.8711 7.875v282.27c0 2.0898.83203 4.0898 2.3086 5.5664 1.4727 1.4766 3.4766 2.3047 5.5664 2.3047h204.67c2.0859.0 4.0898-.82812 5.5664-2.3047 1.4766-1.4766 2.3047-3.4766 2.3047-5.5664v-152.94c0-4.3477 3.5234-7.8711 7.8711-7.8711s7.8711 3.5234 7.8711 7.8711v152.94c0 6.2656-2.4883 12.27-6.9141 16.699-4.4297 4.4297-10.438 6.918-16.699 6.918zm15.742-208.04c-4.3477.0-7.8711-3.5234-7.8711-7.8711v-193.43c0-2.0859-.82812-4.0898-2.3047-5.5664-1.4766-1.4727-3.4805-2.3047-5.5664-2.3047h-204.67c-4.3477.0-7.875 3.5234-7.875 7.8711v64.105c0 4.3438-3.5234 7.8711-7.8711 7.8711-4.3477.0-7.8711-3.5273-7.8711-7.8711v-64.105c0-6.2617 2.4883-12.27 6.918-16.699 4.4258-4.4258 10.434-6.9141 16.699-6.9141h204.67c6.2617.0 12.27 2.4883 16.699 6.9141 4.4258 4.4297 6.9141 10.438 6.9141 16.699v193.43c0 2.0859-.82812 4.0898-2.3047 5.5664-1.4766 1.4766-3.4766 2.3047-5.5664 2.3047z"/><path d="m4e2 533.82c-16.703.0-32.723-6.6367-44.531-18.445-11.812-11.812-18.445-27.828-18.445-44.531s6.6328-32.723 18.445-44.531c11.809-11.812 27.828-18.445 44.531-18.445 16.699.0 32.719 6.6328 44.531 18.445 11.809 11.809 18.445 27.828 18.445 44.531-.019531 16.695-6.6602 32.703-18.469 44.508-11.805 11.809-27.812 18.449-44.508 18.469zm0-110.21v-.003907c-12.527.0-24.543 4.9766-33.398 13.836-8.8594 8.8555-13.836 20.871-13.836 33.398s4.9766 24.539 13.836 33.398c8.8555 8.8555 20.871 13.832 33.398 13.832 12.523.0 24.539-4.9766 33.398-13.832 8.8555-8.8594 13.832-20.871 13.832-33.398-.011719-12.523-4.9922-24.531-13.848-33.387-8.8555-8.8555-20.863-13.832-33.383-13.848z"/><path d="m4e2 329.15c-10.441.0-20.453-4.1445-27.832-11.527-7.3828-7.3789-11.531-17.391-11.531-27.832.0-10.438 4.1484-20.449 11.531-27.832 7.3789-7.3789 17.391-11.527 27.832-11.527 10.438.0 20.449 4.1484 27.832 11.527 7.3789 7.3828 11.527 17.395 11.527 27.832-.011719 10.438-4.1641 20.441-11.543 27.82S410.433 329.138 4e2 329.15zm0-62.977v.003906c-6.2656.0-12.273 2.4883-16.699 6.9141-4.4297 4.4297-6.918 10.438-6.918 16.699.0 6.2656 2.4883 12.27 6.918 16.699 4.4258 4.4297 10.434 6.918 16.699 6.918 6.2617.0 12.27-2.4883 16.699-6.918 4.4258-4.4297 6.9141-10.434 6.9141-16.699.0-6.2617-2.4883-12.27-6.9141-16.699-4.4297-4.4258-10.438-6.9141-16.699-6.9141z"/></g></svg>