<svg fill="#000" width="800" height="800" viewBox="144 144 512 512" xmlns="http://www.w3.org/2000/svg"><g><path d="m588.93 203.2H211.07c-4.3477.0-7.8711 3.5234-7.8711 7.8711v377.86c0 2.0898.82812 4.0898 2.3047 5.5664 1.4766 1.4766 3.4766 2.3086 5.5664 2.3086h377.86c2.0898.0 4.0898-.83203 5.5664-2.3086 1.4766-1.4766 2.3086-3.4766 2.3086-5.5664v-377.86c0-2.0898-.83203-4.0898-2.3086-5.5664-1.4766-1.4766-3.4766-2.3047-5.5664-2.3047zm-7.8711 377.86h-362.11V218.95h362.11z"/><path d="m4e2 557.44c41.754.0 81.801-16.586 111.32-46.113 29.527-29.523 46.113-69.57 46.113-111.32.0-41.758-16.586-81.805-46.113-111.33-29.523-29.527-69.57-46.113-111.32-46.113-41.758.0-81.805 16.586-111.33 46.113-29.527 29.523-46.113 69.57-46.113 111.33.0 41.754 16.586 81.801 46.113 111.32 29.523 29.527 69.57 46.113 111.33 46.113zm0-299.14c37.578.0 73.621 14.93 100.19 41.504 26.574 26.574 41.504 62.613 41.504 100.2.0 37.578-14.93 73.621-41.504 100.19-26.57 26.574-62.613 41.504-100.19 41.504-37.582.0-73.621-14.93-100.2-41.504-26.574-26.57-41.504-62.613-41.504-100.19.0-37.582 14.93-73.621 41.504-100.2C326.374 273.23 362.413 258.3 4e2 258.3z"/><path d="m541.7 518.08c-6.2656.0-12.27 2.4883-16.699 6.918-4.4297 4.4297-6.918 10.434-6.918 16.699.0 6.2617 2.4883 12.27 6.918 16.699 4.4297 4.4297 10.434 6.918 16.699 6.918 6.2617.0 12.27-2.4883 16.699-6.918 4.4297-4.4297 6.918-10.438 6.918-16.699.0-6.2656-2.4883-12.27-6.918-16.699-4.4297-4.4297-10.438-6.918-16.699-6.918zm0 31.488c-3.1836.0-6.0547-1.918-7.2734-4.8594-1.2188-2.9414-.54297-6.3281 1.707-8.5781s5.6367-2.9258 8.5781-1.707c2.9414 1.2188 4.8594 4.0898 4.8594 7.2734.0 2.0859-.82812 4.0898-2.3047 5.5664-1.4766 1.4766-3.4805 2.3047-5.5664 2.3047z"/><path d="m258.3 565.31c6.2656.0 12.273-2.4883 16.699-6.918 4.4297-4.4297 6.918-10.438 6.918-16.699.0-6.2656-2.4883-12.27-6.918-16.699-4.4258-4.4297-10.434-6.918-16.699-6.918-6.2617.0-12.27 2.4883-16.699 6.918-4.4258 4.4297-6.9141 10.434-6.9141 16.699.0 6.2617 2.4883 12.27 6.9141 16.699 4.4297 4.4297 10.438 6.918 16.699 6.918zm0-31.488c3.1836.0 6.0547 1.918 7.2734 4.8594s.54688 6.3281-1.707 8.5781c-2.25 2.25-5.6367 2.9258-8.5781 1.707s-4.8594-4.0898-4.8594-7.2734c0-4.3477 3.5234-7.8711 7.8711-7.8711z"/><path d="m541.7 281.92c6.2617.0 12.27-2.4883 16.699-6.918 4.4297-4.4258 6.918-10.434 6.918-16.699.0-6.2617-2.4883-12.27-6.918-16.699-4.4297-4.4258-10.438-6.9141-16.699-6.9141-6.2656.0-12.27 2.4883-16.699 6.9141-4.4297 4.4297-6.918 10.438-6.918 16.699.0 6.2656 2.4883 12.273 6.918 16.699 4.4297 4.4297 10.434 6.918 16.699 6.918zm0-31.488c3.1836.0 6.0547 1.918 7.2734 4.8594 1.2188 2.9414.54297 6.3281-1.707 8.5781-2.25 2.2539-5.6367 2.9258-8.5781 1.707s-4.8594-4.0898-4.8594-7.2734c0-4.3477 3.5234-7.8711 7.8711-7.8711z"/><path d="m258.3 281.92c6.2656.0 12.273-2.4883 16.699-6.918 4.4297-4.4258 6.918-10.434 6.918-16.699.0-6.2617-2.4883-12.27-6.918-16.699-4.4258-4.4258-10.434-6.9141-16.699-6.9141-6.2617.0-12.27 2.4883-16.699 6.9141-4.4258 4.4297-6.9141 10.438-6.9141 16.699.0 6.2656 2.4883 12.273 6.9141 16.699 4.4297 4.4297 10.438 6.918 16.699 6.918zm0-31.488c3.1836.0 6.0547 1.918 7.2734 4.8594 1.2188 2.9414.54688 6.3281-1.707 8.5781-2.25 2.2539-5.6367 2.9258-8.5781 1.707s-4.8594-4.0898-4.8594-7.2734c0-4.3477 3.5234-7.8711 7.8711-7.8711z"/><path d="m281.92 407.87h79.508c1.0195 4.9141 2.9688 9.5938 5.7461 13.777l-56.207 56.207v-.003907c-1.4883 1.4805-2.3281 3.4922-2.3281 5.5898s.83984 4.1133 2.3281 5.5898c23.551 23.711 55.613 37.008 89.035 36.918 2.0859.0 4.0898-.82812 5.5664-2.3047 1.4766-1.4766 2.3047-3.4766 2.3047-5.5664v-79.508c4.9141-1.0195 9.5938-2.9688 13.777-5.7461l56.207 56.207h-.003907c1.4805 1.4883 3.4922 2.3281 5.5898 2.3281s4.1133-.83984 5.5898-2.3281c23.711-23.551 37.008-55.613 36.918-89.031.0-2.0898-.82812-4.0898-2.3047-5.5664-1.4766-1.4766-3.4766-2.3086-5.5664-2.3086h-79.508c-1.0195-4.9141-2.9688-9.5898-5.7461-13.773l56.207-56.207c1.4883-1.4766 2.3281-3.4922 2.3281-5.5898.0-2.0977-.83984-4.1094-2.3281-5.5898-23.551-23.711-55.613-37.008-89.031-36.918-4.3477.0-7.875 3.5234-7.875 7.8711v79.508c-4.9141 1.0195-9.5898 2.9688-13.773 5.7461l-56.207-56.207c-1.4766-1.4883-3.4922-2.3281-5.5898-2.3281-2.0977.0-4.1094.83984-5.5898 2.3281-23.711 23.551-37.008 55.613-36.918 89.035.0 2.0859.82812 4.0898 2.3047 5.5664 1.4766 1.4766 3.4805 2.3047 5.5664 2.3047zM4e2 376.382c6.2617.0 12.27 2.4883 16.699 6.918 4.4258 4.4258 6.9141 10.434 6.9141 16.699.0 6.2617-2.4883 12.27-6.9141 16.699-4.4297 4.4258-10.438 6.9141-16.699 6.9141-6.2656.0-12.273-2.4883-16.699-6.9141-4.4297-4.4297-6.918-10.438-6.918-16.699.0-6.2656 2.4883-12.273 6.918-16.699 4.4258-4.4297 10.434-6.918 16.699-6.918zm-72.109 106.9 50.461-50.461c4.1836 2.7773 8.8594 4.7266 13.773 5.7461v71.637c-23.777-1.7109-46.34-11.168-64.234-26.922zm155.39-11.18-50.461-50.461v.003907c2.7773-4.1836 4.7266-8.8633 5.7461-13.777h71.637c-1.7109 23.777-11.168 46.344-26.922 64.234zm-11.18-155.39-50.461 50.461h.003907c-4.1836-2.7773-8.8633-4.7266-13.777-5.7461v-71.637c23.777 1.7109 46.344 11.168 64.234 26.922zm-155.39 11.18 50.461 50.461c-2.7773 4.1836-4.7266 8.8594-5.7461 13.773h-71.637c1.7109-23.777 11.168-46.34 26.922-64.234z"/></g></svg>