<?xml version="1.0" encoding="UTF-8"?>
<svg version="1.1" xmlns="http://www.w3.org/2000/svg" width="1103" height="885">
<path d="M0 0 C0.74507812 0.16628906 1.49015625 0.33257812 2.2578125 0.50390625 C32.39224684 7.49385236 61.44673907 24.87044396 81 49 C82.15628906 50.39992188 82.15628906 50.39992188 83.3359375 51.828125 C109.71638186 84.44049375 117.80076124 123.7942454 114.7890625 164.87744141 C114.26864884 169.70605222 113.25991733 174.30394448 112 179 C111.80664062 179.763125 111.61328125 180.52625 111.4140625 181.3125 C101.66511414 219.34543436 77.49601447 252.0657205 43.73217773 272.24902344 C40.86029058 273.90860587 37.93777398 275.46069814 35 277 C33.85402344 277.60585938 32.70804688 278.21171875 31.52734375 278.8359375 C-1.73539908 295.7371057 -42.19425881 297.31827375 -77.55859375 286.52734375 C-87.41490313 283.28591849 -96.73933007 278.63033496 -106 274 C-106 316.57 -106 359.14 -106 403 C-130.42 403 -154.84 403 -180 403 C-180.08835832 368.19667804 -180.1621467 333.39346588 -180.20426132 298.59006532 C-180.20926351 294.47125754 -180.21444086 290.35245 -180.21972656 286.23364258 C-180.2207758 285.41374142 -180.22182505 284.59384026 -180.22290608 283.74909361 C-180.24026079 270.51333052 -180.27177094 257.27763768 -180.30861118 244.04191611 C-180.34615856 230.4375998 -180.36826484 216.83332001 -180.37635398 203.22895402 C-180.38181332 194.84985077 -180.39898804 186.47094616 -180.43166587 178.09190413 C-180.4529846 172.32813673 -180.45916132 166.56447041 -180.45400551 160.80066655 C-180.45147028 157.48654198 -180.45732 154.17303645 -180.4768219 150.85892868 C-180.6899862 112.73249692 -170.94250044 78.58996365 -146 49 C-145.53207031 48.44248047 -145.06414062 47.88496094 -144.58203125 47.31054688 C-138.38872659 40.03298019 -131.60261076 33.78625025 -124 28 C-123.15050781 27.33484375 -122.30101562 26.6696875 -121.42578125 25.984375 C-103.66851431 12.50053104 -82.8494521 3.32437073 -61 -1 C-59.329375 -1.33644531 -59.329375 -1.33644531 -57.625 -1.6796875 C-38.78879637 -4.80478492 -18.61082368 -4.19073512 0 0 Z M-82 91 C-82.70769531 91.62648438 -83.41539063 92.25296875 -84.14453125 92.8984375 C-97.75460921 105.64975337 -105.01590304 123.92308101 -105.99121094 142.31665039 C-106.55088699 161.8773284 -99.6154588 179.22513834 -87 194 C-86.45988281 194.65226562 -85.91976562 195.30453125 -85.36328125 195.9765625 C-73.21413438 209.38040716 -53.92168986 216.93582894 -36.26953125 218.28515625 C-14.96194893 218.79300536 4.09734681 211.03367942 19.5859375 196.50390625 C34.24073142 181.30370738 41 162.96942127 41 142 C39.80088253 124.51911567 33.42812475 109.23900534 22 96 C21.42894531 95.33355469 20.85789062 94.66710937 20.26953125 93.98046875 C11.29595755 84.27982511 -0.48970598 77.89209147 -13 74 C-13.76957031 73.75507812 -14.53914063 73.51015625 -15.33203125 73.2578125 C-39.01306365 67.20276744 -64.19479386 74.90384506 -82 91 Z " fill="#00CF6A" transform="translate(180,482)"/>
<path d="M0 0 C33.58922665 -0.08822304 67.17834064 -0.16206379 100.76764833 -0.20426132 C104.73539857 -0.209264 108.70314856 -0.2144413 112.67089844 -0.21972656 C113.46078825 -0.2207758 114.25067806 -0.22182505 115.06450392 -0.22290608 C127.84534264 -0.24029957 140.62610921 -0.27183142 153.40690516 -0.30861118 C166.52639292 -0.34605004 179.64584295 -0.36824207 192.76538193 -0.37635398 C200.85738592 -0.38183566 208.94918596 -0.39913349 217.04112716 -0.43166587 C223.25163689 -0.45535861 229.46199192 -0.45781241 235.67254066 -0.45243073 C238.21619356 -0.45353005 240.75985426 -0.46147174 243.30346107 -0.4768219 C246.78159919 -0.49678004 250.25887105 -0.49191699 253.73703003 -0.48101807 C254.73900291 -0.49266943 255.7409758 -0.5043208 256.7733115 -0.51632524 C267.7227048 -0.42385213 276.52357132 3.7588572 284.5625 11.125 C291.86214441 18.61886999 294.18800148 27.33408026 294.375 37.5 C294.41238281 38.23992188 294.44976562 38.97984375 294.48828125 39.7421875 C294.66543627 51.27694779 288.54997307 60.39398268 281.5625 69.0625 C280.12488156 70.89602251 278.68871107 72.73068113 277.25390625 74.56640625 C276.53734863 75.47664551 275.82079102 76.38688477 275.08251953 77.32470703 C271.97077291 81.3221888 268.9833618 85.40632974 266 89.5 C260.41540359 97.12885073 254.70719991 104.6564936 248.9609375 112.1640625 C244.57935674 117.89902727 240.26457042 123.67759563 236 129.5 C230.4133758 137.12740017 224.70723662 144.65644565 218.9609375 152.1640625 C214.57935674 157.89902727 210.26457042 163.67759563 206 169.5 C200.4133758 177.12740017 194.70723662 184.65644565 188.9609375 192.1640625 C184.57935674 197.89902727 180.26457042 203.67759563 176 209.5 C170.4133758 217.12740017 164.70723662 224.65644565 158.9609375 232.1640625 C153.99603718 238.66252276 149.12871927 245.22650694 144.29785156 251.82495117 C139.24339892 258.71132 134.07148289 265.50484487 128.85546875 272.26953125 C123.38198329 279.39991732 118.23675695 286.66854027 113 294 C173.06 294 233.12 294 295 294 C295 318.75 295 343.5 295 369 C261.55518915 369.08823682 228.11049156 369.16207226 194.66559927 369.20426132 C190.71415907 369.20926395 186.76271912 369.21444125 182.8112793 369.21972656 C181.63132397 369.22130043 181.63132397 369.22130043 180.42753116 369.22290608 C167.70233329 369.24029561 154.97720794 369.27182526 142.25205304 369.30861118 C129.18793109 369.34606109 116.12384703 369.3682444 103.05967361 369.37635398 C95.00298793 369.38183337 86.94650729 369.39911872 78.88988475 369.43166587 C72.70460636 369.45537529 66.5194832 369.45780963 60.33416557 369.45243073 C57.80222056 369.45352926 55.27026764 369.46146038 52.73836899 369.4768219 C49.27371739 369.49680782 45.80993351 369.49190697 42.34526062 369.48101807 C41.35009153 369.49266943 40.35492243 369.5043208 39.3295967 369.51632524 C27.83189692 369.4190675 18.47044918 365.38037332 10.31640625 357.33984375 C3.38629067 349.75300899 0.07856635 341.09716064 -0.03515625 330.82421875 C0.55109135 318.65600629 4.86381524 310.45148095 12.375 301.0625 C13.82170264 299.21072062 15.26698851 297.35783362 16.7109375 295.50390625 C17.4337793 294.58109863 18.15662109 293.65829102 18.90136719 292.70751953 C22.01189086 288.69452424 25.00866512 284.60216739 28 280.5 C33.58483965 272.87132291 39.29279558 265.34351229 45.0390625 257.8359375 C49.42064326 252.10097273 53.73542958 246.32240437 58 240.5 C63.5866242 232.87259983 69.29276338 225.34355435 75.0390625 217.8359375 C79.42064326 212.10097273 83.73542958 206.32240437 88 200.5 C93.5866242 192.87259983 99.29276338 185.34355435 105.0390625 177.8359375 C109.42064326 172.10097273 113.73542958 166.32240437 118 160.5 C123.5866242 152.87259983 129.29276338 145.34355435 135.0390625 137.8359375 C140.0045898 131.3366566 144.87178773 124.77132493 149.7043457 118.17285156 C154.73473087 111.32108315 159.87647046 104.55745222 165.05664062 97.81835938 C170.82636866 90.29289039 176.38672315 82.65446843 182 75 C91.91 74.505 91.91 74.505 0 74 C0 49.58 0 25.16 0 0 Z " fill="#0033C9" transform="translate(0,0)"/>
<path d="M0 0 C24.75 0 49.5 0 75 0 C75 72.93 75 145.86 75 221 C86.88 221 98.76 221 111 221 C111 245.75 111 270.5 111 296 C50.36521739 296 50.36521739 296 26.3671875 273.37890625 C15 261.95544554 15 261.95544554 15 259 C14.51273438 259.38929688 14.02546875 259.77859375 13.5234375 260.1796875 C11.03377352 262.14425871 8.52053265 264.075167 6 266 C4.49179687 267.15822266 4.49179687 267.15822266 2.953125 268.33984375 C-27.05484877 290.87508478 -63.28878278 299.91573794 -100.54052734 295.28149414 C-122.44410747 291.96512358 -143.13493162 282.97405542 -161 270 C-161.79148437 269.4328125 -162.58296875 268.865625 -163.3984375 268.28125 C-176.57683929 258.29893901 -188.21872434 246.00203408 -197 232 C-197.35497559 231.43603516 -197.70995117 230.87207031 -198.07568359 230.29101562 C-219.79936789 195.22121142 -226.8307232 152.59683892 -217.38183594 112.36816406 C-208.05032119 74.75686228 -185.57965498 40.98993248 -152.21508789 20.56689453 C-130.07788824 7.45730422 -106.78755919 0.55527598 -81 0.625 C-80.27588928 0.62521149 -79.55177856 0.62542297 -78.8057251 0.62564087 C-66.82829439 0.66045419 -55.54663341 1.68735199 -44 5 C-43.33452148 5.18191895 -42.66904297 5.36383789 -41.98339844 5.55126953 C-26.7371207 9.80153978 -13.25723704 17.56357643 0 26 C0 17.42 0 8.84 0 0 Z M-127 99 C-127.66773438 99.63421875 -128.33546875 100.2684375 -129.0234375 100.921875 C-140.99650088 113.16582216 -146.28288672 131.77722853 -146.5 148.5 C-146.250957 169.26055961 -138.11279193 186.58837274 -123.625 201.43359375 C-108.02021285 216.26314307 -89.27042427 221.60472962 -68.17578125 221.26953125 C-49.26016586 220.56715885 -32.8299741 211.38011082 -20 198 C-19.31292969 197.29746094 -18.62585938 196.59492188 -17.91796875 195.87109375 C-6.89295197 183.98136977 -1.53253182 168.98515829 0 153 C0.0721875 152.26910156 0.144375 151.53820312 0.21875 150.78515625 C1.13064744 130.98938273 -7.05439207 112.48814643 -20 98 C-33.84887208 83.26133218 -52.86649871 75.42675635 -73 74.75 C-94.38522031 75.46883093 -112.14916341 84.01774008 -127 99 Z " fill="#0033C9" transform="translate(543,73)"/>
<path d="M0 0 C0.33 -8.25 0.66 -16.5 1 -25 C25.75 -25 50.5 -25 76 -25 C76 47.93 76 120.86 76 196 C87.88 196 99.76 196 112 196 C112 220.75 112 245.5 112 271 C75.81311558 271 49.21438625 269.66028354 23.625 244.875 C20.61548818 241.79238263 18.21407031 238.69011719 16 235 C12.40335195 235.58087458 10.8056298 236.89720398 8.25 239.4375 C-17.85554772 263.35686885 -54.48209998 272.28266905 -89 271 C-122.97769353 268.9301798 -152.88159374 253.25057755 -177 230 C-177.96486328 229.11248047 -177.96486328 229.11248047 -178.94921875 228.20703125 C-205.18172371 203.44207902 -219.01181313 164.97791965 -220.28125 129.59765625 C-221.184298 87.01957015 -207.19832535 47.25560978 -177.61743164 16.26586914 C-129.8603941 -32.24115623 -55.88438239 -37.25625492 0 0 Z M-119 67 C-119.63292969 67.46921875 -120.26585937 67.9384375 -120.91796875 68.421875 C-133.19448278 77.97339621 -141.59843405 94.28750198 -144.5625 109.3671875 C-147.29606182 132.0655133 -142.77117369 151.72775737 -128.6875 169.875 C-116.09260237 184.3334284 -99.05416789 193.65611508 -80 196 C-59.71995834 197.34758447 -40.93854636 192.43675729 -25.23828125 179.0234375 C-24.49964844 178.35570312 -23.76101563 177.68796875 -23 177 C-22.29230469 176.37351562 -21.58460938 175.74703125 -20.85546875 175.1015625 C-6.72071122 161.85867303 0.51924914 142.59483782 1.25 123.5 C0.95696475 102.33634302 -8.09014075 83.78663727 -23 69 C-37.08339748 55.61956039 -56.01396939 49.58595307 -75.1875 49.7890625 C-91.85687356 50.71134341 -106.07984968 56.59621284 -119 67 Z " fill="#00CF6A" transform="translate(542,504)"/>
<path d="M0 0 C2.44006303 2.16730674 4.83460288 4.37257604 7.2109375 6.609375 C8.11199219 7.43115234 8.11199219 7.43115234 9.03125 8.26953125 C32.85141967 30.81559882 49.01916462 66.9968099 50.33740234 99.75170898 C50.67270874 115.20677113 50.77134238 130.48466293 47.2109375 145.609375 C47.04464844 146.31771484 46.87835937 147.02605469 46.70703125 147.75585938 C37.63417886 184.75293525 13.45888948 217.95169601 -18.95410156 237.94482422 C-54.19678894 259.07054281 -95.70052752 265.37119574 -135.65625 255.42578125 C-173.93990628 245.22579301 -206.28976445 219.78313233 -226.31542969 185.7578125 C-246.06577153 151.34005952 -250.86541658 110.68120042 -240.78833008 72.40209961 C-229.99893909 33.98708646 -204.7551112 1.89489428 -170.1640625 -18.078125 C-115.41085146 -48.54776862 -47.14205916 -40.40747928 0 0 Z M-130.7890625 46.609375 C-131.62953125 47.05152344 -132.47 47.49367188 -133.3359375 47.94921875 C-139.95348599 51.65874515 -145.38806818 56.3089068 -150.7890625 61.609375 C-151.41683594 62.21265625 -152.04460937 62.8159375 -152.69140625 63.4375 C-165.71362603 77.0207678 -171.19460123 96.4265192 -171 114.796875 C-169.83126688 135.92064402 -160.61457422 152.60643124 -145.64453125 167.1015625 C-129.84257678 180.9796128 -110.86951723 185.92070932 -90.23876953 184.81640625 C-70.0601183 183.11105482 -52.8993156 172.40252592 -39.8515625 157.2578125 C-26.75355483 140.43877993 -22.61985909 120.23133434 -25.05712891 99.30810547 C-28.15077616 80.40929009 -39.3426719 63.25027596 -54.7890625 52.109375 C-77.25266212 36.64223482 -106.41245403 33.48638486 -130.7890625 46.609375 Z " fill="#0033C9" transform="translate(1052.7890625,109.390625)"/>
<path d="M0 0 C26.73 0 53.46 0 81 0 C85.95 12.21 90.9 24.42 96 37 C98.80450714 43.8826108 101.60917123 50.76506669 104.42105103 57.64465332 C106.50586463 62.7456827 108.58873699 67.84750492 110.671875 72.94921875 C111.32021049 74.5368956 111.32021049 74.5368956 111.98164368 76.15664673 C116.62667654 87.53265567 121.26583193 98.91105781 125.90267944 110.29040527 C126.83840844 112.58661459 127.77429972 114.88275777 128.71035767 117.17883301 C133.37517614 128.62131781 138.03310296 140.06637275 142.65234375 151.52734375 C143.35830955 153.27702126 144.06428261 155.02669584 144.77026367 156.77636719 C146.05424492 159.95907326 147.33377299 163.14351798 148.6105957 166.32910156 C149.17253947 167.72336749 149.73462307 169.11757706 150.296875 170.51171875 C150.77479492 171.70240967 151.25271484 172.89310059 151.74511719 174.11987305 C152.94958726 177.11523854 152.94958726 177.11523854 155 180 C155.23485107 179.44783813 155.46970215 178.89567627 155.71166992 178.32678223 C169.5569702 145.77722115 183.44881706 113.24810089 197.39312744 80.74081421 C201.14266121 71.99979972 204.8902438 63.25795082 208.63671875 54.515625 C208.91045507 53.8768681 209.1841914 53.23811119 209.46622276 52.57999802 C210.82500948 49.40927897 212.18376779 46.23854775 213.54251099 43.06781006 C216.03077377 37.26127923 218.51930847 31.45486494 221.0078125 25.6484375 C221.83740355 23.71272838 222.66699344 21.77701876 223.49658203 19.84130859 C226.33105469 13.22753906 229.16552734 6.61376953 232 0 C259.06 0 286.12 0 314 0 C310.62512803 10.12461591 310.62512803 10.12461591 308.8371582 14.27368164 C308.23149773 15.68666283 308.23149773 15.68666283 307.61360168 17.12818909 C306.96375557 18.62901283 306.96375557 18.62901283 306.30078125 20.16015625 C305.6065229 21.77584755 305.6065229 21.77584755 304.89823914 23.42417908 C303.37300109 26.97173436 301.84271453 30.5170888 300.3125 34.0625 C299.23159994 36.57321443 298.15188928 39.08443962 297.07226562 41.59570312 C295.11203521 46.15446159 293.15066726 50.7127271 291.18778801 55.27034569 C286.2699269 66.68963167 281.37368319 78.1181591 276.47885132 89.54733276 C273.98688665 95.36531098 271.49335855 101.18261905 269 107 C267.99999264 109.33333018 266.99999263 111.66666351 266 114 C227 205 227 205 188 296 C187.50511078 297.15474319 187.01022156 298.30948639 186.50033569 299.4992218 C185.49922163 301.83515123 184.49810264 304.17107856 183.49697876 306.50700378 C181.01398389 312.30059963 178.53107143 318.09423077 176.04833984 323.88793945 C171.34559032 334.86204067 166.64195349 345.83575963 161.93560791 356.80831909 C159.97535757 361.37854192 158.01549927 365.94893283 156.05572891 370.5193615 C154.71538264 373.64513067 153.37480573 376.77080051 152.03369141 379.89624023 C150.55577174 383.34075033 149.07858848 386.78557536 147.6015625 390.23046875 C147.16317047 391.25166306 146.72477844 392.27285736 146.27310181 393.32499695 C145.86925262 394.26728653 145.46540344 395.20957611 145.04931641 396.18041992 C144.69978912 396.99524338 144.35026184 397.81006683 143.99014282 398.64958191 C142.96325387 401.08722859 141.98237027 403.54407433 141 406 C113.94 406 86.88 406 59 406 C62.37504615 395.87486155 62.37504615 395.87486155 64.07104492 391.90991211 C64.45469711 391.00819275 64.8383493 390.10647339 65.23362732 389.1774292 C65.64508499 388.220401 66.05654266 387.2633728 66.48046875 386.27734375 C67.14279259 384.72518158 67.14279259 384.72518158 67.8184967 383.1416626 C69.27152518 379.73885159 70.72956503 376.33821132 72.1875 372.9375 C73.2050814 370.5558859 74.22232844 368.17412891 75.23925781 365.79223633 C80.44690969 353.60188001 85.67659188 341.42103886 90.91611671 329.24435234 C91.7482813 327.30995043 92.5800044 325.37535939 93.4115448 323.44068909 C93.68251763 322.81024909 93.95349047 322.17980909 94.2326746 321.53026485 C94.77414224 320.27045339 95.31558216 319.01063 95.85699368 317.75079441 C97.68963186 313.48750216 99.5282316 309.22680875 101.36791992 304.96655273 C102.3339861 302.72126217 103.29989591 300.47590432 104.265625 298.23046875 C104.70213882 297.22332825 105.13865265 296.21618774 105.58839417 295.17852783 C106.75362824 292.46309504 107.87794771 289.73347566 109 287 C109.35480942 286.22312332 109.70961884 285.44624664 110.07518005 284.64582825 C112.26906491 279.34379849 112.01475768 276.17614751 109.85215759 270.88793945 C109.46910965 270.03417725 109.08606171 269.18041504 108.69140625 268.30078125 C108.30348404 267.37378418 107.91556183 266.44678711 107.5158844 265.49169922 C106.223961 262.42028093 104.89306265 259.36735359 103.5625 256.3125 C102.63800826 254.13111476 101.7166834 251.94838498 100.79833984 249.7644043 C98.86239476 245.16616002 96.913629 240.5736586 94.95654297 235.984375 C90.68106006 225.92490923 86.58559305 215.79267208 82.48266602 205.66192627 C80.19530593 200.01890076 77.89579649 194.38082919 75.59765625 188.7421875 C74.66939123 186.4632334 73.74116872 184.18426198 72.81298828 181.90527344 C69.95841281 174.89735594 67.10233397 167.89005162 64.24609375 160.8828125 C55.98056765 140.60370462 47.71758455 120.32369663 39.49960327 100.02526855 C34.41649246 87.47184991 29.30384114 74.93059232 24.18353271 62.39230347 C22.89020119 59.22473012 21.5975812 56.05686733 20.30517578 52.88891602 C16.81878805 44.34430225 13.33224061 35.79983645 9.82070923 27.26551819 C8.57782864 24.24351465 7.33864565 21.22000388 6.10015869 18.19619751 C5.5390426 16.82917949 4.97605145 15.46292943 4.41107178 14.09750366 C3.64960361 12.25702466 2.89490162 10.41375047 2.140625 8.5703125 C1.72329102 7.55727051 1.30595703 6.54422852 0.87597656 5.50048828 C0 3 0 3 0 0 Z " fill="#00CF6A" transform="translate(645,479)"/>
<path d="M0 0 C24.75 0 49.5 0 75 0 C75 97.02 75 194.04 75 294 C87.21 294 99.42 294 112 294 C112 318.75 112 343.5 112 369 C62.42231279 369 62.42231279 369 48.4375 361.125 C47.78313965 360.77622803 47.1287793 360.42745605 46.45458984 360.06811523 C44.61805568 359.074143 42.80583469 358.04849785 41 357 C39.69095703 356.24009766 39.69095703 356.24009766 38.35546875 355.46484375 C18.90822277 343.23794129 6.81244839 323.83918387 1.69140625 301.81640625 C0.18470933 293.49977977 -0.14264875 285.38975694 -0.12025452 276.94615173 C-0.12110894 275.75831528 -0.12196337 274.57047882 -0.12284368 273.34664732 C-0.12419985 270.07191171 -0.12109808 266.79721625 -0.11606562 263.52248538 C-0.11172912 259.98273323 -0.11320981 256.44298281 -0.1139679 252.90322876 C-0.11449111 246.77775064 -0.11136551 240.65228321 -0.10573006 234.52680779 C-0.09758756 225.67050419 -0.09499702 216.81420574 -0.09374207 207.9578988 C-0.09155587 193.58757089 -0.08490749 179.21724866 -0.07543945 164.84692383 C-0.06625416 150.89119495 -0.05917879 136.93546762 -0.05493164 122.97973633 C-0.05466892 122.11885912 -0.05440619 121.25798191 -0.05413551 120.37101751 C-0.05283043 116.05205664 -0.05156673 111.73309575 -0.05032361 107.41413486 C-0.03996444 71.60941818 -0.02153338 35.80471204 0 0 Z " fill="#0033C9" transform="translate(681,0)"/>
</svg>
