<?xml version="1.0" encoding="UTF-8"?>
<svg version="1.1" xmlns="http://www.w3.org/2000/svg" width="3405" height="3167">
<path d="M0 0 C1.07399048 0.76038574 1.07399048 0.76038574 2.16967773 1.53613281 C7.96039394 5.64328201 13.71523478 9.79790459 19.4375 14 C25.72313576 10.5643187 31.5756437 6.58167943 37.5 2.5625 C110.05116545 -46.14016354 194.12965003 -77.74133352 311.4375 -93 C312.72720703 -93.08612549 314.01691406 -93.17225098 315.34570312 -93.26098633 C326.54624576 -93.96666125 337.71628055 -94.20191458 348.9375 -94.1875 C349.82012512 -94.18689575 350.70275024 -94.1862915 351.61212158 -94.18566895 C437.24760503 -94.02845871 522.25162564 -77.04481278 658.4375 -8 C659.13278809 -7.53883789 659.82807617 -7.07767578 660.54443359 -6.60253906 C679.57774154 6.10436968 698.05029463 19.98164763 714.8125 35.5859375 C716.85395973 37.46335136 718.92133179 39.27187812 721.02734375 41.07421875 C726.06352789 45.46655575 730.77051931 50.18281839 735.4831543 54.9152832 C736.9974258 56.43491668 738.5169743 57.94912517 740.03710938 59.46289062 C745.38061876 64.80241915 750.55501375 70.2311124 755.4375 76 C756.31444091 77.00969102 757.19200461 78.01884161 758.0703125 79.02734375 C765.54615089 87.75696695 772.56159985 96.79229046 779.4375 106 C779.97665039 106.71816895 780.51580078 107.43633789 781.07128906 108.17626953 C794.76495679 126.48527144 806.30784643 146.05448926 817.4375 166 C817.80681641 166.65597168 818.17613281 167.31194336 818.55664062 167.98779297 C857.60859075 237.59808073 876.62994549 319.24049459 884.1875 405.3125 C884.27638489 406.38383179 884.27638489 406.38383179 884.36706543 407.47680664 C886.39578339 432.42670703 886.58483203 457.38323059 886.55976619 482.39712362 C886.55628415 487.00625586 886.55871175 491.61538597 886.56034368 496.22451872 C886.56240339 504.27830906 886.56079785 512.33209196 886.55670547 520.38588142 C886.55063742 532.36132487 886.55037272 544.33676368 886.55124746 556.31220838 C886.55255744 576.46280507 886.5492349 596.61339848 886.54323006 616.76399422 C886.53730374 636.70239338 886.53346224 656.64079117 886.53237724 676.57919121 C886.5323085 677.82102578 886.53223976 679.06286035 886.53216894 680.34232627 C886.53183059 686.64952259 886.53152921 692.95671891 886.53124207 699.26391523 C886.52914421 743.88452184 886.5224148 788.50512687 886.51293945 833.12573242 C886.51064767 843.92773437 886.50837225 854.72973632 886.50616455 865.53173828 C886.5060276 866.2017345 886.50589065 866.87173073 886.50574955 867.56202986 C886.49939906 898.74034097 886.4956886 929.91865222 886.49263173 961.0969638 C886.49243116 963.13839924 886.49222886 965.17983468 886.49202599 967.22127012 C886.48968888 990.74783794 886.48751168 1014.27440578 886.48538104 1037.80097362 C886.47600198 1140.20065077 886.45592936 1242.60032326 886.4375 1345 C748.4975 1345 610.5575 1345 468.4375 1345 C468.40011719 1278.37480469 468.36273437 1211.74960938 468.32421875 1143.10546875 C468.29576267 1103.50528033 468.26710388 1063.90509415 468.23468363 1024.30490911 C468.21511056 1000.37779858 468.19570517 976.45068793 468.17672418 952.52357692 C468.17505288 950.41891884 468.17337646 948.31426076 468.17169879 946.20960268 C468.14603818 913.99408682 468.12286594 881.77857165 468.10705566 849.56304932 C468.1067158 848.87063181 468.10637594 848.17821431 468.10602577 847.46481446 C468.1005618 836.30149095 468.09531045 825.13816734 468.09008733 813.97484371 C468.07503395 781.80831275 468.05839993 749.64178609 468.03137684 717.47526264 C468.03054385 716.48235655 468.03054385 716.48235655 468.02969403 715.46939175 C468.0180218 701.58851244 468.00567565 687.70763382 467.99250887 673.82675585 C467.9863467 667.32557264 467.98029621 660.82438933 467.97431374 654.32320595 C467.97313285 653.04368964 467.97195197 651.76417333 467.97073531 650.4458838 C467.95201951 629.8556918 467.94360003 609.26550785 467.93903876 588.67530838 C467.93423226 567.97128968 467.91855979 547.26730171 467.89183434 526.5632995 C467.87628876 514.26525414 467.86903604 501.96726943 467.87373071 489.6692148 C467.87604732 481.44741839 467.86747615 473.22567917 467.85017589 465.00390078 C467.8406355 460.32354288 467.83571125 455.64331137 467.84410437 450.96294834 C468.12256492 419.71900212 468.12256492 419.71900212 461.3125 389.375 C460.86245605 388.07453735 460.86245605 388.07453735 460.40332031 386.74780273 C450.42950117 358.99445634 431.25666111 336.80909266 404.69238281 323.77075195 C393.59356462 318.58001442 381.633447 314.46732487 369.4375 313 C368.550625 312.89042969 367.66375 312.78085938 366.75 312.66796875 C335.07173718 309.29315382 304.48746747 317.36796838 279.25 336.875 C254.70211999 357.33817623 241.07719968 385.44387747 237.4375 417 C237.16662968 422.36592119 237.16169013 427.72185398 237.17578697 433.09254169 C237.1725934 434.69033224 237.16852791 436.28812124 237.16367769 437.88590762 C237.15290094 442.26164354 237.1544299 446.63730025 237.15802841 451.01304473 C237.15974009 455.77900025 237.14986373 460.54493434 237.14147437 465.31088084 C237.12836767 473.65860851 237.12261751 482.00631595 237.12171364 490.3540535 C237.12033614 502.76678012 237.10754377 515.17947674 237.0924259 527.5921933 C237.06731641 548.47356143 237.05144431 569.35492702 237.04084396 590.23630714 C237.03031868 610.91031248 237.01568333 631.58430819 236.99556351 652.2583065 C236.99369021 654.1867608 236.99369021 654.1867608 236.99177906 656.15417376 C236.98541527 662.68331904 236.9789781 669.21246424 236.97251268 675.74160942 C236.95940423 689.01751871 236.94694215 702.29342862 236.93476295 715.5693388 C236.93384822 716.56560432 236.93384822 716.56560432 236.93291502 717.58199642 C236.90331914 749.8763567 236.88104502 782.17072148 236.859375 814.46508789 C236.85185262 825.66945398 236.84429784 836.87382005 236.83660889 848.07818604 C236.83613204 848.7730988 236.83565519 849.46801157 236.83516389 850.1839823 C236.81294695 882.49605754 236.78550358 914.80812772 236.75675865 947.12019774 C236.75487833 949.23478185 236.75300144 951.34936597 236.75112569 953.46395009 C236.72950812 977.83208145 236.70757337 1002.20021253 236.68554622 1026.56834353 C236.58980864 1132.71222139 236.51528959 1238.85610438 236.4375 1345 C98.4975 1345 -39.4425 1345 -181.5625 1345 C-181.59988281 1278.37480469 -181.63726563 1211.74960938 -181.67578125 1143.10546875 C-181.70423733 1103.50528033 -181.73289612 1063.90509415 -181.76531637 1024.30490911 C-181.78488944 1000.37779858 -181.80429483 976.45068793 -181.82327582 952.52357692 C-181.82494712 950.41891884 -181.82662354 948.31426076 -181.82830121 946.20960268 C-181.85396182 913.99408682 -181.87713406 881.77857165 -181.89294434 849.56304932 C-181.8932842 848.87063181 -181.89362406 848.17821431 -181.89397423 847.46481446 C-181.8994382 836.30149095 -181.90468955 825.13816734 -181.90991267 813.97484371 C-181.92496605 781.80831275 -181.94160007 749.64178609 -181.96862316 717.47526264 C-181.96917849 716.81332525 -181.96973382 716.15138785 -181.97030597 715.46939175 C-181.9819782 701.58851244 -181.99432435 687.70763382 -182.00749113 673.82675585 C-182.0136533 667.32557264 -182.01970379 660.82438933 -182.02568626 654.32320595 C-182.02686715 653.04368964 -182.02804803 651.76417333 -182.02926469 650.4458838 C-182.04798049 629.8556918 -182.05639997 609.26550785 -182.06096124 588.67530838 C-182.06576774 567.97128968 -182.08144021 547.26730171 -182.10816566 526.5632995 C-182.12371124 514.26525414 -182.13096396 501.96726943 -182.12626929 489.6692148 C-182.12395268 481.44741839 -182.13252385 473.22567917 -182.14982411 465.00390078 C-182.1593645 460.32354288 -182.16428875 455.64331137 -182.15589563 450.96294834 C-181.87743508 419.71900212 -181.87743508 419.71900212 -188.6875 389.375 C-189.13754395 388.07453735 -189.13754395 388.07453735 -189.59667969 386.74780273 C-199.57049883 358.99445634 -218.74333889 336.80909266 -245.30761719 323.77075195 C-256.40643538 318.58001442 -268.366553 314.46732487 -280.5625 313 C-281.8928125 312.83564453 -281.8928125 312.83564453 -283.25 312.66796875 C-314.92826282 309.29315382 -345.51253253 317.36796838 -370.75 336.875 C-395.29788001 357.33817623 -408.92280032 385.44387747 -412.5625 417 C-412.83337032 422.36592119 -412.83830987 427.72185398 -412.82421303 433.09254169 C-412.8274066 434.69033224 -412.83147209 436.28812124 -412.83632231 437.88590762 C-412.84709906 442.26164354 -412.8455701 446.63730025 -412.84197159 451.01304473 C-412.84025991 455.77900025 -412.85013627 460.54493434 -412.85852563 465.31088084 C-412.87163233 473.65860851 -412.87738249 482.00631595 -412.87828636 490.3540535 C-412.87966386 502.76678012 -412.89245623 515.17947674 -412.9075741 527.5921933 C-412.93268359 548.47356143 -412.94855569 569.35492702 -412.95915604 590.23630714 C-412.96968132 610.91031248 -412.98431667 631.58430819 -413.00443649 652.2583065 C-413.00568536 653.5439427 -413.00693423 654.8295789 -413.00822094 656.15417376 C-413.01458473 662.68331904 -413.0210219 669.21246424 -413.02748732 675.74160942 C-413.04059577 689.01751871 -413.05305785 702.29342862 -413.06523705 715.5693388 C-413.06584687 716.23351581 -413.06645669 716.89769283 -413.06708498 717.58199642 C-413.09668086 749.8763567 -413.11895498 782.17072148 -413.140625 814.46508789 C-413.14814738 825.66945398 -413.15570216 836.87382005 -413.16339111 848.07818604 C-413.16386796 848.7730988 -413.16434481 849.46801157 -413.16483611 850.1839823 C-413.18705305 882.49605754 -413.21449642 914.80812772 -413.24324135 947.12019774 C-413.24512167 949.23478185 -413.24699856 951.34936597 -413.24887431 953.46395009 C-413.27049188 977.83208145 -413.29242663 1002.20021253 -413.31445378 1026.56834353 C-413.41019136 1132.71222139 -413.48471041 1238.85610438 -413.5625 1345 C-551.5025 1345 -689.4425 1345 -831.5625 1345 C-831.64325728 1119.61987738 -831.64325728 1119.61987738 -831.65882993 1033.1600374 C-831.66303584 1009.86764689 -831.66735446 986.5752564 -831.67195851 963.28286596 C-831.67236231 961.23418907 -831.67276266 959.18551219 -831.67316218 957.1368353 C-831.67928535 925.80358402 -831.68707435 894.47033431 -831.6998291 863.13708496 C-831.7001029 862.46439452 -831.7003767 861.79170407 -831.70065879 861.09862907 C-831.70508297 850.25438246 -831.70965041 839.4101359 -831.71423688 828.56588936 C-831.73345406 783.12131228 -831.74621739 737.67673736 -831.75032998 692.23215598 C-831.75090623 685.89837403 -831.7515575 679.5645921 -831.75225449 673.23081017 C-831.75238933 671.98431993 -831.75252418 670.7378297 -831.75266311 669.45356704 C-831.75501987 649.44714179 -831.7642779 629.4407255 -831.77616407 609.4343039 C-831.78798576 589.2856106 -831.7924242 569.13692612 -831.78950275 548.98822949 C-831.78798999 537.0405718 -831.79196135 525.09294654 -831.80409509 513.14529475 C-831.8116697 505.13409773 -831.81177555 497.12292162 -831.80616363 489.11172308 C-831.80318293 484.56642107 -831.80310957 480.0211798 -831.81226636 475.47588465 C-831.8715522 444.1903866 -830.87358572 412.9812238 -827.3125 381.875 C-827.20612213 380.92272522 -827.09974426 379.97045044 -826.99014282 378.98931885 C-818.94871095 307.40353483 -799.69641681 238.54895132 -767.5625 174 C-767.11970703 173.10506836 -766.67691406 172.21013672 -766.22070312 171.28808594 C-748.84621809 136.39541712 -726.21838087 103.37262065 -699.8984375 74.58203125 C-698.6481925 73.20007148 -697.40333893 71.81251897 -696.19726562 70.3918457 C-690.80950763 64.07421661 -684.97081901 58.22221313 -679.10302734 52.35522461 C-677.32488228 50.57489748 -675.55490439 48.78671623 -673.78515625 46.99804688 C-667.80195505 40.98551626 -661.74557462 35.30812938 -655.08935547 30.03027344 C-652.63391428 28.05737982 -650.29424232 26.00182996 -647.9609375 23.88671875 C-643.55549387 19.9319874 -638.93826856 16.34099037 -634.1875 12.8125 C-633.3224585 12.16812988 -632.45741699 11.52375977 -631.56616211 10.85986328 C-561.88628512 -40.70843671 -481.24726766 -72.29215238 -333.5625 -93 C-332.58200684 -93.07202637 -331.60151367 -93.14405273 -330.59130859 -93.21826172 C-227.78554818 -100.38103601 -124.31288514 -75.76865407 0 0 Z " fill="#A50064" transform="translate(831.5625,1802)"/>
<path d="M0 0 C2.42501387 1.42904277 4.86022848 2.8386727 7.29980469 4.24267578 C25.91322931 14.99727852 43.44552939 27.45599156 60.52636719 40.48876953 C66.32678145 36.86031655 72.05350795 33.1453855 77.72119141 29.31396484 C95.04077773 17.6318228 113.04353982 7.21531251 131.52636719 -2.51123047 C133.08774414 -3.33494141 133.08774414 -3.33494141 134.68066406 -4.17529297 C200.74131327 -38.76532806 274.25160107 -60.09474699 348.52636719 -66.51123047 C349.56253174 -66.60621826 350.59869629 -66.70120605 351.66625977 -66.79907227 C364.61842325 -67.8360934 377.60386356 -67.71025695 390.58886719 -67.69873047 C391.84024475 -67.69812622 393.09162231 -67.69752197 394.38092041 -67.69689941 C412.85069593 -67.67266203 431.14010994 -67.39752617 449.52636719 -65.51123047 C451.48848145 -65.31787109 451.48848145 -65.31787109 453.49023438 -65.12060547 C541.32579598 -56.34855745 627.24050202 -29.63862425 734.52636719 43.48876953 C735.33170898 44.12637207 735.33170898 44.12637207 736.15332031 44.77685547 C742.01783717 49.44198404 747.65341485 54.32364106 753.19042969 59.37158203 C755.29555467 61.27957156 757.43250353 63.13924022 759.58886719 64.98876953 C764.12261339 68.93514781 768.31256837 73.2068842 772.52636719 77.48876953 C775.32568163 80.30224577 778.14342425 83.09526542 780.97949219 85.87158203 C787.46561873 92.24716892 793.72856903 98.61105 799.36621094 105.76611328 C801.33776944 108.25106134 803.37591965 110.66294687 805.44946289 113.06298828 C860.64627948 177.15375686 894.2495083 258.54280009 926.52636719 449.48876953 C926.58754267 450.63874868 926.58754267 450.63874868 926.64995401 451.81195974 C927.61954266 470.82750977 927.66772835 489.81732992 927.64863338 508.85095395 C927.64515126 513.45495316 927.64757895 518.05895025 927.64921087 522.66294998 C927.65127056 530.70772794 927.64966508 538.75249845 927.64557266 546.79727554 C927.63950455 558.75931773 927.63923991 570.72135529 927.64011465 582.68339873 C927.64142462 602.81145652 927.63810212 622.939511 927.63209724 643.06756783 C927.62617091 662.98363829 927.62232942 682.89970739 927.62124443 702.81577873 C927.62117569 704.05622696 927.62110695 705.29667518 927.62103613 706.57471274 C927.62069777 712.87486902 927.6203964 719.17502529 927.62010925 725.47518157 C927.61801141 770.04587388 927.611282 814.61656461 927.60180664 859.18725586 C927.59951485 869.9771525 927.59723943 880.76704914 927.59503174 891.5569458 C927.59489479 892.22619128 927.59475784 892.89543675 927.59461674 893.58496239 C927.58826624 924.7283932 927.58455579 955.87182416 927.58149892 987.01525544 C927.58129835 989.05440941 927.58109605 991.09356337 927.58089318 993.13271733 C927.57855607 1016.63299536 927.57637887 1040.13327341 927.57424823 1063.63355146 C927.56486919 1165.91862585 927.54479656 1268.20369556 927.52636719 1370.48876953 C789.58636719 1370.48876953 651.64636719 1370.48876953 509.52636719 1370.48876953 C509.48898437 1303.93576172 509.45160156 1237.38275391 509.41308594 1168.81298828 C509.38462985 1129.25565362 509.35597106 1089.69832119 509.32355082 1050.1409899 C509.30397775 1026.23976348 509.28457236 1002.33853693 509.26559137 978.43731004 C509.26392007 976.33492892 509.26224364 974.2325478 509.26056597 972.13016669 C509.23490539 939.94953201 509.21173315 907.76889801 509.19592285 875.58825684 C509.19558299 874.89658989 509.19524312 874.20492295 509.19489296 873.49229641 C509.18942899 862.34107475 509.18417764 851.189853 509.17895452 840.03863123 C509.16390112 807.90694179 509.14726707 775.77525665 509.12024403 743.64357471 C509.11941103 742.65174252 509.11941103 742.65174252 509.11856121 741.63987332 C509.10688898 727.77400203 509.09454283 713.90813143 509.08137606 700.04226148 C509.07521388 693.54810557 509.0691634 687.05394955 509.06318092 680.55979347 C509.06200004 679.28166031 509.06081916 678.00352716 509.05960249 676.68666269 C509.04088675 656.11878668 509.03246722 635.55091874 509.02790595 614.98303526 C509.02309943 594.30142068 509.00742688 573.61983688 508.98070153 552.93823882 C508.96515603 540.65352416 508.9579032 528.3688702 508.9625979 516.08414625 C508.96491453 507.87123569 508.9563432 499.65838238 508.93904308 491.44548986 C508.9295028 486.77020713 508.92457831 482.09505092 508.93297156 477.41976305 C508.99833796 437.18044445 504.06068404 399.98646879 474.52636719 370.05126953 C469.25321158 364.87065021 463.84737826 360.35775087 457.52636719 356.48876953 C456.66398437 355.92029297 455.80160156 355.35181641 454.91308594 354.76611328 C429.19373687 338.58035418 396.02979972 334.48240569 366.62597656 340.99267578 C336.77515554 348.0458 312.3719259 364.99244607 295.77172852 390.94213867 C282.85703497 411.96228841 278.03096328 435.79035666 278.14160633 460.180933 C278.13766642 461.78284731 278.1324178 463.38475883 278.12600055 464.98666513 C278.11224234 469.35057323 278.11681987 473.71429052 278.1246294 478.07820602 C278.1298088 482.83999766 278.1175103 487.60175099 278.10749787 492.36353052 C278.09235093 500.69619183 278.08819945 509.02880134 278.09137535 517.36147499 C278.0960473 529.75171364 278.08352326 542.14189386 278.06754562 554.53212097 C278.04114824 575.37759033 278.02859258 596.22304639 278.02398109 617.06853104 C278.01937105 637.70212293 278.00857488 658.3356964 277.98955345 678.96928024 C277.98778326 680.89513947 277.98778326 680.89513947 277.98597731 682.85990494 C277.97995172 689.38046541 277.97381596 695.90102576 277.9676378 702.42158608 C277.95513357 715.67883997 277.94359953 728.93609471 277.93249035 742.19334984 C277.9316556 743.1881408 277.9316556 743.1881408 277.93080398 744.20302854 C277.90383923 776.43661803 277.88786483 808.67021171 277.87280273 840.90380859 C277.86757197 852.08477788 277.86229252 863.26574714 277.85681152 874.44671631 C277.85630167 875.48693222 277.85630167 875.48693222 277.85578153 876.54816259 C277.83990521 908.80349563 277.81617532 941.05882148 277.7904941 973.31414803 C277.78881436 975.42544111 277.78713977 977.53673419 277.78546689 979.64802727 C277.7661858 1003.97879401 277.74642844 1028.30956035 277.72653236 1052.64032659 C277.64020818 1158.58980097 277.58573985 1264.53926965 277.52636719 1370.48876953 C139.58636719 1370.48876953 1.64636719 1370.48876953 -140.47363281 1370.48876953 C-140.51101563 1303.93576172 -140.54839844 1237.38275391 -140.58691406 1168.81298828 C-140.61537015 1129.25565362 -140.64402894 1089.69832119 -140.67644918 1050.1409899 C-140.69602225 1026.23976348 -140.71542764 1002.33853693 -140.73440863 978.43731004 C-140.73607993 976.33492892 -140.73775636 974.2325478 -140.73943403 972.13016669 C-140.76509461 939.94953201 -140.78826685 907.76889801 -140.80407715 875.58825684 C-140.80441701 874.89658989 -140.80475688 874.20492295 -140.80510704 873.49229641 C-140.81057101 862.34107475 -140.81582236 851.189853 -140.82104548 840.03863123 C-140.83609888 807.90694179 -140.85273293 775.77525665 -140.87975597 743.64357471 C-140.8803113 742.98235325 -140.88086663 742.32113179 -140.88143879 741.63987332 C-140.89311102 727.77400203 -140.90545717 713.90813143 -140.91862394 700.04226148 C-140.92478612 693.54810557 -140.9308366 687.05394955 -140.93681908 680.55979347 C-140.93799996 679.28166031 -140.93918084 678.00352716 -140.94039751 676.68666269 C-140.95911325 656.11878668 -140.96753278 635.55091874 -140.97209405 614.98303526 C-140.97690057 594.30142068 -140.99257312 573.61983688 -141.01929847 552.93823882 C-141.03484397 540.65352416 -141.0420968 528.3688702 -141.0374021 516.08414625 C-141.03508547 507.87123569 -141.0436568 499.65838238 -141.06095692 491.44548986 C-141.0704972 486.77020713 -141.07542169 482.09505092 -141.06702844 477.41976305 C-141.00166204 437.18044445 -145.93931596 399.98646879 -175.47363281 370.05126953 C-180.74678842 364.87065021 -186.15262174 360.35775087 -192.47363281 356.48876953 C-193.33601562 355.92029297 -194.19839844 355.35181641 -195.08691406 354.76611328 C-220.80626313 338.58035418 -253.97020028 334.48240569 -283.37402344 340.99267578 C-313.22484446 348.0458 -337.6280741 364.99244607 -354.22827148 390.94213867 C-367.14296503 411.96228841 -371.96903672 435.79035666 -371.85839367 460.180933 C-371.86233358 461.78284731 -371.8675822 463.38475883 -371.87399945 464.98666513 C-371.88775766 469.35057323 -371.88318013 473.71429052 -371.8753706 478.07820602 C-371.8701912 482.83999766 -371.8824897 487.60175099 -371.89250213 492.36353052 C-371.90764907 500.69619183 -371.91180055 509.02880134 -371.90862465 517.36147499 C-371.9039527 529.75171364 -371.91647674 542.14189386 -371.93245438 554.53212097 C-371.95885176 575.37759033 -371.97140742 596.22304639 -371.97601891 617.06853104 C-371.98062895 637.70212293 -371.99142512 658.3356964 -372.01044655 678.96928024 C-372.01162668 680.25318639 -372.0128068 681.53709255 -372.01402269 682.85990494 C-372.02004828 689.38046541 -372.02618404 695.90102576 -372.0323622 702.42158608 C-372.04486643 715.67883997 -372.05640047 728.93609471 -372.06750965 742.19334984 C-372.06806615 742.85654381 -372.06862266 743.51973778 -372.06919602 744.20302854 C-372.09616077 776.43661803 -372.11213517 808.67021171 -372.12719727 840.90380859 C-372.13242803 852.08477788 -372.13770748 863.26574714 -372.14318848 874.44671631 C-372.14352838 875.14019358 -372.14386828 875.83367085 -372.14421847 876.54816259 C-372.16009479 908.80349563 -372.18382468 941.05882148 -372.2095059 973.31414803 C-372.21118564 975.42544111 -372.21286023 977.53673419 -372.21453311 979.64802727 C-372.2338142 1003.97879401 -372.25357156 1028.30956035 -372.27346764 1052.64032659 C-372.35979182 1158.58980097 -372.41426015 1264.53926965 -372.47363281 1370.48876953 C-510.41363281 1370.48876953 -648.35363281 1370.48876953 -790.47363281 1370.48876953 C-790.5543901 1145.3598918 -790.5543901 1145.3598918 -790.56996274 1058.99611819 C-790.57416865 1035.72961178 -790.57848727 1012.46310541 -790.58309132 989.19659908 C-790.58349512 987.15019915 -790.58389547 985.10379923 -790.58429499 983.05739931 C-790.59041815 951.7590292 -790.59820713 920.46066066 -790.61096191 889.16229248 C-790.61137261 888.15438266 -790.61137261 888.15438266 -790.6117916 887.12611102 C-790.61621578 876.29396626 -790.62078322 865.46182156 -790.62536969 854.62967688 C-790.64458694 809.2356725 -790.65735022 763.8416703 -790.66146279 718.44766161 C-790.66203904 712.12090696 -790.66269031 705.79415233 -790.6633873 699.46739769 C-790.66352214 698.22229061 -790.66365699 696.97718353 -790.66379592 695.69434593 C-790.66615267 675.71023667 -790.67541066 655.72613638 -790.68729688 635.74203077 C-790.69911866 615.61574163 -790.70355699 595.4894613 -790.70063557 575.36316881 C-790.69912282 563.42884181 -790.70309401 551.49454729 -790.7152279 539.5602262 C-790.72280265 531.55791505 -790.72290827 523.55562483 -790.71729644 515.55331216 C-790.71431581 511.01308534 -790.71424209 506.47291931 -790.72339918 501.93269936 C-790.78040503 471.90585514 -789.9611816 441.86389695 -786.72363281 411.98876953 C-786.6409314 411.20512024 -786.55822998 410.42147095 -786.47302246 409.61407471 C-776.65756418 317.38214033 -748.52691174 226.53554236 -666.47363281 109.48876953 C-666.04824219 108.97846191 -665.62285156 108.4681543 -665.18457031 107.94238281 C-653.62820587 94.10363639 -641.48235652 79.88380736 -627.72363281 68.17626953 C-624.47847975 65.38131111 -621.31250789 62.51411047 -618.16113281 59.61376953 C-591.24755758 35.13014774 -560.43827989 14.8380932 -528.48486328 -2.41748047 C-526.66000607 -3.40987672 -524.84914076 -4.42789493 -523.04003906 -5.44873047 C-458.79286554 -41.10034121 -384.06281851 -58.32967497 -311.45007324 -65.31982422 C-309.60877512 -65.49814276 -307.76821856 -65.68407333 -305.92773438 -65.87060547 C-207.87489083 -75.46738829 -112.33845969 -56.35578733 0 0 Z " fill="#A50064" transform="translate(790.4736328125,67.51123046875)"/>
<path d="M0 0 C2.80410307 0.00008056 5.60804031 -0.00676641 8.41210938 -0.02050781 C34.81684949 -0.14763961 61.106594 0.9392146 87.3659668 3.87280273 C88.10475067 3.95389282 88.84353455 4.03498291 89.60470581 4.11853027 C121.94523229 7.71055914 153.94898327 13.47390598 185.5534668 21.18530273 C186.25928894 21.35654663 186.96511108 21.52779053 187.69232178 21.70422363 C210.73002591 27.30864838 233.18997455 34.32742391 255.5534668 42.18530273 C256.79241699 42.61987793 258.03136719 43.05445313 259.30786133 43.50219727 C286.86278646 53.25369131 313.41837381 65.14826693 339.5534668 78.18530273 C340.69702637 78.75506836 341.84058594 79.32483398 343.01879883 79.91186523 C374.23241307 95.5566234 404.31854919 113.63043645 432.5534668 134.18530273 C433.32819336 134.74749512 434.10291992 135.3096875 434.90112305 135.88891602 C448.81498747 146.0032681 462.4065603 156.39798871 475.47924805 167.57983398 C478.25045835 169.94394461 481.08273869 172.22374231 483.9284668 174.49780273 C489.83969178 179.30766411 495.35261894 184.5100679 500.8894043 189.73999023 C503.92234654 192.60434897 507.00926609 195.40091104 510.1159668 198.18530273 C516.19908189 203.74487104 522.03250987 209.55388109 527.8659668 215.37280273 C528.58056564 216.08351929 528.58056564 216.08351929 529.30960083 216.80859375 C534.38405086 221.86128005 539.34255287 226.95402231 544.00439453 232.39111328 C546.40080205 235.16671593 548.92021749 237.82368737 551.4284668 240.49780273 C555.91536137 245.32112697 560.17635692 250.26686252 564.29956055 255.40795898 C566.26770759 257.83318004 568.28648837 260.2030995 570.33203125 262.56298828 C578.23831557 271.72223588 585.38718088 281.44354411 592.5534668 291.18530273 C593.11855957 291.95036133 593.68365234 292.71541992 594.26586914 293.50366211 C617.27098982 324.70585254 637.41531909 357.74576246 655.0534668 392.25268555 C656.049246 394.19951168 657.04921485 396.14420082 658.0534668 398.08666992 C687.5473344 455.17343319 707.78531723 517.29251752 720.5534668 580.18530273 C720.69419617 580.87563599 720.83492554 581.56596924 720.97991943 582.27722168 C725.74320664 605.74560083 729.04978831 629.37433735 731.5534668 653.18530273 C731.63810181 653.97864014 731.72273682 654.77197754 731.80993652 655.58935547 C737.03028798 705.09419208 736.80162619 756.69777809 731.5534668 806.18530273 C731.46861023 807.00295105 731.38375366 807.82059937 731.29632568 808.6630249 C728.64836197 834.06490948 724.6805912 859.16849485 719.5534668 884.18530273 C719.40413696 884.91604004 719.25480713 885.64677734 719.10095215 886.3996582 C703.35905304 962.99853197 674.73600522 1038.71912968 634.10424805 1105.63061523 C632.65642681 1108.01569102 631.22734455 1110.41088192 629.8034668 1112.81030273 C609.75201992 1146.3779101 586.34972781 1177.72153981 561.02124023 1207.45874023 C559.49899604 1209.24937745 557.98312736 1211.04528837 556.4675293 1212.84155273 C551.64948593 1218.53195854 546.8300084 1224.09898503 541.45727539 1229.28051758 C539.72654877 1231.01213198 538.14694221 1232.7880178 536.5690918 1234.65795898 C532.02170439 1239.89218822 527.12064333 1244.76813914 522.2109375 1249.65820312 C520.61887713 1251.2449022 519.03223689 1252.83688015 517.44604492 1254.42944336 C512.53549616 1259.34320292 507.58736315 1264.16351635 502.30371094 1268.68017578 C499.53907486 1271.05763169 496.8999638 1273.56623405 494.2409668 1276.06030273 C489.42244969 1280.54272548 484.48163747 1284.79966003 479.34643555 1288.91967773 C476.85080816 1290.94410275 474.40659153 1293.0178266 471.97290039 1295.1159668 C464.7981126 1301.28571747 457.32765491 1306.98411235 449.70874023 1312.59204102 C447.51483135 1314.21386355 445.33408049 1315.85217842 443.1550293 1317.49389648 C409.41214456 1342.80468207 373.16921335 1364.20014426 335.5534668 1383.18530273 C334.41941406 1383.76038574 333.28536133 1384.33546875 332.11694336 1384.92797852 C261.42844661 1420.57405651 184.3284859 1442.42500807 72.4909668 1456.93530273 C71.48338318 1457.02418762 71.48338318 1457.02418762 70.45544434 1457.11486816 C65.82445386 1457.51583335 61.19053214 1457.86377041 56.5534668 1458.18530273 C55.54879868 1458.25788803 55.54879868 1458.25788803 54.52383423 1458.3319397 C39.73361077 1459.3699379 24.92593262 1459.37280403 10.10693359 1459.37060547 C7.30283052 1459.3705249 4.49889328 1459.37737188 1.69482422 1459.39111328 C-24.70991589 1459.51824508 -50.9996604 1458.43139087 -77.2590332 1455.49780273 C-77.99781708 1455.41671265 -78.73660095 1455.33562256 -79.49777222 1455.2520752 C-111.83215833 1451.66072834 -143.85240547 1445.92151656 -175.4465332 1438.18530273 C-176.09630127 1438.02630493 -176.74606934 1437.86730713 -177.41552734 1437.70349121 C-258.53138615 1417.74559942 -337.60843765 1383.71960465 -406.4465332 1336.18530273 C-407.5921875 1335.39687988 -407.5921875 1335.39687988 -408.76098633 1334.5925293 C-420.18611051 1326.71359827 -431.4419295 1318.64235662 -442.4465332 1310.18530273 C-443.05190918 1309.72027344 -443.65728516 1309.25524414 -444.28100586 1308.77612305 C-451.81263349 1302.96943523 -459.14992846 1296.96843204 -466.3762207 1290.78686523 C-469.12387365 1288.44272572 -471.93453549 1286.18646957 -474.7590332 1283.93530273 C-480.96981694 1278.88338244 -486.73374166 1273.3772778 -492.5402832 1267.87280273 C-495.77969898 1264.80256341 -499.06845078 1261.79797042 -502.3840332 1258.81030273 C-507.4688856 1254.16428006 -512.38015155 1249.35933304 -517.2590332 1244.49780273 C-518.31755493 1243.44616943 -518.31755493 1243.44616943 -519.39746094 1242.37329102 C-523.34158512 1238.41752951 -527.09950826 1234.35989405 -530.74707031 1230.12988281 C-533.51663483 1226.96085805 -536.42689017 1223.92710818 -539.3215332 1220.87280273 C-544.17555278 1215.71080487 -548.81865065 1210.45881867 -553.2434082 1204.91967773 C-555.27934165 1202.39280998 -557.36345995 1199.92062446 -559.47436523 1197.45678711 C-564.89193953 1191.12909036 -570.08339212 1184.65626549 -575.0847168 1177.9934082 C-576.00436097 1176.7723819 -576.92931208 1175.55533722 -577.85913086 1174.34204102 C-602.82709173 1141.75617841 -624.43793143 1106.52841956 -643.4465332 1070.18530273 C-643.96248047 1069.20400391 -644.47842773 1068.22270508 -645.01000977 1067.21166992 C-660.1524164 1038.236623 -672.7344195 1008.05524883 -683.4465332 977.18530273 C-683.86596191 975.99517578 -684.28539062 974.80504883 -684.7175293 973.57885742 C-703.87771099 919.04772995 -715.98348437 861.70719113 -721.4465332 804.18530273 C-721.5593161 803.01143005 -721.5593161 803.01143005 -721.67437744 801.81384277 C-726.29285439 753.14002968 -726.09347872 703.84690389 -721.4465332 655.18530273 C-721.3762793 654.43490723 -721.30602539 653.68451172 -721.23364258 652.91137695 C-713.21856332 567.83543052 -689.3364759 484.71575348 -617.4465332 343.18530273 C-616.73352051 342.00484375 -616.73352051 342.00484375 -616.00610352 340.80053711 C-601.76109067 317.25958582 -585.71546136 294.60255714 -568.4465332 273.18530273 C-567.68856445 272.24428711 -566.9305957 271.30327148 -566.1496582 270.33374023 C-558.23361798 260.59308082 -550.17109143 250.97187543 -541.7121582 241.69702148 C-539.83302104 239.61377114 -537.98578131 237.5099039 -536.14575195 235.39233398 C-527.14552844 225.08903568 -517.59911716 215.25066813 -507.9465332 205.56030273 C-507.31303955 204.9222168 -506.6795459 204.28413086 -506.02685547 203.62670898 C-502.27371925 199.88587813 -498.39807688 196.34570964 -494.38842773 192.88208008 C-491.39740412 190.26860081 -488.52299384 187.53535958 -485.6340332 184.81030273 C-480.64588184 180.1429564 -475.5505444 175.69585416 -470.21606445 171.42358398 C-467.67886661 169.37307007 -465.19292408 167.27716987 -462.71582031 165.15527344 C-455.81385191 159.24735245 -448.72010551 153.62877457 -441.4465332 148.18530273 C-440.73190918 147.65001953 -440.01728516 147.11473633 -439.28100586 146.56323242 C-417.46615113 130.26535951 -394.98307929 114.90219076 -371.4465332 101.18530273 C-370.3335083 100.53126465 -370.3335083 100.53126465 -369.19799805 99.86401367 C-354.23185038 91.08623234 -338.93672304 82.99707802 -323.4465332 75.18530273 C-321.91585205 74.41186523 -321.91585205 74.41186523 -320.35424805 73.62280273 C-245.12593492 35.87964122 -161.720893 12.97148443 -62.3840332 2.43530273 C-61.71231079 2.37604614 -61.04058838 2.31678955 -60.34851074 2.2557373 C-55.71752027 1.85477212 -51.08359854 1.50683506 -46.4465332 1.18530273 C-45.77675446 1.13691254 -45.10697571 1.08852234 -44.41690063 1.03866577 C-29.62667718 0.00066756 -14.81899902 -0.00219856 0 0 Z M-133.4465332 432.18530273 C-134.21932617 432.55461914 -134.99211914 432.92393555 -135.78833008 433.30444336 C-155.41035665 442.82371029 -173.71470987 455.22478513 -190.4465332 469.18530273 C-190.98826172 469.62696777 -191.52999023 470.06863281 -192.08813477 470.52368164 C-206.53198921 482.29975029 -220.03708533 495.43496681 -231.4465332 510.18530273 C-232.36901469 511.31041217 -233.29504292 512.43261941 -234.22387695 513.55249023 C-272.31309863 559.71503831 -293.75084745 616.63592077 -303.4465332 675.18530273 C-303.62732422 676.2586084 -303.80811523 677.33191406 -303.99438477 678.43774414 C-309.39684976 712.30787013 -309.14100194 750.3788355 -303.4465332 784.18530273 C-303.24253906 785.41716309 -303.03854492 786.64902344 -302.82836914 787.91821289 C-292.70600642 847.40735335 -269.70456522 902.34399906 -231.4465332 949.18530273 C-230.99906738 949.73718262 -230.55160156 950.2890625 -230.09057617 950.85766602 C-218.3164595 965.2903185 -205.18241984 978.77551622 -190.4465332 990.18530273 C-189.34466971 991.09586109 -188.24590823 992.01018137 -187.1496582 992.92749023 C-125.11857934 1044.47014044 -41.99045766 1064.13135358 37.31079102 1057.41577148 C113.6901907 1049.64222151 189.23287732 1013.33170918 238.4909668 953.43530273 C239.84798166 951.68751041 241.20200163 949.93738985 242.5534668 948.18530273 C243.46254266 947.08459301 244.37558584 945.98715252 245.29174805 944.89233398 C261.31199078 925.60958619 273.79375602 903.76138581 284.5534668 881.18530273 C284.87669922 880.50838379 285.19993164 879.83146484 285.53295898 879.1340332 C324.62187012 796.38611436 327.98000911 695.22726294 297.5534668 609.18530273 C294.15027691 600.07485246 290.42288273 591.10641504 286.5534668 582.18530273 C286.19784668 581.3620752 285.84222656 580.53884766 285.47583008 579.69067383 C274.63299624 554.89086223 259.70848218 532.05537749 242.5534668 511.18530273 C242.11808594 510.64695801 241.68270508 510.10861328 241.23413086 509.55395508 C228.97558612 494.44469072 215.0979596 479.92474584 199.5534668 468.18530273 C198.2721899 467.1778761 196.99236435 466.16860214 195.71362305 465.15795898 C152.22851562 431.02708885 101.2356337 410.71784979 46.5534668 403.18530273 C45.75682617 403.06815918 44.96018555 402.95101563 44.1394043 402.83032227 C-15.90641027 394.26870506 -79.12198357 406.17012 -133.4465332 432.18530273 Z " fill="#A50064" transform="translate(2670.446533203125,-0.185302734375)"/>
<path d="M0 0 C1.01118896 0.00060425 2.02237793 0.0012085 3.06420898 0.00183105 C87.08263063 0.13654968 170.49135109 14.1234453 393.4375 111.1875 C394.36820313 111.76064941 395.29890625 112.33379883 396.2578125 112.92431641 C407.62424408 119.93604828 418.62869939 127.34516015 429.4375 135.1875 C430.20594238 135.74195801 430.97438477 136.29641602 431.76611328 136.86767578 C442.3524815 144.51758453 452.65458418 152.43324502 462.71386719 160.76367188 C465.14980065 162.77590473 467.60792475 164.7605775 470.0625 166.75 C481.22076198 175.9097673 491.9751422 185.41794629 502.46826172 195.33154297 C504.52592301 197.27083644 506.59194005 199.20087598 508.66015625 201.12890625 C526.09568068 217.38974661 526.09568068 217.38974661 533.65625 226.1875 C535.5117521 228.27087078 537.44973101 230.23031207 539.4375 232.1875 C543.31765615 236.02322688 546.89375609 240.0417301 550.4375 244.1875 C551.3198548 245.20612581 552.20270645 246.22432137 553.0859375 247.2421875 C566.20525337 262.39896456 578.53648276 278.05764609 590.4375 294.1875 C591.2728125 295.31260986 591.2728125 295.31260986 592.125 296.46044922 C614.24241901 326.29371062 633.39591636 358.22300445 650.4375 391.1875 C651.24743408 392.74960205 651.24743408 392.74960205 652.07373047 394.34326172 C691.07495823 469.92095796 715.36652155 553.08922782 729.4375 677.1875 C729.58106934 679.06622803 729.58106934 679.06622803 729.72753906 680.98291016 C730.82116078 696.68814706 730.68332944 712.45206876 730.6875 728.1875 C730.68794186 728.95195309 730.68838371 729.71640617 730.68883896 730.50402451 C730.69650272 755.83905425 730.1149475 780.97470801 727.4375 806.1875 C727.35264343 807.00279175 727.26778687 807.8180835 727.18035889 808.65808105 C718.94654611 887.36392545 698.78872132 964.58963395 662.4375 1044.1875 C661.92606445 1045.27595215 661.41462891 1046.3644043 660.88769531 1047.48583984 C630.73398773 1111.42109576 591.29153062 1171.42672906 543.10546875 1223.2734375 C541.11597203 1225.44644563 539.18156202 1227.63940059 537.26074219 1229.87133789 C533.53352879 1234.13586772 529.60734384 1238.16236132 525.59765625 1242.16015625 C524.87186874 1242.88690048 524.14608124 1243.61364471 523.39830017 1244.3624115 C521.87426444 1245.88712296 520.34898431 1247.4105915 518.82250977 1248.93286133 C516.50617537 1251.24383891 514.19522922 1253.56010771 511.88476562 1255.87695312 C510.39354966 1257.3675082 508.90202347 1258.857753 507.41015625 1260.34765625 C506.72969742 1261.03013931 506.04923859 1261.71262238 505.34815979 1262.41578674 C501.41025766 1266.33481015 497.36885327 1270.07750717 493.15936279 1273.70375061 C490.94213007 1275.61436609 488.78512035 1277.587749 486.625 1279.5625 C482.3830915 1283.38664478 478.03198903 1287.03639455 473.58984375 1290.625 C471.24890119 1292.51770913 468.93500788 1294.44000175 466.62890625 1296.375 C456.95850229 1304.46693707 447.02508378 1312.08635931 436.80615234 1319.47167969 C434.47388585 1321.16114257 432.15193843 1322.8639304 429.83203125 1324.5703125 C419.9313205 1331.82791945 409.82821158 1338.65338823 399.4375 1345.1875 C398.64005371 1345.69249023 397.84260742 1346.19748047 397.02099609 1346.71777344 C374.81169867 1360.76334974 351.89489238 1373.35355771 328.4375 1385.1875 C327.49535645 1385.66396973 326.55321289 1386.14043945 325.58251953 1386.63134766 C257.16098828 1420.97186334 181.77873976 1442.40050071 76.4375 1456.4375 C75.19413879 1456.56226212 75.19413879 1456.56226212 73.92565918 1456.68954468 C71.51342483 1456.92862281 69.10066994 1457.16119639 66.6875 1457.390625 C65.66393402 1457.49027306 65.66393402 1457.49027306 64.61968994 1457.5919342 C50.71198976 1458.8755714 36.82697028 1459.35654487 22.8671875 1459.390625 C22.05988316 1459.39345238 21.25257881 1459.39627975 20.4208107 1459.39919281 C16.12884468 1459.4140542 11.83691099 1459.42335967 7.54492188 1459.42773438 C4.09591804 1459.4320684 0.64717153 1459.44577972 -2.80175781 1459.46875 C-34.47328718 1459.67506707 -65.96864416 1458.1649423 -97.375 1453.875 C-98.15782349 1453.77111969 -98.94064697 1453.66723938 -99.74719238 1453.56021118 C-181.48833914 1442.6953032 -259.5867045 1418.06195965 -406.5625 1339.1875 C-407.30628906 1338.69072754 -408.05007813 1338.19395508 -408.81640625 1337.68212891 C-429.52124737 1323.79968848 -449.54212454 1308.99874043 -468.48828125 1292.79296875 C-471.25949155 1290.42885813 -474.09177189 1288.14906042 -476.9375 1285.875 C-482.21076087 1281.589993 -487.15631939 1276.99445987 -492.08544922 1272.32299805 C-495.02725406 1269.5370953 -497.9882122 1266.8124299 -501.078125 1264.19140625 C-507.2082164 1258.86437387 -512.8684314 1253.03002779 -518.59887695 1247.28149414 C-520.62014268 1245.2548702 -522.64669574 1243.23364453 -524.67382812 1241.21289062 C-530.8504319 1235.03947233 -536.922441 1228.86144968 -542.5625 1222.1875 C-544.18217817 1220.41179779 -545.80661718 1218.64041693 -547.4375 1216.875 C-551.88436477 1211.99413191 -556.08678901 1206.96374476 -560.22998047 1201.82470703 C-561.74471604 1199.96361932 -563.27921785 1198.11992794 -564.81640625 1196.27734375 C-572.1681081 1187.45305174 -579.27035756 1178.49917375 -586.06054688 1169.23535156 C-587.07137419 1167.85712992 -588.08576875 1166.48151827 -589.10351562 1165.10839844 C-610.32035356 1136.48019931 -629.17409739 1105.82284725 -645.5625 1074.1875 C-645.88240906 1073.57195251 -646.20231812 1072.95640503 -646.53192139 1072.32220459 C-684.05334914 1000.06732593 -709.03211483 922.36122292 -728.8125 731.1875 C-728.81294186 730.5225565 -728.81338371 729.85761299 -728.81383896 729.17251968 C-728.83110805 679.35977864 -724.27455671 630.06253266 -714.5625 581.1875 C-714.42261658 580.48230225 -714.28273315 579.77710449 -714.13861084 579.05053711 C-699.2596171 504.53521896 -672.57714975 430.98557393 -622.5625 345.1875 C-621.92425293 344.13949219 -621.28600586 343.09148438 -620.62841797 342.01171875 C-609.00899258 322.96523018 -596.45928735 304.71076159 -582.92675781 286.9765625 C-581.64104097 285.29049717 -580.36274173 283.59906849 -579.0859375 281.90625 C-570.03608445 269.99699712 -560.60754674 258.34258788 -550.50390625 247.30859375 C-548.65921329 245.29316462 -546.85493431 243.24941191 -545.0625 241.1875 C-543.89620955 239.85383757 -542.72952821 238.5205169 -541.5625 237.1875 C-540.92183594 236.45273438 -540.28117187 235.71796875 -539.62109375 234.9609375 C-533.39887659 227.92513394 -526.78342158 221.31775512 -520.1081543 214.71679688 C-516.52257106 211.16915931 -512.9693851 207.58957947 -509.41796875 204.0078125 C-507.86204101 202.44264685 -506.3060498 200.8775443 -504.75 199.3125 C-503.98107422 198.53519531 -503.21214844 197.75789063 -502.41992188 196.95703125 C-497.63370671 192.15062109 -492.70560885 187.60690149 -487.5625 183.1875 C-485.95481627 181.73304483 -484.35010285 180.27529105 -482.75 178.8125 C-478.48504692 174.96821755 -474.1138915 171.29223095 -469.6484375 167.68359375 C-467.41310183 165.87551844 -465.19061795 164.05637237 -462.9765625 162.22265625 C-452.78723111 153.81325631 -442.27586028 145.91524392 -431.5625 138.1875 C-430.86044434 137.67864258 -430.15838867 137.16978516 -429.43505859 136.64550781 C-410.79610797 123.16503673 -391.41940103 110.78928487 -371.5625 99.1875 C-370.7360498 98.70216797 -369.90959961 98.21683594 -369.05810547 97.71679688 C-335.02711799 77.78276678 -299.44493818 61.11599076 -262.5625 47.1875 C-261.91682068 46.94320251 -261.27114136 46.69890503 -260.605896 46.44720459 C-191.72847115 20.47083065 -118.08470778 5.04396106 -44.5625 1.1875 C-43.41695145 1.12554947 -43.41695145 1.12554947 -42.2482605 1.06234741 C-28.16149529 0.31233614 -14.10603289 -0.01584684 0 0 Z M-198.5625 473.1875 C-199.9166479 474.35418845 -201.27081235 475.52085769 -202.625 476.6875 C-203.94007723 477.85126081 -205.25232119 479.01822721 -206.5625 480.1875 C-207.45195312 480.97253906 -208.34140625 481.75757812 -209.2578125 482.56640625 C-221.11336606 493.14075706 -231.66083206 504.74546365 -241.22851562 517.42089844 C-242.11283722 518.59200954 -243.00211989 519.75939205 -243.89648438 520.92285156 C-285.87191396 575.55218803 -310.45800795 646.78570744 -310.765625 715.75 C-310.77268463 716.81160843 -310.77974426 717.87321686 -310.78701782 718.96699524 C-311.04609258 751.69601886 -311.04609258 751.69601886 -307.5625 784.1875 C-307.35850586 785.41549316 -307.15451172 786.64348633 -306.94433594 787.90869141 C-296.98534809 846.14775063 -275.10603668 901.13844953 -237.5625 947.1875 C-237.12099609 947.73196777 -236.67949219 948.27643555 -236.22460938 948.83740234 C-229.1044647 957.53343918 -221.35695538 965.5969467 -213.4375 973.5625 C-212.53161133 974.47765381 -211.62572266 975.39280762 -210.69238281 976.33569336 C-204.62399465 982.3760989 -198.28970311 987.89396313 -191.5625 993.1875 C-190.88300293 993.72632812 -190.20350586 994.26515625 -189.50341797 994.8203125 C-148.82732998 1026.73324646 -101.36433129 1046.39698846 -50.5625 1055.1875 C-49.58039551 1055.36539063 -48.59829102 1055.54328125 -47.58642578 1055.7265625 C-15.80496176 1061.24900962 20.71932508 1060.95396989 52.4375 1055.1875 C53.5709082 1054.98882324 54.70431641 1054.79014648 55.87207031 1054.58544922 C113.02851594 1044.33781896 164.99361816 1019.65761041 207.9609375 980.44140625 C209.64002205 978.9132804 211.33330823 977.40064142 213.0390625 975.90234375 C217.5517993 971.92813597 221.7451333 967.91784741 225.6171875 963.31640625 C227.69323771 960.88840762 229.876828 958.57974363 232.0625 956.25 C290.55781793 891.90515027 316.73526933 800.62527222 313.17578125 714.8828125 C310.67441714 666.97255378 300.80981107 619.43730068 279.4375 576.1875 C278.95941895 575.21361328 278.48133789 574.23972656 277.98876953 573.23632812 C262.46180412 541.85902094 242.4686087 514.52103861 218.4375 489.1875 C217.26380859 487.95 217.26380859 487.95 216.06640625 486.6875 C211.41777426 481.91457304 206.49774319 477.64492181 201.29296875 473.48828125 C199.41554553 471.97555584 197.56270586 470.43170825 195.73828125 468.85546875 C177.99890259 453.54071925 157.58707631 441.19065485 136.45458984 431.14648438 C135.12365348 430.51371773 133.79575508 429.87451588 132.47119141 429.22851562 C41.96821789 385.28075306 -71.45668366 393.17007928 -198.5625 473.1875 Z " fill="#A50064" transform="translate(2674.5625,1707.8125)"/>
</svg>
