<?xml version="1.0" encoding="UTF-8"?>
<svg version="1.1" xmlns="http://www.w3.org/2000/svg" width="512" height="512">
<path d="M0 0 C1.18770049 -0.00657338 1.18770049 -0.00657338 2.39939493 -0.01327956 C5.06154868 -0.02666984 7.72366932 -0.032847 10.385849 -0.03897095 C12.29122568 -0.04687188 14.19660088 -0.05514083 16.10197449 -0.06375122 C22.3683784 -0.08997749 28.634789 -0.10528182 34.90122986 -0.11953735 C37.05892377 -0.12489723 39.21661763 -0.13027474 41.37431145 -0.13566971 C50.35165992 -0.15730141 59.3290066 -0.17603694 68.30637455 -0.1872921 C81.16741845 -0.20352254 94.0281598 -0.2366752 106.88908964 -0.29369295 C115.93381759 -0.33242249 124.97846473 -0.35192851 134.02327341 -0.35721266 C139.42390774 -0.36086263 144.82421942 -0.37284616 150.22476387 -0.4053154 C155.30968996 -0.43544798 160.39409907 -0.44168923 165.47909546 -0.42993164 C167.34064603 -0.42971133 169.20222094 -0.43798141 171.06368828 -0.45558548 C189.89353937 -0.62389848 189.89353937 -0.62389848 197.30357361 5.15390015 C204.087047 12.19163764 205.61823637 19.35156569 205.53062439 28.84310913 C205.53091644 29.68293839 205.5312085 30.52276764 205.5315094 31.38804626 C205.53012485 34.14213682 205.51460513 36.89595106 205.49888611 39.6499939 C205.49515286 41.56812899 205.49230736 43.486266 205.49031067 45.40440369 C205.48269874 50.43661831 205.46307129 55.46871627 205.44090271 60.50088501 C205.42039161 65.6423688 205.41129771 70.78387156 205.40122986 75.92538452 C205.37982303 86.00160747 205.34571666 96.07774408 205.30357361 106.15390015 C206.41273132 106.14092896 207.52188904 106.12795776 208.66465759 106.11459351 C214.16655173 106.17402356 217.98031186 108.03994126 222.03794861 111.73202515 C227.44582016 117.67532953 229.86973888 123.61409951 229.58872986 131.6656189 C228.48655293 141.28324493 222.8038495 147.01730137 215.74107361 153.03671265 C212.70032792 155.67787316 209.75372279 158.41242418 206.80357361 161.15390015 C203.34106205 164.36586107 199.87707131 167.56494451 196.30357361 170.65390015 C192.19153068 174.21073053 188.21587741 177.90973699 184.22813416 181.6043396 C179.29693103 186.17000399 174.31050832 190.67142341 169.30357361 195.15390015 C163.90019503 199.99860954 158.51992938 204.8659909 153.17857361 209.77890015 C149.33084432 213.31760396 145.44105318 216.79682322 141.48716736 220.21640015 C139.16426517 222.27750835 136.8946089 224.38863052 134.62559509 226.50863647 C109.55794848 249.8885175 84.31278263 261.43026583 49.95201111 260.5249939 C33.6033064 259.78813147 20.01125646 253.94036829 5.30357361 247.15390015 C4.5717688 246.81691101 3.83996399 246.47992188 3.08598328 246.13272095 C-4.75845096 242.51970443 -12.59842432 238.89713773 -20.42494202 235.24545288 C-32.13809362 229.7816821 -43.89597908 224.42654942 -55.69642639 219.15390015 C-55.91359314 220.57775024 -55.91359314 220.57775024 -56.13514709 222.03036499 C-57.13340355 227.58569037 -60.24930252 230.9899092 -64.57142639 234.46640015 C-71.76239141 238.34952126 -78.33530176 238.46155728 -86.36048889 238.4546814 C-87.47072418 238.45896652 -88.58095947 238.46325165 -89.72483826 238.46766663 C-92.06301696 238.47339096 -94.40121347 238.47392423 -96.73939514 238.46957397 C-100.31652523 238.46640449 -103.89283533 238.48993069 -107.46986389 238.51522827 C-109.74590452 238.51750049 -112.02194736 238.51820512 -114.29798889 238.5171814 C-115.36578583 238.52639114 -116.43358276 238.53560089 -117.53373718 238.54508972 C-123.26087913 238.50934818 -127.43088486 238.41944167 -131.69642639 234.15390015 C-131.7997031 232.17387143 -131.83165274 230.1901109 -131.83686829 228.20739746 C-131.8454335 226.2681691 -131.8454335 226.2681691 -131.85417175 224.2897644 C-131.85541724 222.84359751 -131.85654231 221.3974305 -131.8575592 219.95126343 C-131.86218496 218.43876015 -131.86720929 216.92625805 -131.87260437 215.41375732 C-131.88575387 211.29391224 -131.89217829 207.17408348 -131.89661503 203.05422068 C-131.89954168 200.482748 -131.9036457 197.91127983 -131.9081192 195.33980942 C-131.92180091 187.30140074 -131.93146424 179.26300231 -131.93532109 171.22458279 C-131.93980354 161.93219547 -131.95735722 152.63995512 -131.98632169 143.3476125 C-132.00790924 136.1739287 -132.01802381 129.00028634 -132.01936221 121.82657039 C-132.02041236 117.53788862 -132.02636437 113.24934487 -132.04418182 108.96069717 C-132.06061207 104.92730846 -132.06284278 100.89416227 -132.05404282 96.86075211 C-132.05326972 95.37845207 -132.05765093 93.89613927 -132.06750107 92.41387177 C-132.08013843 90.39407706 -132.07258216 88.37418577 -132.06391907 86.35437012 C-132.06538563 85.22278536 -132.06685219 84.0912006 -132.06836319 82.92532539 C-131.69642639 80.15390015 -131.69642639 80.15390015 -130.3609581 78.32887077 C-127.26798609 76.14558328 -124.47573574 76.02140937 -120.81703186 75.99276733 C-119.32935806 75.97835602 -119.32935806 75.97835602 -117.81163025 75.96365356 C-116.73978485 75.95940369 -115.66793945 75.95515381 -114.56361389 75.95077515 C-113.45720551 75.94507507 -112.35079712 75.939375 -111.21086121 75.9335022 C-108.86556454 75.92404877 -106.52025457 75.91751686 -104.17494202 75.91366577 C-100.60634248 75.90399477 -97.03832738 75.87298821 -93.46986389 75.84140015 C-91.1886173 75.83486644 -88.9073666 75.82961741 -86.62611389 75.82577515 C-85.56641388 75.81342834 -84.50671387 75.80108154 -83.41490173 75.7883606 C-75.77127672 75.81105712 -68.63482385 76.66360902 -62.38392639 81.40390015 C-59.69642639 84.15390015 -59.69642639 84.15390015 -58.51283264 87.7671814 C-57.55910678 89.74097067 -57.55910678 89.74097067 -55.69642639 91.15390015 C-50.46709131 92.22485911 -45.25778449 92.13435706 -39.94642639 92.09140015 C-38.47113446 92.10451169 -36.99586679 92.12075286 -35.52064514 92.14022827 C-31.91214554 92.18104688 -28.30513818 92.17891666 -24.69642639 92.15390015 C-24.70975006 91.22397247 -24.72307373 90.2940448 -24.73680115 89.3359375 C-24.85884165 80.53895725 -24.9485698 71.74215047 -25.00729942 62.94451332 C-25.03850929 58.42231374 -25.08079012 53.90080175 -25.14906311 49.3789978 C-25.21462879 45.00876561 -25.25021009 40.63919147 -25.26568985 36.2685051 C-25.27670999 34.60759507 -25.29822942 32.94671792 -25.33080673 31.28609085 C-25.50938218 21.79920456 -25.46477324 13.58653669 -18.69642639 6.15390015 C-12.68359474 1.39590709 -7.62301316 0.00510567 0 0 Z " fill="#F5CBAE" transform="translate(173.69642639160156,247.84609985351563)"/>
<path d="M0 0 C7.49572802 4.28000532 15.03652433 8.47888349 22.57983398 12.67431641 C23.55766846 13.22007324 24.53550293 13.76583008 25.54296875 14.328125 C26.39157471 14.80048584 27.24018066 15.27284668 28.11450195 15.75952148 C31.1796875 17.51953125 31.1796875 17.51953125 33.2827301 19.03857422 C40.43069032 23.94775133 46.14904433 24.27341272 54.66796875 23.96484375 C55.92933151 23.94686737 57.19069427 23.92889099 58.49028015 23.91036987 C61.81520236 23.86076011 65.13752317 23.78727088 68.46148682 23.69836426 C73.15654614 23.57390024 77.85149575 23.47267794 82.5476532 23.40011597 C85.04107321 23.36064873 87.53427749 23.30144135 90.02668762 23.22024536 C91.15523666 23.20057709 92.28378571 23.18090881 93.4465332 23.16064453 C94.43563187 23.13366486 95.42473053 23.10668518 96.44380188 23.07888794 C100.32071599 23.70330596 101.68862138 24.42709038 104.1796875 27.51953125 C104.93372051 31.40696599 104.8516703 35.25220167 104.81079102 39.20117188 C104.82152397 40.99194405 104.82152397 40.99194405 104.83247375 42.81889343 C104.84648463 46.08984215 104.83805253 49.35976727 104.81838346 52.6306591 C104.80199274 56.05476702 104.81081041 59.47882347 104.81590271 62.9029541 C104.82042325 68.65304584 104.80455676 74.40281224 104.77661133 80.15283203 C104.7445592 86.79905321 104.74457502 93.44468764 104.7618261 100.09095049 C104.77769442 106.48650495 104.7709558 112.88184446 104.75388908 119.27738953 C104.74701955 121.99824247 104.7480499 124.71892305 104.75543404 127.43977356 C104.76087161 131.23951821 104.74055532 135.03826015 104.71313477 138.83789062 C104.72292358 140.53210396 104.72292358 140.53210396 104.73291016 142.26054382 C104.71382347 143.81253227 104.71382347 143.81253227 104.6943512 145.39587402 C104.69154428 146.29403587 104.68873735 147.19219772 104.68584538 148.1175766 C104.01583638 151.29708104 102.67659673 152.50721171 100.1796875 154.51953125 C97.677948 155.03419495 97.677948 155.03419495 94.83544922 155.05297852 C93.7668869 155.06881485 92.69832458 155.08465118 91.59738159 155.10096741 C90.44633942 155.09600754 89.29529724 155.09104767 88.109375 155.0859375 C86.91796906 155.09213608 85.72656311 155.09833466 84.49905396 155.10472107 C81.97561459 155.11182705 79.45212842 155.10863179 76.92871094 155.09594727 C73.08960084 155.08215666 69.25296389 155.11605589 65.4140625 155.15429688 C62.95833274 155.15524882 60.50259996 155.15338518 58.046875 155.1484375 C56.90797821 155.16169571 55.76908142 155.17495392 54.59567261 155.18861389 C46.35913069 155.09368806 39.32477332 153.52631717 33.23922729 147.64381409 C31.80913328 145.99957775 30.48168718 144.26695187 29.1796875 142.51953125 C28.65761719 142.87144531 28.13554687 143.22335938 27.59765625 143.5859375 C-12.74855948 170.64828535 -12.74855948 170.64828535 -35.77734375 167.05859375 C-47.71091969 164.39973672 -57.74187362 158.2252642 -67.8203125 151.51953125 C-71.88119475 157.11332932 -75.68584474 162.83081186 -79.3203125 168.70703125 C-83.72754077 175.80231899 -88.1834719 182.86525394 -92.6953125 189.89453125 C-93.33791016 190.91184326 -93.98050781 191.92915527 -94.64257812 192.97729492 C-95.56200195 194.40199097 -95.56200195 194.40199097 -96.5 195.85546875 C-97.04382324 196.7067334 -97.58764648 197.55799805 -98.14794922 198.43505859 C-99.93686949 200.6648106 -101.14231677 201.57545425 -103.8203125 202.51953125 C-109.97178047 202.37972516 -113.68967608 200.0857106 -118.5703125 196.70703125 C-120.07730825 195.69799787 -121.58515233 194.69023054 -123.09375 193.68359375 C-123.87073242 193.16055664 -124.64771484 192.63751953 -125.44824219 192.09863281 C-129.31903921 189.52181981 -133.2567885 187.053573 -137.1953125 184.58203125 C-138.79697495 183.57307532 -140.39853689 182.5639598 -142 181.5546875 C-143.19447754 180.80276123 -143.19447754 180.80276123 -144.41308594 180.03564453 C-148.38468197 177.53426407 -152.35230966 175.02660616 -156.3203125 172.51953125 C-157.90362649 171.51950063 -159.48695983 170.51950064 -161.0703125 169.51953125 C-189.5703125 151.51953125 -218.0703125 133.51953125 -246.5703125 115.51953125 C-247.35446533 115.02428955 -248.13861816 114.52904785 -248.9465332 114.01879883 C-250.52584396 113.02131375 -252.10510848 112.02375546 -253.68432617 111.02612305 C-258.52224994 107.97004059 -263.36197799 104.91683963 -268.20288086 101.86547852 C-270.58490657 100.36226306 -272.96451238 98.85527963 -275.34375 97.34765625 C-278.21423633 95.52939375 -281.09405371 93.72794888 -283.984375 91.94140625 C-285.24225387 91.15505407 -286.50007039 90.36860214 -287.7578125 89.58203125 C-289.38009766 88.57849609 -289.38009766 88.57849609 -291.03515625 87.5546875 C-294.00917638 85.38152552 -295.96564289 83.71290976 -297.8203125 80.51953125 C-297.50679518 75.47350157 -296.34497672 72.09033654 -293.671875 67.8359375 C-293.00607422 66.76021484 -292.34027344 65.68449219 -291.65429688 64.57617188 C-291.11615356 63.72502808 -291.11615356 63.72502808 -290.56713867 62.85668945 C-289.01720734 60.4047959 -287.49396498 57.93668527 -285.96881104 55.46932983 C-285.15969494 54.16076012 -284.34924692 52.85301313 -283.53753662 51.54605103 C-279.43304803 44.92857106 -275.46350312 38.23379768 -271.506073 31.52767944 C-265.21134884 20.86723076 -258.88745885 10.22322503 -252.49658203 -0.37988281 C-251.76225966 -1.59999759 -251.02995184 -2.8213274 -250.29980469 -4.04394531 C-249.29272572 -5.72928025 -248.2774002 -7.40967915 -247.26171875 -9.08984375 C-246.40622437 -10.51248535 -246.40622437 -10.51248535 -245.53344727 -11.96386719 C-243.80875963 -14.49743997 -242.16552658 -16.50668664 -239.8203125 -18.48046875 C-232.82397071 -19.53652034 -229.10014042 -17.38828168 -223.4453125 -13.48046875 C-221.76966577 -12.37282364 -220.09249608 -11.26748009 -218.4140625 -10.1640625 C-217.516875 -9.56835449 -216.6196875 -8.97264648 -215.6953125 -8.35888672 C-210.51521919 -4.9744066 -205.22469924 -1.76943312 -199.9453125 1.45703125 C-197.72105664 2.82243211 -195.49709671 4.18831516 -193.2734375 5.5546875 C-192.18998047 6.22000488 -191.10652344 6.88532227 -189.99023438 7.57080078 C-176.56220075 15.82577339 -163.17729567 24.15016273 -149.8203125 32.51953125 C-142.62184056 26.58498854 -136.1906499 19.9442275 -129.64648438 13.30664062 C-125.0854268 8.7059504 -120.50010694 4.22115932 -115.56518555 0.02124023 C-113.68475101 -1.5971385 -111.87936276 -3.28299315 -110.0703125 -4.98046875 C-75.48225438 -34.9343987 -34.60366239 -19.76215074 0 0 Z " fill="#F5CBAE" transform="translate(365.8203125,25.48046875)"/>
<path d="M0 0 C1.18770049 -0.00657338 1.18770049 -0.00657338 2.39939493 -0.01327956 C5.06154868 -0.02666984 7.72366932 -0.032847 10.385849 -0.03897095 C12.29122568 -0.04687188 14.19660088 -0.05514083 16.10197449 -0.06375122 C22.3683784 -0.08997749 28.634789 -0.10528182 34.90122986 -0.11953735 C37.05892377 -0.12489723 39.21661763 -0.13027474 41.37431145 -0.13566971 C50.35165992 -0.15730141 59.3290066 -0.17603694 68.30637455 -0.1872921 C81.16741845 -0.20352254 94.0281598 -0.2366752 106.88908964 -0.29369295 C115.93381759 -0.33242249 124.97846473 -0.35192851 134.02327341 -0.35721266 C139.42390774 -0.36086263 144.82421942 -0.37284616 150.22476387 -0.4053154 C155.30968996 -0.43544798 160.39409907 -0.44168923 165.47909546 -0.42993164 C167.34064603 -0.42971133 169.20222094 -0.43798141 171.06368828 -0.45558548 C189.89353937 -0.62389848 189.89353937 -0.62389848 197.30357361 5.15390015 C204.087047 12.19163764 205.61823637 19.35156569 205.53062439 28.84310913 C205.53091644 29.68293839 205.5312085 30.52276764 205.5315094 31.38804626 C205.53012485 34.14213682 205.51460513 36.89595106 205.49888611 39.6499939 C205.49515286 41.56812899 205.49230736 43.486266 205.49031067 45.40440369 C205.48269874 50.43661831 205.46307129 55.46871627 205.44090271 60.50088501 C205.42039161 65.6423688 205.41129771 70.78387156 205.40122986 75.92538452 C205.37982303 86.00160747 205.34571666 96.07774408 205.30357361 106.15390015 C204.36834114 106.40804687 204.36834114 106.40804687 203.41421509 106.66732788 C197.5403164 108.3349965 192.23962192 110.41680472 186.82310486 113.21640015 C186.05664642 113.60384903 185.29018799 113.99129791 184.50050354 114.39048767 C182.87440349 115.21341775 181.25010102 116.03990843 179.6275177 116.86975098 C175.35859312 119.05253337 171.07602561 121.20830954 166.79576111 123.3687439 C165.95780502 123.79267929 165.11984894 124.21661469 164.25650024 124.65339661 C157.2851818 128.17677431 150.26283737 131.57979507 143.20054626 134.9168396 C137.02975381 137.8381491 130.88826849 140.81544328 124.75669861 143.81796265 C123.91385818 144.23019577 123.07101776 144.64242889 122.20263672 145.06715393 C117.07360531 147.57583983 117.07360531 147.57583983 111.94831848 150.09216309 C109.56188608 151.26590341 107.17318887 152.43491549 104.78404236 153.6031189 C104.0581189 153.96189117 103.33219543 154.32066345 102.58427429 154.69030762 C97.53079418 157.15390015 97.53079418 157.15390015 95.30357361 157.15390015 C95.36544861 158.16452515 95.42732361 159.17515015 95.49107361 160.21640015 C95.11181118 168.18091121 90.35944689 176.75839943 84.55357361 182.21640015 C83.15405176 183.21991915 81.73507322 184.19654929 80.30357361 185.15390015 C79.63865906 185.60297729 78.97374451 186.05205444 78.28868103 186.51473999 C69.2492343 191.53781891 59.51121244 190.87468364 49.46739197 190.75082397 C46.34873231 190.71620766 43.23286472 190.7302808 40.11412048 190.74960327 C38.12647823 190.74271205 36.13884323 190.73304625 34.15122986 190.7203064 C33.22206253 190.72526627 32.2928952 190.73022614 31.33557129 190.7353363 C24.96478776 190.61871777 24.96478776 190.61871777 21.71934509 188.33724976 C19.62854007 185.11288877 19.76723563 182.90826602 20.30357361 179.15390015 C21.7674408 176.96444702 21.7674408 176.96444702 24.30357361 175.15390015 C27.33021363 174.58570955 30.31015318 174.64429797 33.38169861 174.68515015 C34.7098056 174.67457581 34.7098056 174.67457581 36.06474304 174.66378784 C39.84421357 174.63434973 43.6231672 174.65087055 47.4026947 174.66317749 C50.16683748 174.66557152 52.93015823 174.64456263 55.69419861 174.62265015 C56.53718506 174.63396973 57.38017151 174.64528931 58.248703 174.6569519 C65.1990094 174.59834343 70.57806448 172.80574687 75.61607361 167.90390015 C80.91394335 159.27033463 81.63920554 150.52213629 79.83482361 140.56796265 C77.27697748 131.88955615 72.43075134 125.30276678 64.84263611 120.44296265 C56.64026025 116.27867952 49.97371216 115.68975947 40.83482361 115.6421814 C39.55877258 115.62423019 38.28272156 115.60627899 36.96800232 115.58778381 C33.60115661 115.54298175 30.23466856 115.51058195 26.86766052 115.48434448 C23.42168733 115.45438659 19.97593954 115.40790928 16.53013611 115.36288452 C9.78805332 115.2781092 3.04595516 115.20969712 -3.69642639 115.15390015 C-4.01095764 114.34565796 -4.32548889 113.53741577 -4.64955139 112.7046814 C-5.07752014 111.63604858 -5.50548889 110.56741577 -5.94642639 109.46640015 C-6.57291077 107.88278687 -6.57291077 107.88278687 -7.21205139 106.2671814 C-10.03355881 100.34944084 -13.02425584 97.60937116 -18.94642639 94.84140015 C-20.02408264 94.32964233 -21.10173889 93.81788452 -22.21205139 93.2906189 C-23.03189514 92.91550171 -23.85173889 92.54038452 -24.69642639 92.15390015 C-24.83592426 82.41762387 -24.94229848 72.68158834 -25.00729942 62.94451332 C-25.03850929 58.42231374 -25.08079012 53.90080175 -25.14906311 49.3789978 C-25.21462879 45.00876561 -25.25021009 40.63919147 -25.26568985 36.2685051 C-25.27670999 34.60759507 -25.29822942 32.94671792 -25.33080673 31.28609085 C-25.50938218 21.79920456 -25.46477324 13.58653669 -18.69642639 6.15390015 C-12.68359474 1.39590709 -7.62301316 0.00510567 0 0 Z " fill="#FEBA55" transform="translate(173.69642639160156,247.84609985351563)"/>
<path d="M0 0 C4.06897999 0.84071358 7.15567251 3.11326822 10.53027344 5.4453125 C12.20592017 6.55295761 13.88308986 7.65830116 15.56152344 8.76171875 C16.45871094 9.35742676 17.35589844 9.95313477 18.28027344 10.56689453 C23.46037082 13.95137731 28.75095077 17.15623639 34.03027344 20.3828125 C36.25580408 21.74956007 38.48106599 23.11674535 40.70605469 24.484375 C42.33148193 25.48259277 42.33148193 25.48259277 43.98974609 26.50097656 C55.6803519 33.68160163 67.35408084 40.87351761 78.85375977 48.35717773 C92.58712617 57.29137974 106.50762056 65.92926214 120.44824219 74.53515625 C124.69364672 77.15647402 128.92668614 79.79695851 133.15527344 82.4453125 C130.15527344 83.4453125 130.15527344 83.4453125 128.46777344 83.0078125 C121.71483595 81.36520608 115.32599857 82.42467782 109.15527344 85.4453125 C102.73250634 89.60393868 98.28450682 95.05677454 96.15527344 102.4453125 C95.1243373 110.99387147 95.15226937 119.19699687 100.15527344 126.4453125 C106.16824593 132.8854268 113.42757515 137.2743219 121.03097534 141.57290649 C124.24745608 143.39180993 127.44385639 145.24553892 130.64355469 147.09375 C131.28196793 147.46121841 131.92038116 147.82868683 132.57814026 148.20729065 C138.48474923 151.61411563 144.30362329 155.15503488 150.09277344 158.7578125 C150.93098633 159.27819092 151.76919922 159.79856934 152.6328125 160.3347168 C156.85569493 162.96943582 161.03121984 165.65843198 165.15527344 168.4453125 C164.53776112 171.42314913 163.59256952 173.65986574 162.00292969 176.24609375 C161.56126465 176.96829102 161.11959961 177.69048828 160.66455078 178.43457031 C160.18711426 179.20124023 159.70967773 179.96791016 159.21777344 180.7578125 C158.72486816 181.55670898 158.23196289 182.35560547 157.72412109 183.17871094 C154.19395189 188.86538991 150.5538831 194.47072296 146.79956055 200.01171875 C144.69830042 203.1138787 142.64603087 206.23365091 140.67089844 209.41796875 C140.26887207 210.06217773 139.8668457 210.70638672 139.45263672 211.37011719 C138.69280235 212.59357394 137.94065498 213.82185181 137.19775391 215.05566406 C133.78513839 220.52808856 133.78513839 220.52808856 130.15527344 221.4453125 C124.00380547 221.30550641 120.28590986 219.01149185 115.40527344 215.6328125 C113.89827768 214.62377912 112.39043361 213.61601179 110.88183594 212.609375 C110.10485352 212.08633789 109.32787109 211.56330078 108.52734375 211.02441406 C104.65654673 208.44760106 100.71879743 205.97935425 96.78027344 203.5078125 C95.17861099 202.49885657 93.57704905 201.48974105 91.97558594 200.48046875 C90.7811084 199.72854248 90.7811084 199.72854248 89.5625 198.96142578 C85.59090397 196.46004532 81.62327628 193.95238741 77.65527344 191.4453125 C76.07195945 190.44528188 74.4886261 189.44528189 72.90527344 188.4453125 C44.40527344 170.4453125 15.90527344 152.4453125 -12.59472656 134.4453125 C-13.37887939 133.9500708 -14.16303223 133.4548291 -14.97094727 132.94458008 C-16.55025803 131.947095 -18.12952254 130.94953671 -19.70874023 129.9519043 C-24.54666401 126.89582184 -29.38639205 123.84262088 -34.22729492 120.79125977 C-36.60932063 119.28804431 -38.98892644 117.78106088 -41.36816406 116.2734375 C-44.23865039 114.455175 -47.11846777 112.65373013 -50.00878906 110.8671875 C-51.26666793 110.08083532 -52.52448445 109.29438339 -53.78222656 108.5078125 C-55.40451172 107.50427734 -55.40451172 107.50427734 -57.05957031 106.48046875 C-60.03359045 104.30730677 -61.99005695 102.63869101 -63.84472656 99.4453125 C-63.53120924 94.39928282 -62.36939078 91.01611779 -59.69628906 86.76171875 C-59.03048828 85.68599609 -58.3646875 84.61027344 -57.67871094 83.50195312 C-57.14056763 82.65080933 -57.14056763 82.65080933 -56.59155273 81.7824707 C-55.0416214 79.33057715 -53.51837904 76.86246652 -51.9932251 74.39511108 C-51.184109 73.08654137 -50.37366098 71.77879438 -49.56195068 70.47183228 C-45.45746209 63.85435231 -41.48791719 57.15957893 -37.53048706 50.45346069 C-31.2357629 39.79301201 -24.91187292 29.14900628 -18.52099609 18.54589844 C-17.78667372 17.32578366 -17.0543659 16.10445385 -16.32421875 14.88183594 C-15.31713978 13.196501 -14.30181427 11.5161021 -13.28613281 9.8359375 C-12.43063843 8.4132959 -12.43063843 8.4132959 -11.55786133 6.96191406 C-8.28908847 2.16007416 -6.14434332 -0.33993601 0 0 Z " fill="#9CCB6A" transform="translate(131.8447265625,6.5546875)"/>
<path d="M0 0 C0.70269516 -0.00014603 1.40539032 -0.00029205 2.12937927 -0.0004425 C4.45062351 0.00025382 6.77178737 0.00803313 9.09301758 0.01586914 C10.70298722 0.01773431 12.31295744 0.01915775 13.92292786 0.02015686 C18.1594703 0.02397421 22.39597843 0.03379785 26.63250732 0.04486084 C30.9559279 0.05509175 35.27935401 0.05965808 39.6027832 0.06469727 C48.08522082 0.0754208 56.56763055 0.09248786 65.05004883 0.11352539 C64.72004883 0.77352539 64.39004883 1.43352539 64.05004883 2.11352539 C63.39004883 2.11352539 62.73004883 2.11352539 62.05004883 2.11352539 C61.00302201 5.25460585 60.9045884 7.50836488 60.87304688 10.80664062 C60.86021164 11.97472763 60.8473764 13.14281464 60.83415222 14.34629822 C60.82676529 15.60881912 60.81937836 16.87134003 60.81176758 18.17211914 C60.79965996 20.11587181 60.79965996 20.11587181 60.78730774 22.09889221 C60.77229843 24.84180571 60.7624509 27.58469346 60.75488281 30.32763672 C60.74380392 33.83954336 60.70938001 37.3508189 60.66971111 40.8625021 C60.63727905 44.21568284 60.6327702 47.56879364 60.62426758 50.92211914 C60.59800545 52.81286415 60.59800545 52.81286415 60.57121277 54.74180603 C60.57413834 55.9130452 60.5770639 57.08428436 60.58007812 58.29101562 C60.57127876 59.83631203 60.57127876 59.83631203 60.56230164 61.41282654 C61.17913091 64.82826418 62.35371508 65.99588987 65.05004883 68.11352539 C68.38465677 68.94347226 70.29823584 68.52696529 73.29467773 66.87915039 C75.87397381 65.19337608 78.37176494 63.42740434 80.86254883 61.61352539 C82.57629215 60.39322852 84.29107756 59.17439331 86.00708008 57.95727539 C86.75965088 57.41264648 87.51222168 56.86801758 88.28759766 56.30688477 C90.05004883 55.11352539 90.05004883 55.11352539 91.05004883 55.11352539 C91.38004883 89.43352539 91.71004883 123.75352539 92.05004883 159.11352539 C93.37004883 158.78352539 94.69004883 158.45352539 96.05004883 158.11352539 C96.64957801 166.31958111 92.27803167 174.13958013 87.19067383 180.40258789 C85.24649627 182.22625858 83.2646883 183.63219295 81.05004883 185.11352539 C80.38513428 185.56260254 79.72021973 186.01167969 79.03515625 186.47436523 C69.99570952 191.49744416 60.25768766 190.83430889 50.21386719 190.71044922 C47.09520753 190.67583291 43.97933994 190.68990605 40.8605957 190.70922852 C38.87295345 190.70233729 36.88531845 190.69267149 34.89770508 190.67993164 C33.96853775 190.68489151 33.03937042 190.68985138 32.08204651 190.69496155 C25.71126298 190.57834301 25.71126298 190.57834301 22.46582031 188.296875 C20.37501529 185.07251402 20.51371085 182.86789127 21.05004883 179.11352539 C22.51391602 176.92407227 22.51391602 176.92407227 25.05004883 175.11352539 C28.07668885 174.54533479 31.0566284 174.60392322 34.12817383 174.64477539 C35.45628082 174.63420105 35.45628082 174.63420105 36.81121826 174.62341309 C40.59068879 174.59397498 44.36964242 174.61049579 48.14916992 174.62280273 C50.9133127 174.62519676 53.67663345 174.60418787 56.44067383 174.58227539 C57.28366028 174.59359497 58.12664673 174.60491455 58.99517822 174.61657715 C65.94548462 174.55796867 71.3245397 172.76537211 76.36254883 167.86352539 C81.66041857 159.22995988 82.38568076 150.48176153 80.58129883 140.52758789 C78.0234527 131.84918139 73.17722656 125.26239203 65.58911133 120.40258789 C57.38673547 116.23830476 50.72018738 115.64938471 41.58129883 115.60180664 C40.3052478 115.58385544 39.02919678 115.56590424 37.71447754 115.54740906 C34.34763183 115.502607 30.98114378 115.47020719 27.61413574 115.44396973 C24.16816255 115.41401183 20.72241476 115.36753452 17.27661133 115.32250977 C10.53452854 115.23773444 3.79243038 115.16932236 -2.94995117 115.11352539 C-3.26448242 114.3052832 -3.57901367 113.49704102 -3.90307617 112.66430664 C-4.33104492 111.59567383 -4.75901367 110.52704102 -5.19995117 109.42602539 C-5.82643555 107.84241211 -5.82643555 107.84241211 -6.46557617 106.22680664 C-9.28708359 100.30906609 -12.27778062 97.56899641 -18.19995117 94.80102539 C-19.27760742 94.28926758 -20.35526367 93.77750977 -21.46557617 93.25024414 C-22.28541992 92.87512695 -23.10526367 92.50000977 -23.94995117 92.11352539 C-24.08944904 82.37724911 -24.19582326 72.64121359 -24.2608242 62.90413857 C-24.29203407 58.38193898 -24.3343149 53.86042699 -24.40258789 49.33862305 C-24.46815357 44.96839085 -24.50373487 40.59881671 -24.51921463 36.22813034 C-24.53023477 34.56722032 -24.5517542 32.90634317 -24.58433151 31.24571609 C-24.76290696 21.7588298 -24.71829802 13.54616193 -17.94995117 6.11352539 C-12.14379158 1.51907329 -7.4296201 -0.01296618 0 0 Z " fill="#FECB65" transform="translate(172.949951171875,247.886474609375)"/>
<path d="M0 0 C0.99178253 -0.00960754 1.98356506 -0.01921509 3.00540161 -0.02911377 C4.07724701 -0.03336365 5.14909241 -0.03761353 6.25341797 -0.04199219 C7.35982635 -0.04769226 8.46623474 -0.05339233 9.60617065 -0.05926514 C11.95146732 -0.06871857 14.29677729 -0.07525047 16.64208984 -0.07910156 C20.21068938 -0.08877256 23.77870448 -0.11977913 27.34716797 -0.15136719 C29.62841456 -0.1579009 31.90966526 -0.16314992 34.19091797 -0.16699219 C35.25061798 -0.17933899 36.31031799 -0.19168579 37.40213013 -0.20440674 C45.33877172 -0.18084015 51.74771281 0.93375087 58.43310547 5.34863281 C65.35689398 12.594458 65.71016642 19.35100461 65.66992188 28.9519043 C65.68014374 30.21633362 65.6903656 31.48076294 65.70089722 32.7835083 C65.72753694 36.23199514 65.72885074 39.68004175 65.72377062 43.12861133 C65.72162181 46.01615125 65.73142162 48.9036038 65.74098146 51.79112488 C65.76312271 58.6073179 65.76407412 65.42329043 65.75195312 72.23950195 C65.73987282 79.25279056 65.76450693 86.26527675 65.80709326 93.27842849 C65.84240714 99.31779801 65.85431537 105.35691304 65.84781778 111.39638191 C65.84420498 114.99561642 65.84933278 118.59427827 65.87724686 122.1934185 C65.90723548 126.20979208 65.88839472 130.22454793 65.86523438 134.2409668 C65.88816559 136.01099815 65.88816559 136.01099815 65.91156006 137.81678772 C65.81411988 145.47846744 64.28686579 150.4058126 59.12060547 156.16113281 C51.61457571 162.38954048 43.78147515 162.46990356 34.45654297 162.46191406 C33.34630768 162.46619919 32.23607239 162.47048431 31.0921936 162.47489929 C28.7540149 162.48062362 26.41581839 162.4811569 24.07763672 162.47680664 C20.50050663 162.47363716 16.92419653 162.49716336 13.34716797 162.52246094 C11.07112734 162.52473315 8.7950845 162.52543779 6.51904297 162.52441406 C5.45124603 162.53362381 4.3834491 162.54283356 3.28329468 162.55232239 C-2.44384726 162.51658084 -6.613853 162.42667434 -10.87939453 158.16113281 C-10.98267124 156.1811041 -11.01462088 154.19734357 -11.01983643 152.21463013 C-11.02840164 150.27540176 -11.02840164 150.27540176 -11.03713989 148.29699707 C-11.03838538 146.85083017 -11.03951045 145.40466317 -11.04052734 143.95849609 C-11.0451531 142.44599282 -11.05017743 140.93349072 -11.05557251 139.42098999 C-11.06872201 135.30114491 -11.07514643 131.18131614 -11.07958317 127.06145334 C-11.08250982 124.48998067 -11.08661384 121.9185125 -11.09108734 119.34704208 C-11.10476905 111.30863341 -11.11443238 103.27023497 -11.11828923 95.23181546 C-11.12277168 85.93942813 -11.14032536 76.64718779 -11.16928983 67.35484517 C-11.19087738 60.18116137 -11.20099194 53.00751901 -11.20233035 45.83380306 C-11.2033805 41.54512128 -11.20933251 37.25657754 -11.22714996 32.96792984 C-11.24358021 28.93454113 -11.24581092 24.90139494 -11.23701096 20.86798477 C-11.23623786 19.38568474 -11.24061907 17.90337194 -11.25046921 16.42110443 C-11.26310657 14.40130973 -11.2555503 12.38141844 -11.24688721 10.36160278 C-11.24835377 9.23001802 -11.24982033 8.09843327 -11.25133133 6.93255806 C-10.87939453 4.16113281 -10.87939453 4.16113281 -9.54392624 2.33610344 C-6.45095423 0.15281594 -3.65870388 0.02864204 0 0 Z " fill="#415A71" transform="translate(52.87939453125,323.8388671875)"/>
<path d="M0 0 C4.10295739 0.76827557 7.17955788 3.07032314 10.56542969 5.41015625 C12.24107642 6.51780136 13.91824611 7.62314491 15.59667969 8.7265625 C16.49386719 9.32227051 17.39105469 9.91797852 18.31542969 10.53173828 C23.49552707 13.91622106 28.78610702 17.12108014 34.06542969 20.34765625 C36.29096033 21.71440382 38.51622224 23.0815891 40.74121094 24.44921875 C42.36663818 25.44743652 42.36663818 25.44743652 44.02490234 26.46582031 C55.71550815 33.64644538 67.38923709 40.83836136 78.88891602 48.32202148 C92.62228242 57.25622349 106.54277681 65.89410589 120.48339844 74.5 C124.72880297 77.12131777 128.96184239 79.76180226 133.19042969 82.41015625 C130.19042969 83.41015625 130.19042969 83.41015625 128.50292969 82.97265625 C121.7499922 81.33004983 115.36115482 82.38952157 109.19042969 85.41015625 C102.76766259 89.56878243 98.31966307 95.02161829 96.19042969 102.41015625 C95.15949355 110.95871522 95.18742562 119.16184062 100.19042969 126.41015625 C106.20340218 132.85027055 113.4627314 137.23916565 121.06613159 141.53775024 C124.28261233 143.35665368 127.47901264 145.21038267 130.67871094 147.05859375 C131.31712418 147.42606216 131.95553741 147.79353058 132.61329651 148.1721344 C138.51990548 151.57895938 144.33877954 155.11987863 150.12792969 158.72265625 C150.96614258 159.24303467 151.80435547 159.76341309 152.66796875 160.29956055 C156.89085118 162.93427957 161.06637609 165.62327573 165.19042969 168.41015625 C164.86042969 169.73015625 164.53042969 171.05015625 164.19042969 172.41015625 C159.81882312 172.41015625 158.78422356 171.83059431 155.21777344 169.55078125 C154.24582031 168.93589844 153.27386719 168.32101563 152.27246094 167.6875 C151.23476563 167.01847656 150.19707031 166.34945312 149.12792969 165.66015625 C148.05027344 164.97566406 146.97261719 164.29117188 145.86230469 163.5859375 C143.6644907 162.18922021 141.46900352 160.7888347 139.27587891 159.38476562 C135.09263302 156.70759418 130.89178224 154.05877532 126.69042969 151.41015625 C125.17867698 150.4544808 123.66695902 149.49875038 122.15527344 148.54296875 C116.19485859 144.77914317 110.22591826 141.0289912 104.25292969 137.28515625 C103.21523437 136.63289062 102.17753906 135.980625 101.10839844 135.30859375 C100.13644531 134.70015625 99.16449219 134.09171875 98.16308594 133.46484375 C97.29949463 132.92327637 96.43590332 132.38170898 95.54614258 131.82373047 C93.4655252 130.57523066 91.37759668 129.4577457 89.19042969 128.41015625 C88.78953125 128.92964844 88.38863281 129.44914063 87.97558594 129.984375 C83.00693079 136.07970932 77.86221507 140.14488104 70.19042969 142.22265625 C69.20042969 142.28453125 68.21042969 142.34640625 67.19042969 142.41015625 C66.51367188 142.46042969 65.83691406 142.51070312 65.13964844 142.5625 C56.87936784 142.91916151 49.66440609 140.61748509 43.19042969 135.41015625 C36.9511486 129.26479982 32.86455377 123.19994293 32.72363281 114.20483398 C32.73330078 113.48884033 32.74296875 112.77284668 32.75292969 112.03515625 C32.75776367 110.91959351 32.75776367 110.91959351 32.76269531 109.78149414 C32.91297458 103.85258845 34.1813408 99.58202777 37.19042969 94.41015625 C36.47000488 94.14315918 35.74958008 93.87616211 35.00732422 93.60107422 C32.1688202 92.40102026 29.72464852 90.99876325 27.12011719 89.35546875 C26.15138672 88.74703125 25.18265625 88.13859375 24.18457031 87.51171875 C22.6405957 86.53332031 22.6405957 86.53332031 21.06542969 85.53515625 C19.99228516 84.8596875 18.91914063 84.18421875 17.81347656 83.48828125 C14.6031796 81.46634733 11.39637089 79.43898764 8.19042969 77.41015625 C6.53689013 76.36571714 4.88325437 75.32143031 3.22949219 74.27734375 C0.97186933 72.85160297 -1.28546141 71.42541318 -3.54174805 69.99755859 C-13.93590484 63.42313516 -24.37531999 56.92067834 -34.80957031 50.41015625 C-33.51591735 42.09972962 -29.00362026 35.599083 -24.62207031 28.59765625 C-23.87046979 27.37884021 -23.11981203 26.15944227 -22.37011719 24.93945312 C-20.54747646 21.9801824 -18.7085998 19.0315092 -16.86090088 16.08782959 C-15.83712921 14.45413369 -14.8200798 12.81623128 -13.80322266 11.17822266 C-13.19043457 10.19901855 -12.57764648 9.21981445 -11.94628906 8.2109375 C-11.41092529 7.35282471 -10.87556152 6.49471191 -10.32397461 5.6105957 C-7.30623292 1.22579708 -5.61166644 -0.23499013 0 0 Z " fill="#84B749" transform="translate(131.8095703125,6.58984375)"/>
<path d="M0 0 C1.13384628 -0.0066568 2.26769257 -0.0133136 3.43589783 -0.02017212 C5.8271218 -0.03027509 8.21837384 -0.03498987 10.60961914 -0.03466797 C14.26821056 -0.03905156 17.92560534 -0.07542663 21.58398438 -0.11328125 C23.91015213 -0.11914775 26.23632561 -0.12311826 28.5625 -0.125 C29.65530777 -0.13937103 30.74811554 -0.15374207 31.8740387 -0.16854858 C33.40604164 -0.1593187 33.40604164 -0.1593187 34.96899414 -0.14990234 C36.31085533 -0.1541774 36.31085533 -0.1541774 37.67982483 -0.15853882 C41.40547209 0.56817936 42.77936351 1.36287648 45.21484375 4.3359375 C45.97204305 8.22243039 45.88682203 12.06904422 45.84594727 16.01757812 C45.85310257 17.21142624 45.86025787 18.40527435 45.86763 19.63529968 C45.88164088 22.9062484 45.87320878 26.17617352 45.85353971 29.44706535 C45.83714899 32.87117327 45.84596666 36.29522972 45.85105896 39.71936035 C45.8555795 45.46945209 45.83971301 51.21921849 45.81176758 56.96923828 C45.77971545 63.61545946 45.77973127 70.26109389 45.79698235 76.90735674 C45.81285067 83.3029112 45.80611205 89.69825071 45.78904533 96.09379578 C45.7821758 98.81464872 45.78320615 101.5353293 45.79059029 104.25617981 C45.79602786 108.05592446 45.77571157 111.8546664 45.74829102 115.65429688 C45.75481689 116.78377243 45.76134277 117.91324799 45.76806641 119.07695007 C45.74897972 120.62893852 45.74897972 120.62893852 45.72950745 122.21228027 C45.72670053 123.11044212 45.7238936 124.00860397 45.72100163 124.93398285 C45.05099263 128.11348729 43.71175298 129.32361796 41.21484375 131.3359375 C38.71310425 131.8506012 38.71310425 131.8506012 35.87060547 131.86938477 C34.80204315 131.8852211 33.73348083 131.90105743 32.63253784 131.91737366 C31.48149567 131.91241379 30.33045349 131.90745392 29.14453125 131.90234375 C27.95312531 131.90854233 26.76171936 131.91474091 25.53421021 131.92112732 C23.01077084 131.9282333 20.48728467 131.92503804 17.96386719 131.91235352 C14.12475709 131.89856291 10.28812014 131.93246214 6.44921875 131.97070312 C3.99348899 131.97165507 1.53775621 131.96979143 -0.91796875 131.96484375 C-2.05686554 131.97810196 -3.19576233 131.99136017 -4.36917114 132.00502014 C-12.42088457 131.91222445 -19.28702354 130.36775721 -25.43411255 124.85792542 C-30.70972447 118.91480339 -31.08593529 113.37292733 -31.09155273 105.80737305 C-31.09987625 104.85388977 -31.10819977 103.90040649 -31.11677551 102.91802979 C-31.14084813 99.76953025 -31.14964444 96.62123802 -31.15625 93.47265625 C-31.16521854 91.27936237 -31.17434043 89.08606912 -31.18360901 86.89277649 C-31.20009422 82.2954459 -31.20779826 77.69818811 -31.21069336 73.10083008 C-31.21607597 67.21956603 -31.25375371 61.33898919 -31.29943752 55.45791912 C-31.32922915 50.92734804 -31.33641739 46.39694201 -31.33741951 41.86628151 C-31.34161774 39.698605 -31.35403601 37.53092782 -31.37493706 35.36334801 C-31.4018936 32.32595136 -31.39701271 29.29014207 -31.38452148 26.25268555 C-31.39935577 25.36357986 -31.41419006 24.47447418 -31.42947388 23.5584259 C-31.34481791 16.30316075 -28.87725246 11.42207591 -23.7578125 6.3125 C-23.12746094 5.86648437 -22.49710937 5.42046875 -21.84765625 4.9609375 C-21.21988281 4.49945313 -20.59210938 4.03796875 -19.9453125 3.5625 C-13.48981732 -0.10300721 -7.22974396 0.01475165 0 0 Z " fill="#425A71" transform="translate(424.78515625,48.6640625)"/>
<path d="M0 0 C0.33 0 0.66 0 1 0 C1.33 35.31 1.66 70.62 2 107 C21.305 115.91 21.305 115.91 41 125 C59.9375 133.8125 59.9375 133.8125 68.15234375 137.64453125 C90.94898844 147.80475873 113.68658076 150.69887373 138 145 C138.87785156 144.80664062 139.75570312 144.61328125 140.66015625 144.4140625 C162.7822595 138.72657686 180.18045013 122.68682854 196.26782227 107.39086914 C200.1415588 103.71044768 204.08743944 100.14111816 208.12280273 96.63867188 C210.74981871 94.34545673 213.31177961 91.98941105 215.875 89.625 C220.36538774 85.49180219 224.88675762 81.39580265 229.4296875 77.3203125 C232.34428447 74.68920217 235.23539224 72.03347525 238.125 69.375 C241.36213091 66.3977736 244.61137856 63.44047034 247.9375 60.5625 C252.1167558 56.94164163 256.15682901 53.17482147 260.20922852 49.41357422 C263.22367665 46.62119703 266.26198989 43.87050288 269.375 41.1875 C277.19419785 34.44151971 277.19419785 34.44151971 283 26 C285.45996775 28.45996775 285.29676247 29.23618554 285.3125 32.625 C285.12991263 40.54472726 282.67469024 46.38488656 277 52 C275.17708687 53.66703457 273.31758468 55.2804676 271.4375 56.8828125 C268.39675431 59.52397302 265.45014918 62.25852403 262.5 65 C259.03748844 68.21196092 255.5734977 71.41104436 252 74.5 C247.88795707 78.05683038 243.9123038 81.75583684 239.92456055 85.45043945 C234.99335742 90.01610385 230.00693471 94.51752326 225 99 C219.59662142 103.84470939 214.21635577 108.71209075 208.875 113.625 C205.02727071 117.16370382 201.13747957 120.64292308 197.18359375 124.0625 C194.86069156 126.1236082 192.59103529 128.23473038 190.32202148 130.35473633 C165.25437487 153.73461736 140.00920902 165.27636569 105.6484375 164.37109375 C89.2997328 163.63423132 75.70768285 157.78646815 61 151 C60.26819519 150.66301086 59.53639038 150.32602173 58.78240967 149.9788208 C50.93797543 146.36580428 43.09800207 142.74323759 35.27148438 139.09155273 C34.41788834 138.69358994 33.5642923 138.29562714 32.68482971 137.88560486 C31.11617258 137.15380857 29.54800972 136.42095082 27.98057556 135.6865387 C18.6979544 131.35604889 9.34375511 127.2046898 0 123 C0 82.41 0 41.82 0 0 Z " fill="#F0BC98" transform="translate(118,344)"/>
<path d="M0 0 C1.11306519 -0.00478363 2.22613037 -0.00956726 3.3729248 -0.01449585 C5.72307755 -0.01789393 8.07327762 -0.00869813 10.42333984 0.01220703 C14.01897662 0.03897114 17.61149148 0.01245316 21.20703125 -0.01953125 C23.49219439 -0.01622714 25.77735558 -0.00982089 28.0625 0 C29.13657104 -0.01012115 30.21064209 -0.02024231 31.31726074 -0.03067017 C35.75385665 0.03893797 38.75922899 0.25086565 42.70654297 2.36352539 C45.67445029 7.73188759 45.24323177 13.10454099 45.1953125 19.13671875 C45.20009613 20.45192001 45.20487976 21.76712128 45.20980835 23.12217712 C45.21716405 25.90051768 45.20651677 28.67805227 45.18310547 31.45629883 C45.15458792 35.01335412 45.17104475 38.56852558 45.20096779 42.12551212 C45.22339969 45.52523135 45.2076871 48.92444602 45.1953125 52.32421875 C45.20543365 53.60031509 45.21555481 54.87641144 45.22598267 56.19117737 C45.21022186 57.3759819 45.19446106 58.56078644 45.17822266 59.78149414 C45.17424469 60.82342422 45.17026672 61.86535431 45.16616821 62.93885803 C44.30511588 66.63467839 42.67547814 67.66817178 39.53125 69.6640625 C36.28649852 70.39172891 34.4217375 70.15954274 31.51025391 68.53955078 C29.22828311 67.00442539 27.03319828 65.39084545 24.84375 63.7265625 C23.34211298 62.61022232 21.83829549 61.49680757 20.33203125 60.38671875 C19.34456909 59.64047241 19.34456909 59.64047241 18.3371582 58.87915039 C16.43812727 57.48456229 16.43812727 57.48456229 13.53125 56.6640625 C11.43490406 57.74180836 11.43490406 57.74180836 9.29296875 59.41015625 C8.47248047 59.99990234 7.65199219 60.58964844 6.80664062 61.19726562 C5.0908445 62.45983259 3.37727229 63.72542777 1.66601562 64.99414062 C-4.57336424 69.46756622 -4.57336424 69.46756622 -8.76171875 70.38671875 C-11.59835556 69.62946361 -13.37586968 68.70357244 -15.40638733 66.56614685 C-17.90651185 62.08985278 -17.17316094 56.42475135 -17.1328125 51.4453125 C-17.13759613 50.15467896 -17.14237976 48.86404541 -17.14730835 47.53430176 C-17.1546643 44.8072302 -17.14401785 42.0809797 -17.12060547 39.35400391 C-17.09211557 35.86653544 -17.10852683 32.38099078 -17.13846779 28.89359283 C-17.160929 25.55651373 -17.14518132 22.21994619 -17.1328125 18.8828125 C-17.14293365 17.63375122 -17.15305481 16.38468994 -17.16348267 15.09777832 C-17.0971193 10.19358894 -17.04859471 6.70784504 -14.64404297 2.37939453 C-9.823291 -0.22483454 -5.4010059 -0.0508946 0 0 Z " fill="#F8834A" transform="translate(249.46875,247.3359375)"/>
<path d="M0 0 C7.72595536 4.55072911 13.91050606 10.58586085 16.34765625 19.3828125 C17.76075223 29.88320261 16.70899481 38.54163009 10.34765625 47.3828125 C4.18057673 54.23512308 -2.50074386 57.82747993 -11.71484375 58.54296875 C-19.97629999 58.87285329 -27.17400959 56.59364649 -33.65234375 51.3828125 C-39.86822474 45.26050391 -43.95631658 39.18580625 -44.17163086 30.22998047 C-44.16526611 29.51729004 -44.15890137 28.80459961 -44.15234375 28.0703125 C-44.14662354 27.32410645 -44.14090332 26.57790039 -44.13500977 25.80908203 C-43.86235103 17.34656284 -40.94471485 11.56722769 -35.15234375 5.4453125 C-25.43556413 -3.49496422 -12.08655557 -5.62073966 0 0 Z " fill="#6F9A3D" transform="translate(208.65234375,90.6171875)"/>
<path d="M0 0 C7.43645713 4.24599254 14.91563767 8.41493566 22.39624023 12.58251953 C29.37056511 16.47777571 36.28441379 20.46883252 43.171875 24.515625 C42.38039063 25.14428467 41.58890625 25.77294434 40.7734375 26.4206543 C38.81247167 27.99976914 37.00094603 29.60817469 35.171875 31.328125 C32.171875 33.515625 32.171875 33.515625 29.77441406 33.30541992 C27.09262272 32.49157424 24.95491152 31.46866756 22.53125 30.06640625 C21.63768799 29.554729 20.74412598 29.04305176 19.82348633 28.51586914 C18.86595459 27.95891357 17.90842285 27.40195801 16.921875 26.828125 C14.85837409 25.64530776 12.79456064 24.46303564 10.73046875 23.28125 C9.65780762 22.66443359 8.58514648 22.04761719 7.47998047 21.41210938 C1.99880482 18.26983834 -3.50677129 15.17153899 -9.015625 12.078125 C-10.51754395 11.22891479 -10.51754395 11.22891479 -12.04980469 10.36254883 C-33.70048379 -1.80295126 -54.33882282 -9.64936281 -79.328125 -3.515625 C-96.68259472 1.59774554 -109.17177027 10.33733652 -121.66015625 23.27734375 C-124.10941888 25.81208789 -126.63201422 28.17812105 -129.328125 30.453125 C-132.9284377 33.49476849 -135.84919049 36.86643023 -138.828125 40.515625 C-142.128125 38.535625 -145.428125 36.555625 -148.828125 34.515625 C-146.83597559 30.53132619 -144.55584427 27.96917262 -141.4453125 24.90234375 C-140.91221466 24.36970413 -140.37911682 23.83706451 -139.8298645 23.2882843 C-138.70078983 22.16222579 -137.56929059 21.0385938 -136.43554688 19.91723633 C-134.72476629 18.22453756 -133.02195008 16.52415011 -131.3203125 14.82226562 C-126.18024844 9.69924097 -121.02865105 4.64145848 -115.49169922 -0.05737305 C-113.63659425 -1.6486687 -111.86038263 -3.31221446 -110.078125 -4.984375 C-75.48574852 -34.94204473 -34.60728352 -19.76139214 0 0 Z " fill="#F3BD98" transform="translate(365.828125,25.484375)"/>
<path d="M0 0 C25.08 0 50.16 0 76 0 C76 22.44467213 76 22.44467213 71.70703125 27.44140625 C63.61850351 34.82658375 55.80828417 35.30975384 45.3359375 35.30078125 C44.22570221 35.30506638 43.11546692 35.3093515 41.97158813 35.31376648 C39.63340943 35.31949081 37.29521292 35.32002408 34.95703125 35.31567383 C31.37990117 35.31250434 27.80359106 35.33603055 24.2265625 35.36132812 C21.95052187 35.36360034 19.67447903 35.36430498 17.3984375 35.36328125 C16.33064056 35.372491 15.26284363 35.38170074 14.16268921 35.39118958 C8.43554727 35.35544803 4.26554153 35.26554153 0 31 C0 20.77 0 10.54 0 0 Z " fill="#374F68" transform="translate(42,451)"/>
<path d="M0 0 C1.65408725 1.39326312 3.2232003 2.88646946 4.76953125 4.3984375 C4.19819819 8.70627895 2.67081561 11.52016939 0.3125 15.14453125 C-0.7384082 16.77165039 -0.7384082 16.77165039 -1.81054688 18.43164062 C-2.55453959 19.56650323 -3.2986814 20.70126811 -4.04296875 21.8359375 C-4.77610016 22.96633702 -5.50852886 24.09719261 -6.24023438 25.22851562 C-8.22723305 28.29172951 -10.22278665 31.34874501 -12.23046875 34.3984375 C-12.93260498 35.4800415 -13.63474121 36.56164551 -14.3581543 37.67602539 C-17.04209408 41.57856973 -17.04209408 41.57856973 -20.23046875 42.3984375 C-26.56091441 42.09811673 -30.31105359 39.8278679 -35.35546875 36.3359375 C-36.84503074 35.32876909 -38.33593275 34.32357987 -39.828125 33.3203125 C-40.56434082 32.82337891 -41.30055664 32.32644531 -42.05908203 31.81445312 C-44.07974836 30.49672604 -46.12330833 29.28170713 -48.2265625 28.1015625 C-48.83161621 27.75746338 -49.43666992 27.41336426 -50.06005859 27.05883789 C-51.69394716 26.14153077 -53.33885503 25.2439309 -54.984375 24.34765625 C-57.23046875 22.3984375 -57.23046875 22.3984375 -57.7265625 19.4453125 C-56.53922165 12.15298287 -50.98100892 6.53755894 -45.4453125 1.96875 C-32.43151218 -7.25796557 -13.53885125 -9.72141683 0 0 Z " fill="#709B3E" transform="translate(282.23046875,185.6015625)"/>
<path d="M0 0 C8.25 0 16.5 0 25 0 C30.626427 5.626427 30.626427 5.626427 30.64697266 11.01196289 C30.66273346 12.19991959 30.67849426 13.38787628 30.69473267 14.61183167 C30.67955093 16.52293983 30.67955093 16.52293983 30.6640625 18.47265625 C30.66884613 19.78785751 30.67362976 21.10305878 30.67855835 22.45811462 C30.68591405 25.23645518 30.67526677 28.01398977 30.65185547 30.79223633 C30.62333792 34.34929162 30.63979475 37.90446308 30.66971779 41.46144962 C30.69214969 44.86116885 30.6764371 48.26038352 30.6640625 51.66015625 C30.67418365 52.93625259 30.68430481 54.21234894 30.69473267 55.52711487 C30.67897186 56.7119194 30.66321106 57.89672394 30.64697266 59.11743164 C30.64299469 60.15936172 30.63901672 61.20129181 30.63491821 62.27479553 C29.77388488 65.97053437 28.14405301 67.00403535 25 69 C21.7506702 69.72972237 19.88263481 69.48722626 16.96289062 67.87548828 C14.66394313 66.34234574 12.45462637 64.72825972 10.25 63.0625 C8.73492314 61.9484729 7.21932322 60.8351567 5.703125 59.72265625 C5.03958008 59.22515869 4.37603516 58.72766113 3.69238281 58.21508789 C2.00784499 56.93793472 2.00784499 56.93793472 0 56 C0 37.52 0 19.04 0 0 Z " fill="#F66824" transform="translate(264,248)"/>
<path d="M0 0 C8.23895877 1.25752529 14.32703361 6.63919015 19.5 12.92578125 C25.33043588 20.98818086 28.10564029 30.06305791 27 40 C25.20798903 48.37968766 22.24853008 55.2293962 17 62 C12.84875276 61.43020264 10.16640137 60.07163622 6.69140625 57.76171875 C5.19963867 56.77848633 5.19963867 56.77848633 3.67773438 55.77539062 C2.13569336 54.74188477 2.13569336 54.74188477 0.5625 53.6875 C-0.46166016 53.01009766 -1.48582031 52.33269531 -2.54101562 51.63476562 C-5.36594212 49.76428031 -8.18316261 47.88263148 -11 46 C-12.200454 45.21083582 -13.40095905 44.42174928 -14.6015625 43.6328125 C-17.15393234 41.89520567 -18.64665467 40.78629922 -20 38 C-19.65928108 32.50345734 -18.14080135 28.94297703 -15.25390625 24.296875 C-14.88273178 23.6924054 -14.51155731 23.08793579 -14.12913513 22.46514893 C-12.95131497 20.55299056 -11.7572743 18.65159997 -10.5625 16.75 C-9.76389013 15.45900316 -8.96635361 14.1673417 -8.16992188 12.875 C-5.4974749 8.5493662 -2.8206696 4.2310044 0 0 Z " fill="#709B3E" transform="translate(88,68)"/>
<path d="M0 0 C4.39830443 0.9601047 7.86686647 3.53556962 11.53369141 6.04736328 C13.204083 7.15440776 14.87465514 8.26117986 16.54541016 9.36767578 C17.3451123 9.90553711 18.14481445 10.44339844 18.96875 10.99755859 C20.907726 12.27787962 22.86118262 13.49091112 24.86572266 14.66455078 C25.84927734 15.24462891 26.83283203 15.82470703 27.84619141 16.42236328 C29.10302734 17.14746094 29.10302734 17.14746094 30.38525391 17.88720703 C32.22119141 19.48486328 32.22119141 19.48486328 33.12744141 21.92626953 C33.32364283 27.28093345 29.23073196 31.34248845 25.84619141 35.17236328 C16.33397099 43.55217651 6.19413686 47.32102321 -6.63818359 46.87158203 C-14.84487923 45.86105608 -21.38780129 42.59766912 -27.77880859 37.48486328 C-27.19791752 32.98098967 -25.44797839 29.87074511 -23.10302734 26.01220703 C-22.73659622 25.40727921 -22.3701651 24.80235138 -21.99263 24.17909241 C-21.21865214 22.90537093 -20.44100235 21.6338743 -19.65991211 20.36450195 C-18.4714379 18.43070929 -17.29722808 16.48878977 -16.12451172 14.54541016 C-15.36818747 13.30466505 -14.6110525 12.06441371 -13.85302734 10.82470703 C-13.16813232 9.70443115 -12.4832373 8.58415527 -11.77758789 7.42993164 C-8.43446185 2.50405776 -6.33678042 -0.33860659 0 0 Z " fill="#678D38" transform="translate(131.77880859375,6.51513671875)"/>
<path d="M0 0 C1.13384628 -0.0066568 2.26769257 -0.0133136 3.43589783 -0.02017212 C5.8271218 -0.03027509 8.21837384 -0.03498987 10.60961914 -0.03466797 C14.26821056 -0.03905156 17.92560534 -0.07542663 21.58398438 -0.11328125 C23.91015213 -0.11914775 26.23632561 -0.12311826 28.5625 -0.125 C29.65530777 -0.13937103 30.74811554 -0.15374207 31.8740387 -0.16854858 C33.40604164 -0.1593187 33.40604164 -0.1593187 34.96899414 -0.14990234 C36.31085533 -0.1541774 36.31085533 -0.1541774 37.67982483 -0.15853882 C40.21484375 0.3359375 40.21484375 0.3359375 45.21484375 4.3359375 C45.21484375 10.9359375 45.21484375 17.5359375 45.21484375 24.3359375 C20.13484375 24.3359375 -4.94515625 24.3359375 -30.78515625 24.3359375 C-30.78515625 16.36714743 -30.62173483 13.97667011 -25.78515625 8.3359375 C-17.86984889 0.98949206 -10.50069325 0.02142573 0 0 Z " fill="#374F68" transform="translate(424.78515625,48.6640625)"/>
<path d="M0 0 C6.64322557 4.61305583 11.84766868 10.06652753 14 18 C14.84731469 26.31684608 14.70499333 33.40279294 11 41 C7.10165042 40.33765905 4.06268011 38.41583947 0.75 36.375 C0.11884277 35.99110107 -0.51231445 35.60720215 -1.16259766 35.21166992 C-3.4470593 33.81626561 -5.72416006 32.40942368 -8 31 C-8.9580957 30.40687012 -9.91619141 29.81374023 -10.90332031 29.20263672 C-14.06297655 27.24313302 -17.2197492 25.27908916 -20.375 23.3125 C-21.8894873 22.36866455 -21.8894873 22.36866455 -23.43457031 21.40576172 C-29.35634088 17.69953332 -35.21372325 13.91456563 -41 10 C-38.20649438 4.11841473 -33.28514699 -0.27453637 -27.3125 -2.9375 C-18.17694163 -5.80918829 -8.21664998 -4.83975722 0 0 Z " fill="#678C38" transform="translate(211,92)"/>
<path d="M0 0 C3.20292594 2.00260411 6.37288982 4.05319375 9.5390625 6.11328125 C16.29811971 10.5036822 23.22016546 14.62414303 30.14550781 18.74560547 C43.26655485 26.64163955 43.26655485 26.64163955 44.578125 30.6875 C44.39494403 33.51847863 44.16507316 35.99797869 42.88671875 38.5546875 C39.4930371 40.25152833 36.52333266 40.28540568 32.88671875 39.5546875 C28.38431932 37.40425398 24.24763364 34.7121089 20.07421875 31.9921875 C18.96240234 31.28771484 17.85058594 30.58324219 16.70507812 29.85742188 C12.38061558 27.1119322 8.0794761 24.33175566 3.78759766 21.53564453 C2.82644043 20.91415527 1.8652832 20.29266602 0.875 19.65234375 C0.03106689 19.10199463 -0.81286621 18.55164551 -1.68237305 17.98461914 C-4.09874772 16.56323655 -6.48636782 15.52274452 -9.11328125 14.5546875 C-9.11328125 13.8946875 -9.11328125 13.2346875 -9.11328125 12.5546875 C-9.84248779 12.28285645 -10.57169434 12.01102539 -11.32299805 11.73095703 C-14.01135618 10.59765495 -16.30361841 9.3037236 -18.7578125 7.734375 C-19.59892578 7.19941406 -20.44003906 6.66445312 -21.30664062 6.11328125 C-22.17095703 5.55769531 -23.03527344 5.00210938 -23.92578125 4.4296875 C-24.80943359 3.86636719 -25.69308594 3.30304688 -26.60351562 2.72265625 C-28.77585538 1.33705576 -30.94565208 -0.05235884 -33.11328125 -1.4453125 C-25.85719066 -12.32944838 -8.68339392 -5.28485566 0 0 Z " fill="#E6A274" transform="translate(274.11328125,76.4453125)"/>
<path d="M0 0 C0.59952919 8.20605572 -3.77201716 16.02605474 -8.859375 22.2890625 C-10.80355256 24.11273319 -12.78536052 25.51866756 -15 27 C-15.66491455 27.44907715 -16.3298291 27.8981543 -17.01489258 28.36083984 C-26.05433931 33.38391877 -35.79236117 32.7207835 -45.83618164 32.59692383 C-48.9548413 32.56230752 -52.07070889 32.57638066 -55.18945312 32.59570312 C-57.17709538 32.5888119 -59.16473038 32.5791461 -61.15234375 32.56640625 C-62.08151108 32.57136612 -63.01067841 32.57632599 -63.96800232 32.58143616 C-70.33878585 32.46481762 -70.33878585 32.46481762 -73.58422852 30.18334961 C-75.67503354 26.95898863 -75.53633798 24.75436588 -75 21 C-73.53613281 18.81054688 -73.53613281 18.81054688 -71 17 C-67.97335997 16.4318094 -64.99342043 16.49039783 -61.921875 16.53125 C-60.59376801 16.52067566 -60.59376801 16.52067566 -59.23883057 16.5098877 C-55.45936003 16.48044959 -51.68040641 16.4969704 -47.90087891 16.50927734 C-45.13673613 16.51167137 -42.37341538 16.49066248 -39.609375 16.46875 C-38.76638855 16.48006958 -37.9234021 16.49138916 -37.05487061 16.50305176 C-29.64525507 16.44057016 -24.1969281 14.23537906 -18.8125 9.125 C-14.2476089 4.96351788 -6.30232416 0 0 0 Z " fill="#E7A273" transform="translate(269,406)"/>
<path d="M0 0 C0.65310654 -0.00145523 1.30621307 -0.00291046 1.97911072 -0.00440979 C3.35501584 -0.00275479 4.73094024 0.00876223 6.10668945 0.02954102 C8.21189915 0.05855317 10.3145973 0.05013403 12.41992188 0.03710938 C13.75912681 0.04334578 15.09832381 0.05173597 16.4375 0.0625 C17.6531665 0.07224854 18.86883301 0.08199707 20.12133789 0.09204102 C23.15234375 0.49609375 23.15234375 0.49609375 25.04931641 1.90209961 C26.43172684 3.89983261 26.52426726 5.08258516 26.46484375 7.49609375 C26.46097656 8.17671875 26.45710938 8.85734375 26.453125 9.55859375 C26.15234375 11.49609375 26.15234375 11.49609375 24.15234375 14.49609375 C18.7266561 16.3046563 12.89265651 15.76611635 7.21484375 15.80859375 C5.92642578 15.83759766 4.63800781 15.86660156 3.31054688 15.89648438 C2.07369141 15.90486328 0.83683594 15.91324219 -0.4375 15.921875 C-1.57050537 15.93645752 -2.70351074 15.95104004 -3.87084961 15.96606445 C-7.5111746 15.39133915 -8.67011047 14.42350557 -10.84765625 11.49609375 C-11.39854073 7.63990236 -11.5844039 5.50142278 -9.24438477 2.30834961 C-6.03711728 -0.11678501 -3.99509218 -0.00608403 0 0 Z " fill="#FFA92C" transform="translate(297.84765625,347.50390625)"/>
<path d="M0 0 C2.4375 1.5625 2.4375 1.5625 4 4 C4.5625 7.5 4.5625 7.5 4 11 C1.9375 13.5 1.9375 13.5 -1 15 C-4.8137751 15 -7.02424548 14.84985071 -9.9375 12.3125 C-11.33817538 9.26397123 -11.4842732 7.32073048 -11 4 C-8.05899778 -0.47032338 -5.13105401 -0.73300772 0 0 Z " fill="#203043" transform="translate(435,134)"/>
<path d="M0 0 C2.4375 1.625 2.4375 1.625 4 4 C4.60024477 7.60146865 4.45562482 9.27859404 2.5 12.375 C-1.24099229 14.80664499 -3.57426418 14.49174842 -8 14 C-10 13 -10 13 -11 11 C-11.45439787 8.23910156 -11.50533624 5.75637948 -11 3 C-8.06403859 -0.7580306 -4.50318499 -0.56289812 0 0 Z " fill="#1F3043" transform="translate(84,423)"/>
</svg>
